<?xml version="1.0" encoding="UTF-8" standalone="no"?><!DOCTYPE svg PUBLIC "-//W3C//DTD SVG 1.1//EN" "http://www.w3.org/Graphics/SVG/1.1/DTD/svg11.dtd"><svg width="100%" height="100%" viewBox="0 0 395 395" version="1.1" xmlns="http://www.w3.org/2000/svg" xmlns:xlink="http://www.w3.org/1999/xlink" xml:space="preserve" xmlns:serif="http://www.serif.com/" style="fill-rule:evenodd;clip-rule:evenodd;stroke-linejoin:round;stroke-miterlimit:2;"><path d="M340.023,376.435l-0,6.055l-6.096,-0l-0,-6.055l6.096,-0Zm-24.302,-0l6.055,-0l-0,-12.111l6.096,-0.04l-0,18.206l-12.151,-0l-0,-6.055Zm-30.357,-0l6.055,-0l-0,6.055l-6.055,-0l-0,-6.055Zm-54.659,-0l-0,6.055l-6.055,-0l-0,-6.055l6.055,-0Zm-72.824,-0l24.261,-0l-0,6.055l-24.302,-0l0.041,-6.055Zm-30.357,-0l-0,6.014l-6.096,0.081l-0,-6.095l6.096,-0Zm-30.357,0.04l6.055,-0.04l-0,6.055l-6.055,-0l-0,-6.015Zm-18.247,-6.096l5.974,0l0.122,-6.014l5.974,-0.081l0.081,18.165l-12.151,0.041l0,-12.111Zm-66.769,-29.381l0.041,-0.975l42.426,-0l0.041,42.467l-0.976,0.04l-41.207,-0.04l-0.325,-0l-0,-41.492Zm303.57,35.437l-6.055,-0l-0,-6.056l6.055,0l-0,6.056Zm-212.499,-12.151l6.055,0.04l0.041,6.055l12.11,0l-0,6.056l-6.055,0.04l-0,6.015l-6.096,-0l-0,-6.015l-6.055,-0.04l-0,-12.151Zm-24.302,6.095l-18.165,0l-0.041,-18.165l6.096,-0.041l-0,6.056l12.151,-0l-0.041,12.15Zm18.247,-12.11l6.055,-0.04l-0,6.055l-6.055,-0l-0,-6.015Zm-24.302,-12.191l-0,-6.055l6.014,-0l0.041,0.975l0,5.08l-6.055,-0Zm-6.055,-6.177l-6.096,0.04l-0,-5.933l6.014,-0.081c0.691,-7.153 -2.357,-6.055 5.934,-6.055c3.413,-0 9.143,-0.366 12.273,0.04l0.081,5.933l-18.206,0.082l-0,5.974Zm-18.247,-12.029l6.096,-0l-0.041,6.055l-5.974,-0l-0.081,-6.055Zm30.357,-6.096l-6.055,-0l-0,-12.11l12.151,-0l-0.041,6.055l-6.055,-0l0,6.055Zm-24.261,-36.412l-6.096,-0l0,-6.055l6.096,-0l-0,6.055Zm-30.357,-5.974l0.894,-0.122l5.12,0.041l0.041,6.055l-6.055,-0l-0,-5.974Zm-0.041,-12.273l0.041,6.096l-12.192,-0l0.041,-6.055l12.11,-0.041Zm0.041,-6.014l12.11,-0.041l0.041,-6.055l6.096,-0l-0.041,12.069l12.11,0.082l0,6.055l-12.11,-0l-0,12.151l-6.055,-0l-0,-6.055l-6.055,-0l-0.041,-12.07l-6.096,-0.122l0.041,-6.014Zm-0,-0l-12.11,-0.041l-0.041,-24.261l6.055,-0l0,12.151l6.015,-0l0.081,12.151Zm30.357,-12.192l5.974,0.041l0.081,6.055l-6.055,-0l-0,6.055l-6.055,-0c-0.082,-1.504 -0.325,-4.755 0.162,-6.055l5.893,-0l-0,-6.096Zm18.206,-6.055l-0,12.11l-6.055,0.041l-0,-12.151l6.055,-0Zm-12.151,-6.015l6.096,-0.04l-0.041,6.055l-6.055,-0l-0,-6.015Zm309.665,-18.246l5.974,-0l0.082,-24.302l6.055,-0l-0,36.412l-12.111,-0l0,-12.11Zm-12.15,-6.056l6.055,-0.04l-0,6.096l-6.055,-0.041l-0,-6.015Zm6.055,-6.095l6.095,-0l0,6.055l-6.095,-0l-0,-6.055Zm6.095,-18.206l6.056,-0l-0,6.055l-6.056,-0l0,-6.055Zm6.056,-0l-0,-6.096l6.055,-0l-0,6.096l-6.055,-0Zm-6.056,-0l-6.095,-0l-0,-6.096l6.095,0.04l0,6.056Zm6.056,-42.508l6.055,-0l-0.081,18.206l-5.934,-0l-0.162,-6.055l-5.934,-0l0,-6.096l6.056,-0l-0,-6.055Zm-0,-30.357l-0,-12.151l6.055,-0l-0,12.151l-6.055,-0Zm-339.982,-6.096l-6.096,-0l-0,-6.055l6.096,0.04l-0,6.015Zm-0,-36.412l-0,6.055l-12.151,-0.081l-0.081,-5.974l-12.029,-0c-0.082,-1.463 -0.285,-4.836 0.162,-6.055l11.948,-0l0.04,-6.096l18.166,-0l-0.041,12.151l-6.014,-0Zm303.57,-60.714l42.467,-0l0.04,41.532l-0.04,0.976l-42.467,-0.041l-0,-42.467Zm-267.158,42.508l-0,-6.096l6.055,0l0,6.096l-6.055,-0Zm-60.877,-42.508l41.695,-0l0.976,0.041l-0.041,42.467l-42.426,-0l-0.041,-0.976l-0.163,-41.532Zm285.527,18.206l6.055,-0l-0,6.096l-6.055,-0l-0,-6.096Zm-139.594,-6.055l6.015,0.04l-0.081,6.015l-5.974,-0.041l0.04,-6.014Zm145.649,-12.151l6.096,-0l-0,18.206l-6.096,-0.041l-0,-18.165Zm-157.84,12.11l6.055,0.041l-0,18.206l24.099,-0l-0.163,-5.974l-5.73,-0.122l-0,-18.206l-12.11,0l-0,-6.055l30.357,-0l-0.041,6.055l-6.055,0l-0,6.055l-6.055,0.081l0.04,6.015l6.015,0.122l-0,5.974l6.055,-0l0.081,-12.151l6.015,-0l-0,-6.055l6.055,-0.041l0.081,-6.055l6.015,-0l-0,6.055l6.055,0l-0,6.055l6.096,-0.081l-0,-12.029l6.055,-0l-0,24.302l6.055,-0l0.122,-6.096l5.933,0.041l0.041,6.055l6.055,-0.041l-0,-6.055l6.055,-0l-0.081,-6.055l-5.974,-0l-0,-12.151l6.096,-0l-0,6.055l18.206,0c-0,-1.91 0.243,-4.145 -0.163,-5.974c0.406,-0.528 -0.041,-0.244 0.854,-0.487l5.73,-0c-0,1.95 0.325,4.673 -0.163,6.461l5.852,0.041l0.162,6.014c-0.203,0.203 -0.121,0.407 -1.341,0.488c-0.284,0.04 -1.137,-0.041 -1.503,-0.041l-3.007,0l-0,5.243l4.51,-0.041c1.545,0.122 1.22,0.284 1.341,0.488l-0.121,6.055l6.055,-0l0.04,-12.151l5.812,-0c-0.325,-1.544 -0.407,-4.592 0.04,-6.096l-5.892,-0.041l-0.163,-5.973c0.813,-0.935 5.486,-0.447 6.624,-0.447c0,1.95 0.325,4.714 -0.203,6.461l5.893,0.041l0.122,5.974c-0.163,0.203 -0.082,0.447 -1.301,0.528c-0.325,0.04 -1.178,-0.041 -1.544,-0.041l-2.967,0l0,17.475c1.057,-0 10.851,-0.325 11.867,0.325l-0.122,6.055l6.096,0l-0,-12.11l6.055,-0.082l0.081,-12.069l5.974,-0l-0,-12.151l12.151,0.081l-0,24.18l-6.055,0.041l-0,-5.893c-1.26,-0.447 -4.633,-0.244 -6.096,-0.162l0.04,6.014l6.056,0.041l-0,6.055l-6.056,-0l0,12.151l6.056,-0.122l-0,-5.974l6.055,0.081l-0,12.07l18.206,0.041l-0,5.811c2.194,-0.488 9.143,-0.163 11.826,-0.163l-0,-3.007c-0,-0.366 -0.082,-1.178 -0.041,-1.504c0.122,-1.584 0.284,-1.219 0.488,-1.341c2.926,0.651 14.223,0.163 18.084,0.163l-0,6.055l-6.015,0.041l-0.04,6.055l6.055,-0l-0,24.302l-6.055,-0.041l-0.082,-11.744c-1.95,-0 -4.104,0.243 -5.974,-0.163l-0.04,5.852l-5.811,-0c0.406,1.544 0.406,16.946 -0.041,18.206l5.892,-0.081c0.041,0.04 0.041,0.162 0.082,0.203c0.406,1.178 0.203,-0.325 0.244,1.422l-0.163,4.552l5.893,-0l-0,5.892c1.788,-0.528 4.511,-0.203 6.461,-0.203c0,1.179 0,2.357 0.041,3.495c-0,0.447 0.04,1.382 -0,1.788c-0.122,1.626 -0.285,1.179 -0.488,1.301c-1.869,-0.407 -4.104,-0.163 -6.014,-0.122l-0,6.055l6.055,-0c0.04,1.463 0.244,4.836 -0.163,6.055l-5.892,0.041l-0,6.055l-12.151,0.122l-0,5.933l-6.055,-0l-0,6.055l6.055,0.122l-0,5.974l6.055,-0l-0,6.055l12.151,-0l-0,6.096l-6.055,-0l-0,6.055l-6.056,-0l-0.081,-6.055l-6.014,0.04l-0,6.015l-5.893,-0c-0.406,1.26 -0.162,4.551 -0.162,6.055l6.055,0.041l0.122,6.055l5.973,-0l0,6.055l-6.055,0.041l-0.04,6.055l-6.055,-0l-0,6.055l-36.453,-0.041l-0.081,-11.744l-6.421,-0l-0,-6.015l-5.243,0l0,6.015c-1.95,-0 -4.673,0.325 -6.461,-0.204l-0,5.934l6.096,-0l-0,12.069l18.206,0.082l-0,6.055l-12.151,-0l-0,12.11l-6.055,0.041l-0,6.055l12.11,-0l0.04,-12.11l6.015,-0l0.041,12.11l6.055,0.04l-0,6.056l6.055,-0.041l0.041,-12.11l6.055,-0l-0,-6.096l-12.151,-0l-0,-12.11c2.154,-0 10.769,-0.325 12.151,0.162l-0,11.948l6.014,0.041l0.081,12.11l6.015,-0l0.041,-12.11l5.973,-0.041l0.082,12.07l12.151,0.081l-0,-6.055l6.055,-0l-0,24.261l-6.055,-0l-0,6.096c1.91,-0 4.145,0.243 6.014,-0.163c0.203,0.122 0.366,-0.325 0.488,1.341c0.04,0.366 -0,1.301 -0,1.748c-0.041,1.178 -0.041,2.316 -0.041,3.495c-1.95,-0 -4.673,0.325 -6.461,-0.163l-0,5.893l6.055,-0l-0,6.055l-6.055,-0l-0,5.892c0.934,-0.284 5.201,-0.528 6.136,0.163l0,18.247c-0.244,0.162 -0.041,0.121 -0.65,0.284l-5.486,-0.122l-0,5.893l6.055,-0l-0,18.206l-6.055,-0l-0,6.096l6.055,-0l0.081,42.467c-0.447,0.406 0.528,0.122 -0.894,0.406l-17.718,0c-0,-1.95 -0.325,-4.633 0.162,-6.461l-11.988,-0c-0,1.91 -0.285,4.185 0.162,5.974c-0.122,0.284 0.325,0.406 -1.3,0.528l-5.283,-0.041c-0,-1.95 -0.325,-4.673 0.203,-6.461l-5.892,-0l-0.041,-12.151l-12.11,-0l-0,-5.934l-12.151,-0.121l-0,5.973l-6.015,0.122l-0.081,6.055l-5.893,0l-0.162,6.015l6.055,0.041l0.041,6.055l-12.151,-0l-0.082,-11.785l-6.339,-0l-0.041,-6.015c-1.747,0 -4.104,0.325 -5.689,-0.203l-0,11.948l-12.151,-0l-0,6.055l-12.151,-0l-0,-6.055l-5.893,-0c0.529,1.788 0.203,4.511 0.203,6.461c-1.137,0 -11.582,0.488 -12.638,-0.406l0.122,-6.055l-12.151,-0l-0,-6.056l-12.11,0l-0.041,12.111l-11.948,-0c-0.406,-1.301 -0.162,-4.511 -0.162,-6.055l-12.151,-0l-0,6.055l-6.055,-0l-0,-12.111l-12.111,-0.04l-0.04,-18.206l-6.096,-0l-0,18.246l-12.07,-0.04l-0.04,-12.029l6.055,-0.122l-0,-5.933l-12.151,-0.122l-0,12.151l-5.974,-0l-0.081,18.125l-12.151,0.081l-0,-6.055l-6.055,-0l-0,-12.151l6.055,-0l-0,6.014l6.055,0.081l-0,-12.15l-6.055,-0l-0,-6.096l-6.055,0.04l-0,12.07l-18.247,0.041l-0,-6.015l-6.055,-0.04l-0,-6.096l6.014,-0l0.041,-6.015l-6.055,-0.04l-0,-11.989c-1.26,-0.365 -4.633,-0.203 -6.055,-0.122l-0.041,18.166l-6.055,-0l-0,6.055l-6.055,0.041l-0,-18.206l6.055,-0.041l-0,-18.206l12.07,-0l0.081,5.892c1.178,0.407 21.823,0.326 24.302,0.163l-0.041,-5.974l-6.055,-0.081l-0,-5.933c1.707,-0.407 26.334,-0.122 30.316,-0.122l0.041,-18.206l6.014,-0l0.082,-12.07l6.055,-0.122l-0,-6.014l6.055,-0l-0,-6.096l-18.206,-0l-0,6.096l-6.015,-0l-0.04,-6.015l-6.096,-0.081l-0,18.206l6.096,-0l-0,-6.055l6.014,-0l0.041,6.055l-6.055,-0l-0,12.069l-12.151,0.082l-0,6.096l-18.206,-0.041l-0,-6.055l-6.096,-0l-0,-6.015l-6.055,-0.04l-0,12.151l5.974,-0l0.081,6.014l-12.07,0.041l-0.081,-6.055l-12.11,-0l-0,-12.151l6.055,-0l-0,-12.151l-6.015,-0l-0.081,6.014l-6.055,0.081l0,6.056l-6.055,-0l-0,12.11l-6.055,0.041l-0,-12.029l-6.096,-0.122l-0,30.357l-5.974,-0l-0.081,-6.056l-12.151,0l-0,6.056l-6.055,-0l-0.041,-6.056l-6.014,-0.04c-0.082,1.463 -0.285,4.836 0.162,6.096l5.893,-0l-0.041,6.055l-24.18,-0l-0.081,-12.151l12.07,-0l0.081,-6.055l-5.933,-0l-0.163,-6.055l-6.055,-0l-0,-30.357l6.055,-0l0,18.206l6.055,-0l0.041,-6.056l5.974,0l0.081,6.056l6.055,-0l0.041,-6.096l18.084,-0l0.122,-6.055l6.055,-0l-0,-6.015l6.055,-0.081l0.041,-12.11l12.151,-0l-0.041,-6.096l-6.014,-0l-0.041,-6.055l12.151,-0l-0,5.974l6.055,0.081l-0,-6.055l-6.055,-0l-0,-12.029l-12.151,-0.122l-0,-12.151l-6.055,-0l-0,-5.933l-6.096,-0.122l-0,12.151l-12.029,-0l-0.122,6.055l6.096,-0l-0,6.055l-12.151,-0l-0,-6.055l-6.055,-0l-0,6.055l-6.096,0.041l-0,-5.974l-6.055,-0.122l-0,-5.974l18.084,-0.081l0.122,-6.096l-24.302,-0l0,-6.055l-6.055,-0l-0.081,-6.055c0.772,-0.61 1.828,-0.447 2.926,-0.407c1.137,0 2.194,-0.162 3.21,0.203l0,-5.689l-5.242,0.203c-1.423,-0.325 -0.366,0 -0.894,-0.406l0.081,-42.508l12.11,-0.122c0.285,0.325 0.407,0.325 0.488,1.341l-0.041,10.525l5.243,0l-0,-6.014l18.246,-0c0,-1.788 -0.325,-4.064 0.163,-5.73l-5.852,-0.041l-0,-12.069l-6.055,-0l-0.082,6.055l-6.014,-0.122l-0,-5.933l-6.055,-0l-0.041,6.055l-12.11,-0l-0,-6.055l5.933,-0.041c0.407,-1.585 0.122,-9.834 0.122,-12.11l-6.055,-0l-0,-24.302l6.055,-0l0,12.151l5.893,-0l0.162,-6.096l5.974,-0.041l0.122,-5.973c1.422,-0.447 9.794,-0.163 11.948,-0.163l-0.082,-5.893l-5.77,-0.04l-0,-6.096l6.055,-0l-0,-18.206l-6.055,-0l-0,6.055l-12.151,0.081l0.04,24.221l-6.136,-0l0,-12.151l-6.055,-0l-0,-6.055l6.055,-0l-0.041,-6.055l-6.014,-0l-0.163,-12.151l12.314,-0l-0,6.055l6.055,-0.081l-0,-5.974l6.055,-0l0.041,-6.096l12.11,0l0,-5.893c1.341,-0.406 4.511,-0.162 6.096,-0.162l-0,-6.055l-6.096,-0.082l0.041,-5.973l6.014,-0l0.041,6.055l6.055,-0l0.041,-24.302l12.11,-0l-0,6.014c-7.112,0.407 -6.218,-1.91 -6.055,6.096l6.055,0.041l0.122,12.151l12.029,-0l-0.041,6.055l-6.055,0.041l0,6.014l6.096,0.122l0.04,12.029l12.07,-0l0.041,-6.055l-6.055,-0l-0.163,-18.206l-5.933,-0l0.081,-18.206l5.974,-0.082l-0.041,-6.014l-12.11,-0.081l0,-5.974l12.151,-0.041l-0.041,-12.11l-6.014,-0l-0.041,6.055l-12.11,-0l-0,6.096l-6.055,-0.163l-0,-5.933l-6.096,-0.041l0.122,-18.165l5.933,0.041l0.041,6.014l12.11,0l0.122,-6.055l5.933,0.041l0.041,6.014l12.11,0l0.041,6.015c1.381,0.121 4.795,0.284 6.055,-0.082l-0,-5.933l6.055,0l-0,-6.055l18.247,0.081l-0,5.974l6.055,0l-0,-6.055l18.206,-0l-0,6.055l-6.055,0l-0,6.055Zm-48.604,-6.055l0.041,-6.055l6.055,-0l-0,6.055l-6.096,0Zm-97.126,376.435l394.641,-0l-0,-394.641l-394.641,0l-0,394.641Z" style="fill:#fff;"/><path d="M176.087,321.776l6.014,-0l0.041,6.096l-6.055,-0l-0,-6.096Zm54.618,-5.974l0.935,-0.081l5.161,-0l-0,6.055l-6.096,-0l-0,-5.974Zm-18.206,-0.081l12.151,-0l-0,6.055l-12.151,-0l-0,-6.055Zm-30.357,-6.055l6.055,-0l0.041,12.11l-6.096,-0l-0,-12.11Zm30.357,6.055l-18.166,-0l-0.04,-5.934l18.206,-0.162l-0,6.096Zm-42.508,-12.151l12.151,-0l-0,6.055l-6.055,0.081l-0,12.07l-6.096,-0l-0,-18.206Zm36.453,-6.055l-0,6.055l-6.096,-0l-0,-6.055l6.096,-0Zm-18.206,-0l6.055,-0l-0,6.055l-6.055,-0l-0,-6.055Zm72.824,-18.206l-6.055,-0l-0,-6.096l6.055,0.04l-0,6.056Zm-54.618,18.206l-0.122,-6.096l-5.974,-0l-0,-12.11l6.096,-0l-0,-12.151l6.055,-0l0.081,6.055l12.07,0.04l-0.041,6.015l-12.11,0.122l0.081,12.029l12.07,0.04l-0,12.111l-12.151,-0.082l-0,-5.973l-6.055,-0Zm18.206,-36.453l6.055,-0l-0,6.096l-6.055,-0l-0,-6.096Zm-18.206,-0l-0,6.096l-6.055,-0.041l-0.041,-6.055l6.096,-0Zm-78.92,-0l6.055,-0l-0,6.096l-6.055,-0l-0,-6.096Zm66.809,-12.11l6.015,-0l-0.041,12.151l-6.014,-0.082l0.04,-12.069Zm12.111,12.11l0.04,-12.11l24.221,-0l-0.122,6.055l-11.988,-0l-0.041,6.055l-12.11,-0Zm-91.071,-12.151l-0,-6.055l6.055,-0l-0,6.096l-6.055,-0.041Zm133.619,-18.206l6.015,0.081l-0.041,6.015l-6.014,-0.041l0.04,-6.055Zm-0.04,-12.11l12.11,-0l-0,6.014l-0.935,0.041l-10.241,-0l-0.934,-0.041l-0,-6.014Zm-115.292,-6.096l12.07,0.04l-0.082,6.015l-12.069,0.041l-0,6.055l-6.055,-0c-0.041,-1.504 -0.285,-4.836 0.162,-6.055l5.893,-0l0.081,-6.096Zm115.292,-6.055l6.055,-0l-0,6.055l-5.121,0.04l-0.934,-0.121l-0,-5.974Zm-133.579,-0l6.055,-0l-0,6.055l-6.055,-0.041l-0,-6.014Zm24.261,-6.096l5.161,-0l0.935,0.081l-0,5.974l-6.096,0.041l-0,-6.096Zm-18.003,-91.071l5.893,0.081l-0.122,12.07l-12.029,0.041l0.04,6.014l30.317,0.081l-0,6.015l-30.357,0.04l-0,6.015l12.11,0.041l0.041,12.11l-6.096,-0l-0,12.151l6.055,-0.081l0.163,-5.974l5.933,-0l-0,-6.096l12.151,0.081l-0.122,24.221l-5.974,-0.041l-0,-18.206l-6.055,0.041l-0,12.11l-6.055,-0l-0.041,6.096l6.055,-0l0.122,6.055l12.07,0.081l-0,12.029l-6.055,0.122l-0.041,5.974l-6.055,-0.041l-0.081,-6.014l-5.974,-0l-0.041,-6.055l-6.055,-0.122l-0,-5.974l-6.055,0.04l-0,24.262l-6.096,-0l-0,-12.151l-6.055,-0l-0.041,6.055l-6.014,-0l0.04,-6.055l6.015,-0l-0,-6.055l-12.151,-0l-0.081,12.11l-5.608,0.122c-0,1.869 0.325,4.186 -0.204,5.974l11.989,-0l-0,6.055l12.11,0.04l-0,6.015l12.151,0.122l-0,5.974l-12.151,-0l0.041,24.261l6.055,-0l-0,5.893c0.975,-0.326 2.072,-0.163 3.21,-0.204c0.407,0 1.138,-0.04 1.504,0l1.422,0.407l-0.122,6.055l-6.014,-0l-0,-5.852c-1.423,0.325 -4.674,0.325 -6.096,-0l0.041,11.948l12.11,-0l-0,6.055l18.165,-0l0.041,-18.206l-11.988,-0l-0.163,-12.151l6.055,-0l0.041,-6.055l-5.933,-0l-0.122,-6.096l12.029,-0l0.122,6.014l6.055,0.082l-0,18.206l12.11,-0l0.041,5.974l6.055,0.122l-0,6.055l6.055,-0l-0,-12.151l-6.055,-0l0.081,-6.055l18.125,0.04l-0,6.015l6.055,-0l-0,6.055l-6.055,-0l0.04,6.055l18.207,0l-0.041,5.974l-5.974,0.162l-0.081,6.056l-6.055,-0l-0,18.206l-18.247,-0l-0,6.055l-12.11,-0l-0,6.014l6.055,0.082l-0,12.029l-6.015,0.121l-0.081,6.056l12.07,-0l0.122,6.055l12.069,-0l0.041,-6.055l30.357,-0l-0,6.014l12.11,0.041l0.081,-6.055l18.166,-0l-0,-12.151l-6.015,-0l-0.081,-6.015l-6.055,-0.081l0.041,-5.974l24.261,-0.081l-0,-6.055l-24.261,-0l-0,-6.056l6.055,-0.04l-0.041,-6.055l-6.055,-0l-0,-5.974l12.151,-0.081l0.04,12.11l5.893,-0c0.447,-1.626 0.163,-9.753 0.163,-12.07l6.055,-0.081l-0,5.933c1.341,0.407 4.511,0.163 6.055,0.163l-0,-6.055l6.055,-0l0.041,-12.151l-18.206,-0l-0,-6.096l-6.056,-0l-0.081,-6.055l-6.014,-0l-0,-6.055l12.11,-0.041l0.041,-5.974l6.055,-0.041l-0,6.056l6.096,-0.041l-0.041,-6.055l6.096,-0l-0,-6.055l-6.055,-0l0.04,-6.096l5.974,-0c0.041,-2.032 0.325,-10.81 -0.163,-12.11l-5.892,-0l-0,-18.206l-12.11,-0.082l-0,-12.069l6.055,-0l-0,-6.096l-6.055,-0.041l0.04,-6.014l12.07,-0.041l0.041,-6.055l6.055,-0l-0.041,-6.055l-11.907,-0l0.081,5.567c-0.162,0.569 -0.162,0.447 -0.284,0.61l-6.055,-0.163c-0,-1.91 0.284,-4.145 -0.163,-5.933c0.447,-0.609 -0.122,-0.244 0.813,-0.488l4.998,-0.04l0,-5.974c2.845,-0 10.282,-0.325 12.558,0.162l-0,-5.892l-18.206,-0.041l-0.041,-6.014l-12.11,-0l-0.082,-6.055l-5.973,-0l-0.122,6.055l-12.029,-0l-0,-18.206l6.055,-0l-0.122,-6.096c0.853,-0.61 4.47,-0.366 5.892,-0.366l0,-5.608l-11.825,-0.081l-0.122,6.055l-5.974,-0c-0,2.316 0.325,17.231 -0.163,17.962c-0.447,0.488 -5.283,0.244 -5.892,0.244l-0.082,6.096l-36.371,-0l0.122,-6.096l5.974,-0l-0,-6.055l6.055,-0l0.04,-6.055l-6.095,-0.082l-0,-6.014l-6.055,0.041l-0.082,6.055l-6.014,-0l-0.122,12.11l-5.933,-0l-0.041,6.096l-24.261,-0.041l0.081,-6.055l24.221,-0l-0.041,-6.055l-6.055,-0.041l-0,-12.11l-12.11,-0.041l-0.082,-6.014l-6.014,-0.041l-0,-11.907c-1.91,0.488 -9.266,0.163 -11.745,0.163c-0.04,1.788 0.325,4.063 -0.203,5.689Z" style="fill:#fff;"/><path d="M188.238,364.284l6.055,-0l-0,6.095l-6.055,0l-0,-6.095Zm6.055,-0l-0,-6.055l12.11,-0l0.041,6.055l-12.151,-0Zm-54.659,-12.151l6.096,0.04l-0,5.974l-0.935,0.082l-5.161,-0l-0,-6.096Zm-24.261,0.04l6.055,-0.04l-0,6.096l-5.121,-0l-0.934,-0.041l-0,-6.015Zm133.538,0l-6.055,-0.04l0.04,-12.11l6.056,-0l-0.041,12.15Zm-60.673,-18.246l18.206,-0l-0.082,18.206l-18.084,-0l-0.04,-0.935l-0,-17.271Zm-60.714,18.246l-6.096,-0.04l-0,-6.055l6.096,0.081l-0,6.014Zm48.563,-12.15l6.055,0.04l-0.081,6.015l-5.974,-0.041l-0,-6.014Zm-18.206,-6.056l6.055,0.041l-0.122,12.07l-5.933,-0.041l-0,-12.07Zm-24.302,6.056l6.055,-0l-0,6.055l-6.055,-0.041l-0,-6.014Zm97.126,-6.096l6.096,0.122l-0,5.892l-0.894,0.082l-4.267,-0l-0.935,-0.082l-0,-6.014Zm-84.853,-6.055l5.933,-0l-0,12.151l-6.055,-0l0.122,-12.151Zm-12.273,12.151l-12.151,0.081l-0,5.974l-6.055,-0.041l-0,-12.11l12.11,-0.041l0,-6.014l6.096,-0l-0,12.151Zm115.373,-18.207l6.055,-0.04l-0,6.096l-6.096,-0.082l0.041,-5.974Zm-115.333,-0.04l6.015,-0l-0,6.096l-6.055,-0.041l0.04,-6.055Zm127.484,-6.055l-0.041,6.055l-6.055,-0l-0,-6.055l6.096,-0Zm6.055,-0l-6.055,-0l-0.041,-6.055l6.096,-0l-0,6.055Zm-24.302,-0l0.162,-6.055l5.893,-0l-0.041,6.055l-6.014,-0Zm18.206,-12.151l-0,6.055l-6.055,0.041l0.04,-6.096l6.015,-0Zm0.041,-6.055l6.055,-0l-0,6.055l-6.096,-0l0.041,-6.055Zm-0,-0l-6.096,-0l-0,-6.096l6.055,0.04l0.041,6.056Zm-127.524,-0l-0,-6.056l6.096,-0.04l-0.082,6.096l-6.014,-0Zm127.483,-12.151l6.096,-0l-0,6.055l-6.096,-0l-0,-6.055Zm-133.579,-6.055l6.096,-0l-0,12.11l-6.055,-0l-0.041,-12.11Zm139.675,18.206l-0,-6.056l12.11,-0.04l-0,-6.055l-6.055,-0l-0,-6.055l12.151,-0l0.081,12.11l6.014,-0l-0.081,6.096l-24.22,-0Zm-97.167,-18.206l6.096,-0l-0,6.055l-6.096,-0l-0,-6.055Zm-24.221,-12.151l6.015,-0l-0,6.055l-6.055,-0l0.04,-6.055Zm103.141,-18.247l6.096,0.041l-0,6.055l-6.055,-0.082l-0.041,-6.014Zm-139.593,18.247l-0.041,12.151l6.096,-0l-0,6.055l6.055,-0l0.081,6.055l5.974,0.081l0.081,6.015l6.015,-0l-0,6.055l12.151,-0.082l-0,-12.069l6.055,-0l-0.041,-6.055l-6.014,-0l-0,6.055l-6.096,-0l-0,-18.206l6.096,0.081l0.04,6.015l6.015,-0l-0,-6.096l18.206,-0l-0,6.096l-6.055,-0l-0,6.014l-6.055,0.122l-0.082,12.07l-6.014,-0l-0.041,18.206c-3.982,-0 -28.609,-0.285 -30.316,0.122l-0,5.933l6.055,0.081l0.041,5.974c-2.479,0.163 -23.124,0.244 -24.302,-0.163l-0.081,-5.892l-12.07,-0l-0,18.206l-6.055,0.041l-0,18.206l6.055,-0.041l-0,-6.055l6.055,-0l0.041,-18.166c1.422,-0.081 4.795,-0.243 6.055,0.122l-0,11.989l6.055,0.04l-0.041,6.015l-6.014,-0l-0,6.096l6.055,0.04l-0,6.015l18.247,-0.041l-0,-12.07l6.055,-0.04l-0,6.096l6.055,-0l-0,12.15l-6.055,-0.081l-0,-6.014l-6.055,-0l-0,12.151l6.055,-0l-0,6.055l12.151,-0.081l0.081,-18.125l5.974,-0l-0,-12.151l12.151,0.122l-0,5.933l-6.055,0.122l0.04,12.029l12.07,0.04l-0,-18.246l6.096,-0l0.04,18.206l12.111,0.04l-0,12.111l6.055,-0l-0,-6.055l12.151,-0l-0,-12.151l5.852,-0c0.528,-1.382 0.203,-4.349 0.203,-5.974l12.151,-0.081l-0,-6.056l-5.974,-0.04l-0.081,-12.11l6.014,-0l0.041,6.055l12.069,-0l0.082,6.014l-6.096,0.081l-0,6.056l6.096,0.081l-0,5.974l6.055,-0l0.04,-6.055l6.015,-0l-0,-6.056l6.096,-0.121l-0,-5.974l6.055,-0l-0,-6.055l-6.055,-0l-0,-12.151l11.988,-0c0.406,-1.423 0.163,-10.038 0.163,-12.151l12.151,-0l0.04,-12.151l6.015,-0l-0,12.151l6.055,-0l-0,6.055l6.096,-0l-0,-6.055l-6.056,-0l-0.04,-6.055l6.055,-0.041l-0,-6.055l-6.055,-0l-0,-6.055l6.096,-0.041l-0.122,-6.015l-5.974,-0.04l0.081,-6.055l6.015,-0.041l-0,-6.014l-6.096,-0.122l-0,-5.974l-18.206,-0.081l-0,-12.07l-18.206,-0l-0,-6.055l6.055,-0l0.041,-6.096l-6.096,0.041l-0,-6.056l-6.055,0.041l-0.041,5.974l-12.11,0.041l-0,6.055l6.014,-0l0.081,6.055l6.056,-0l-0,6.096l18.206,-0l-0.041,12.151l-6.055,-0l-0,6.055c-1.544,-0 -4.714,0.244 -6.055,-0.163l-0,-5.933l-6.055,0.081c-0,2.317 0.284,10.444 -0.163,12.07l-5.893,-0l-0.04,-12.11l-12.151,0.081l-0,5.974l6.055,-0l0.041,6.055l-6.055,0.04l-0,6.056l24.261,-0l-0,6.055l-24.261,0.081l-0.041,5.974l6.055,0.081l0.081,6.015l6.015,-0l-0,12.151l-18.166,-0l-0.081,6.055l-12.11,-0.041l-0,-6.014l-30.357,-0l-0.041,6.055l-12.069,-0l-0.122,-6.055l-12.07,-0l0.081,-6.056l6.015,-0.121l-0,-12.029l-6.055,-0.082l-0,-6.014l12.11,-0l-0,-6.055l18.247,-0l-0,-18.206l6.055,-0l0.081,-6.056l5.974,-0.162l0.041,-5.974l-18.207,0l-0.04,12.151l-6.015,0.041c-0.487,-7.6 2.032,-5.934 -6.136,-6.096l-0,-6.055l-6.055,-0l-0,-6.055l-6.055,-0.122l-0.041,-5.974l-12.11,-0l-0,-18.206l-6.055,-0.082l-0.122,-6.014l-12.029,-0l0.122,6.096l5.933,-0l-0.041,6.055l-6.055,-0l0.163,12.151l11.988,-0l-0.041,18.206l-18.165,-0l-0,-6.055l-12.11,-0Z" style="fill:#0060af;"/><path d="M194.293,127.524l6.055,-0l-0,6.055l6.055,-0l0.041,6.055l-12.151,-0l-0,-12.11Zm-12.151,6.055l6.055,-0l0.041,6.055l-6.096,-0l-0,-6.055Zm-18.206,-18.247l-0,6.015l-12.151,0.081l-0,-12.11l6.096,-0.041l-0,5.974l6.055,0.081Zm18.246,12.192l-0.04,-6.055l-6.055,-0.041l-0,-6.055l6.055,-0.041l-0,-6.055l6.096,-0l-0,-6.055l24.261,-0l-0,18.206l-12.151,-0l-0,-5.974l-6.055,-0.122l-0,12.192l-12.111,-0Zm-18.246,-12.192l-0,-6.055l6.055,-0l-0,6.096l-6.055,-0.041Zm60.714,-18.206l-0,6.096l12.069,-0l0.082,5.974l-18.166,0.081l-0.081,-6.015l-6.055,-0.081l-0,-5.974l12.151,-0.081Zm6.055,-6.055l-0,6.096l-6.055,-0.041l-0,-6.055l6.055,-0Zm-66.769,-6.055l5.933,-0l0.163,-6.055l6.014,-0l0.041,18.206l6.014,-0l0.041,6.014l-18.044,0.041c-0.365,-1.26 -0.243,-4.674 -0.122,-6.055l6.015,-0l-0,-6.096l-5.974,-0l-0.081,-6.055Zm48.563,-6.096l6.096,0l-0,-5.893c1.3,-0.447 4.51,-0.162 6.055,-0.162l-0,12.151l-6.055,-0l-0.041,5.974l-6.015,0.081l-0.04,-12.151Zm48.604,0l5.973,0l0.082,6.096l-6.096,-0l0.041,-6.096Zm-12.192,0l6.055,0l0.041,6.096l-6.055,-0.041l-0.041,-6.055Zm12.192,0l-6.096,0l-0,-5.933l-6.096,-0.122l0.041,-5.974l18.206,-0.122l-0,6.096l-6.096,-0l0.041,6.055Zm-12.192,-6.055l-0,6.055l-12.07,0l-0.04,12.07l-6.096,0.081l-0,-12.07l6.096,-0.081l-0,-6.055l-6.055,-0l-0,-6.055l5.973,-0l0.082,6.055l12.11,-0Zm-36.412,6.055l-6.055,0l-0,-6.055l-12.151,-0l-0,6.055l6.055,0.041l-0,6.055l5.974,-0l0.122,6.055l-18.166,-0l-0.04,-6.055l6.055,-0l-0,-6.096l-6.055,0l-0,-6.055l6.014,-0l0.041,-6.055l18.043,-0.041c0.447,1.382 0.203,10.119 0.163,12.151Zm-24.261,-35.477l0.04,-0.935l18.084,-0l0.082,18.206l-18.206,-0l-0,-17.271Zm24.261,5.12l6.096,0l-0.041,6.096l-6.055,-0l-0,-6.096Zm-6.055,-30.357l-0,12.151l-6.096,-0l-0,-12.151l6.096,0Zm-30.723,18.328c0.61,0.61 0.366,0.528 0.366,2.642l-0,3.332l6.014,-0l0.041,24.261l-6.055,0.041l-0,5.933l-18.206,0.122l-0,5.933l5.974,0.163l0.081,6.055l-18.288,-0l0.082,-6.096l-6.055,0.041l-0.041,12.11l-6.015,-0l-0.04,-6.055l-6.055,-0l-0,12.069l-6.015,0.082l-0.081,6.055l12.151,-0l-0,-6.055c1.666,-0.041 4.673,0.244 6.055,-0.203l-0,-5.893l12.151,-0l-0,6.096l-5.974,-0l-0.081,12.069l-6.055,0.041l-0.041,-6.055c-1.869,-0 -4.308,-0.366 -6.055,0.203l-0,11.907l6.014,0.041l0.082,6.014l12.11,0.041l-0,12.11l6.055,0.041l0.041,6.055l-24.221,-0l-0.081,6.055l24.261,0.041l0.041,-6.096l5.933,-0l0.122,-12.11l6.014,-0l0.082,-6.055l6.055,-0.041l-0,6.014l6.095,0.082l-0.04,6.055l-6.055,-0l-0,6.055l-5.974,-0l-0.122,6.096l36.371,-0l0.082,-6.096c0.609,-0 5.445,0.244 5.892,-0.244c0.488,-0.731 0.163,-15.646 0.163,-17.962l5.974,-0l0.122,-6.055l11.825,0.081c0.488,0.488 0.285,0.285 0.326,1.341l-0.041,4.633l12.151,-0.041l-0,-12.11l6.096,-0l0.04,18.206l6.015,0.041l-0,-24.302l-12.111,-0l-0.04,-12.151l12.151,-0.081l-0,-5.974l6.055,-0l0.041,6.055l6.055,-0l-0,6.055l6.055,0.041l-0,-6.055l6.096,-0.041l-0.041,-12.151l-6.055,0l0.081,-18.206l12.07,-0l-0.122,6.096l-5.933,-0l-0,6.055l12.11,-0l-0,-18.206l-6.055,-0.041l-0,-6.055l-6.055,0l-0.041,6.096l-6.055,-0.122l-0,-5.974l-6.055,0.041l-0,12.11l-18.206,-0.081l-0,-24.18l6.055,0.081l-0,5.974l6.096,-0l-0.041,-12.11l-6.055,-0.122l0.04,-5.974l12.07,-0.041l0.041,-6.055l-18.206,0l-0,-6.055l-6.096,-0l-0,12.151l5.974,-0l0.081,6.055l-6.055,-0l-0,6.055l-6.055,0.041l-0.041,-6.055l-5.933,-0.041l-0.122,6.096l6.096,-0.041l-0,6.096l-6.096,-0.041l-0,12.111l6.055,0.081l0.041,-5.974l6.055,-0.122l-0,6.055l-6.055,0.041l-0,5.933l-18.206,0.122l-0,-6.055l6.014,-0l0,-6.096l-6.014,0l-0,-12.151l6.055,0.041l-0,-24.302l-6.055,-0l-0,12.029l-6.096,0.081l-0,-6.055l-6.055,0l-0,-6.055l-6.015,-0l-0.081,6.055l-6.055,0.041l-0,6.055l-6.015,-0l-0.081,12.151l-6.055,-0l-0,-5.974l-6.015,-0.122l-0.04,-6.015l6.055,-0.081l-0,-6.055l6.055,0l0.041,-6.055l-30.357,-0l-0,6.055l12.11,0l-0,18.206l5.73,0.122Z" style="fill:#0060af;"/><path d="M303.57,194.374l6.096,-0.081l-0,6.055l-6.096,-0l-0,-5.974Zm6.096,-6.136l6.055,-0l-0,6.014l-0.935,0.041l-5.12,-0l-0,-6.055Zm-36.453,-12.151l12.151,-0l-0,6.055l-12.151,-0l-0,-6.055Zm24.302,-6.096l-0,6.014l-6.096,0.082l-0,-6.096l6.096,-0Zm36.452,-6.055l12.111,-0l-0,6.055l-12.151,-0l0.04,-6.055Zm-48.603,0.04l0.934,-0.04l5.121,-0l-0,6.055l-6.055,-0l-0,-6.015Zm-0,-36.452l-0,-6.015l6.055,-0.081l-0,6.096l-6.055,-0Zm-18.206,-30.398l-0,6.096l-12.151,-0l-0,-6.055l12.151,-0.041Zm12.151,-6.055l6.014,-0l0.041,-12.11l6.014,-0.041l0.041,18.247l-12.151,-0l0.041,-6.096Zm18.206,-12.151l6.055,0l-0,6.096l-6.055,-0l-0,-6.096Zm-0,0l-6.096,0l-0,-6.055l6.096,-0l-0,6.055Zm12.11,0l-6.055,0l-0,-18.206l12.151,-0l-0,6.055l-6.015,0.041l-0.081,12.11Zm-54.618,-30.357l6.055,0l-0,6.055l-6.015,0.041l-0.04,-6.096Zm6.096,-6.055l6.014,-0l0.041,6.055l-6.096,0l0.041,-6.055Zm6.014,-0l0.041,-6.015l6.055,-0.081l-0,6.096l-6.096,-0Zm0,-18.247l6.015,0.041l0.081,6.055l-6.055,-0l-0.041,-6.096Zm0.041,-6.055l-0.041,6.055l-12.07,0.041l-0.04,5.974l6.055,0.122l0.041,12.11l-6.096,-0l-0,-5.974l-6.055,-0.081l-0,24.18l18.206,0.081l-0,-12.11l6.055,-0.041l-0,5.974l6.055,0.122l0.041,-6.096l6.055,0l-0,6.055l6.055,0.041l-0,18.206l-12.11,-0l-0,-6.055l5.933,-0l0.122,-6.096l-12.07,-0l-0.081,18.206l6.055,0l0.041,12.151l-6.096,0.041l-0,6.055l-6.055,-0.041l-0,-6.055l-6.055,-0l-0.041,-6.055l-6.055,-0l-0,5.974l-12.151,0.081l0.04,12.151l12.111,-0l-0,24.302l-6.015,-0.041l-0.04,-18.206l-6.096,-0l-0,12.11l-12.151,0.041l0.041,-4.633c-0.041,-1.056 0.162,-0.853 -0.326,-1.341l0,5.608c-1.422,0 -5.039,-0.244 -5.892,0.366l6.177,-0l-0,6.096l-6.055,-0l-0,6.055l12.151,-0l-0,-6.055l6.055,-0l-0,6.055l12.11,-0l0.041,6.055l-5.974,-0l-0.122,6.096l18.247,-0l-0,6.055l6.055,-0l-0,-6.055l-6.055,-0l-0,-6.096l12.151,0.041l-0,12.11l6.055,-0l-0,-6.015l6.055,-0.04l-0,12.151c-3.495,-0 -22.514,0.365 -24.261,-0.204c-2.276,-0.487 -9.713,-0.162 -12.558,-0.162l0,5.974l-4.998,0.04c-0.935,0.244 -0.366,-0.121 -0.813,0.488l6.218,-0.081l-0,6.177c0.122,-0.163 0.122,-0.041 0.284,-0.61l-0.081,-5.567c-0.528,-1.544 -0.203,-4.308 -0.203,-6.055l12.11,-0l0,6.055l12.192,-0l-0,6.014l-12.151,0.041c-0,1.544 0.243,4.795 -0.204,6.096l-5.892,-0l0.041,6.055l12.11,-0l-0,12.151l-6.096,-0l0.041,6.055c5.689,0.325 12.394,-0 18.165,-0c3.536,-0 15.727,-0.447 18.247,0.162c1.788,0.529 4.511,0.204 6.461,0.204l0,-6.015l5.243,0l-0,6.015l6.421,-0c-0.61,-0.61 -0.651,-0.366 -2.683,-0.366c-1.097,0.041 -2.194,-0 -3.291,-0l-0,-6.055c1.422,-0 11.582,0.203 11.947,-0.163c0.61,-0.569 0.204,-10.322 0.204,-11.988l18.165,-0l0.041,-12.151l6.055,0.041l-0,6.055l6.096,-0l-0,-6.055l6.055,-0.041l-0,-6.055l-6.015,-0l-0.04,-6.055l-24.302,-0l0.04,6.055l-24.301,-0l-0,6.055l18.165,-0l0.041,6.096l-12.07,-0l-0.122,6.014l-6.014,0.081l-0,6.056l-24.302,-0.041l-0,-6.015l18.124,-0.04l0.082,-12.151l-6.055,-0l-0,-12.11l6.055,-0l-0,-12.151l-5.974,-0l-0.081,-12.151l-6.096,-0l-0,-6.055l6.096,-0l-0,-6.096l5.892,-0c0.366,-1.301 0.203,-4.592 0.122,-6.055l-6.014,-0l-0,-6.055l-24.302,-0.041l-0,6.096l6.055,-0l0.041,12.151l6.055,-0l-0,6.055l-18.206,-0l-0,6.055l-6.096,-0l-0,-18.206l6.096,-0l-0,6.055l6.014,0l0.041,-5.974l-6.055,-0.081l-0,-6.055l-6.096,-0l-0,-6.096l6.014,-0l0.082,-6.015l24.22,-0.04l0.081,-6.055l6.056,-0.041l-0,-6.055l6.014,-0l0.041,-6.015l18.206,-0.04l-0,6.055l6.055,-0l0.041,-6.015l5.973,-0.04l0.082,6.014l-6.055,0.041l-0,6.096l12.151,-0.041l-0.041,-18.206l-6.055,0l-0,-6.055l6.096,-0l-0,-6.096l-12.151,0l-0,11.988c-1.504,0.447 -9.916,0.163 -12.151,0.163l-0,-6.055l6.055,-0l0.04,-6.055l6.056,-0l-0.041,-6.096l-12.11,-0l-0,-12.07l-6.055,-0.081l-0,5.974l-6.096,0.122l-0,6.055l-6.055,-0l-0,-6.055l-6.056,-0l-0.04,-12.151l12.273,-0c-1.016,-0.65 -10.81,-0.325 -11.867,-0.325l0,-17.475l2.967,0c0.366,0 1.219,0.081 1.544,0.041c1.219,-0.081 1.138,-0.325 1.301,-0.528l-6.218,0.081c-0,-1.951 -0.325,-4.308 0.203,-6.096c0.528,-1.747 0.203,-4.511 0.203,-6.461c-1.138,-0 -5.811,-0.488 -6.624,0.447l6.218,-0.041c-0,1.91 0.366,4.308 -0.163,6.055c-0.447,1.504 -0.365,4.552 -0.04,6.096c0.609,1.625 0.203,15.321 0.203,18.206l-12.11,-0l-0,-6.055l-6.056,-0.041l-0.04,-6.055l6.217,0.041c-0.121,-0.204 0.204,-0.366 -1.341,-0.488l-4.51,0.041l-0,-5.243l3.007,0c0.366,0 1.219,0.081 1.503,0.041c1.22,-0.081 1.138,-0.285 1.341,-0.488l-6.217,0.041c-0,-1.951 -0.325,-4.267 0.203,-6.096c0.488,-1.788 0.163,-4.511 0.163,-6.461l-5.73,-0c-0.895,0.243 -0.448,-0.041 -0.854,0.487l6.218,-0.081l-0,6.055l-6.055,0Z" style="fill:#fff;"/><path d="M54.659,224.65l-0,6.055l-6.096,-0l0,-6.055l6.096,-0Zm-12.151,-36.412l18.206,-0l-0,18.206l-18.206,-0.082l-0,-18.124Zm24.261,-0l18.247,-0l-0,6.055l-18.247,-0l0,-6.055Zm54.659,-12.151l6.096,0.04l-0,6.015l-6.096,-0l-0,-6.055Zm-12.151,-6.096l6.096,-0l-0,-6.055l6.055,-0l-0,12.151l-12.151,-0l-0,-6.096Zm6.096,-54.618l-0,6.055l-5.933,-0c-0.366,1.544 -0.326,22.026 -0.082,24.302l12.07,-0l-0,6.055l-24.261,0.041l-0,6.014l12.11,0.041l-0,12.11l-6.055,-0.122l-0,-5.933l-6.055,0.04l-0,6.015l-12.151,-0l-0,6.096l18.206,0.081l-0.041,5.974l-18.165,-0.081l-0,-5.974l-6.055,0.04l-0.122,6.015l-18.125,-0.041l-0,-6.014l-6.055,-0l-0.081,6.055l-6.015,-0.081l0.122,-5.974l-18.328,-0l-0.041,6.055l-6.014,-0.041l-0.041,-12.232l-12.11,0.122l-0.081,42.508l6.136,-0l0,-6.055l6.096,-0l-0,-6.055l6.055,-0.082l-0,-6.014l6.096,0.04l-0.041,12.111l-6.055,-0l-0,6.055l12.151,-0l-0.122,6.096l-5.933,-0l-0.041,6.055l-18.206,-0l0,6.055l24.302,-0l-0.122,6.096l-18.084,0.081l-0,5.974l6.055,0.122l-0,5.974l6.096,-0.041l-0,-6.055l6.055,-0l-0,6.055l12.151,-0l-0,-6.055l-6.096,-0l0.122,-6.055l12.029,-0l-0,-12.151l-6.055,-0l-0,-6.055l-6.096,-0.122l0.041,-5.974l18.165,-0l0,-6.055l6.096,0.04l-0,6.015l6.055,-0l0,-6.055l6.096,-0l-0,-3.251c-0.041,-2.276 -0.285,-2.073 0.366,-2.723l5.608,-0.122l0.081,-12.11l12.151,-0l-0,6.055l-6.015,-0l-0.04,6.055l6.014,-0l0.041,-6.055l6.055,-0l-0,12.151l6.096,-0l-0,-24.262l6.055,-0.04l-0,5.974l6.055,0.122l0.041,6.055l5.974,-0l0.081,6.014l6.055,0.041l0.041,-5.974l6.055,-0.122l-0,-12.029l-12.07,-0.081l-0.122,-6.055l-6.055,-0l0.041,-6.096l6.055,-0l-0,-12.11l6.055,-0.041l-0,18.206l5.974,0.041l0.122,-24.221l-12.151,-0.081l-0,6.096l-5.933,-0l-0.163,5.974l-6.055,0.081l-0,-12.151l6.096,-0l-0.041,-12.11l-12.11,-0.041l-0,-6.015l30.357,-0.04l-0,-6.015l-30.317,-0.081l-0.04,-6.014l12.029,-0.041l0.122,-12.07l-5.893,-0.081c-0.488,1.788 -0.203,4.064 -0.203,6.055l-6.055,0.041Z" style="fill:#0060af;"/><path d="M48.563,309.666l6.096,-0l-0.041,6.055l-5.974,-0l-0.081,-6.055Zm-12.151,-0l6.015,-0l0.081,6.055l-6.015,-0l-0.081,-6.055Zm6.096,-6.015l6.014,-0.081l0.041,6.096l-6.055,-0.041l-0,-5.974Zm6.055,-6.136l6.096,-0l-0,6.055l-6.055,-0l-0.041,-6.055Zm-24.302,-0l6.096,-0l-0,6.055l-6.055,-0l-0.041,-6.055Zm42.549,-12.151l12.069,-0l0.041,6.055l-12.151,-0l0.041,-6.055Zm6.055,-12.151l6.055,-0l0,6.096l-6.014,-0l-0.041,-6.096Zm6.055,-42.508l6.096,0.081l-0.081,6.015l-5.974,-0.041l-0.041,-6.055Zm30.357,-6.055l-6.055,-0l-0,-6.096l6.055,0.041l-0,6.055Zm-30.357,6.055l-6.055,-0l-0,12.151l12.151,0.122l-0,12.029l6.055,-0l-0,6.055l-6.055,-0.081l-0,-5.974l-12.151,-0l0.041,6.055l6.014,-0l0.041,6.096l-12.151,-0l-0.041,12.11l-6.055,0.081l-0,6.015l-6.055,-0l-0.122,6.055l-18.084,-0l-0.041,6.096l-6.055,-0l-0.081,-6.056l-5.974,0l-0.041,6.056l-6.055,-0l0,-18.206l-6.055,-0l-0,30.357l6.055,-0l0.163,6.055l5.933,-0l-0.081,6.055l-12.07,-0l0.081,12.151l24.18,-0l0.041,-6.055l-5.893,-0c-0.447,-1.26 -0.244,-4.633 -0.162,-6.096l6.014,0.04l0.041,6.056l6.055,-0l-0,-6.056l12.151,0l0.081,6.056l5.974,-0l-0,-30.357l6.096,0.122l-0,12.029l6.055,-0.041l-0,-12.11l6.055,-0l0,-6.056l6.055,-0.081l0.081,-6.014l6.015,-0l-0,-6.015l-6.015,-0.04l-0.04,-5.974l18.206,-0.122l-0,-6.055l-6.055,-0l-0,-12.151l6.055,-0l-0,-6.055l-12.151,-0l-0,-30.357l6.096,-0l-0,12.069l6.014,0.082l0.041,18.206l6.096,-0.041l-0.041,-24.261l12.151,-0l-0,-5.974l-12.151,-0.122l-0,-6.015l-12.11,-0.04l-0,-6.055l-11.989,-0c-0.569,2.072 -0.162,14.833 -0.162,18.165l-6.096,0.081l0,6.015Z" style="fill:#0060af;"/><path d="M103.222,66.972c1.463,-0.447 9.956,-0.203 12.151,-0.203l-0.041,6.096l-12.11,-0l-0,5.933c-1.301,0.325 -4.633,0.203 -6.055,0.081l-0,-6.014l6.055,-0l-0,-5.893Zm-12.151,-18.409l6.096,0l-0.041,5.12l0.041,0.935l0.975,0.041l5.08,-0l-0,6.055l-12.151,-0l-0,-12.151Zm18.206,6.096l-6.055,-0l-0,-6.096l6.055,0.081l-0,6.015Zm-12.11,-18.206l6.055,-0.041l-0,12.151l-6.055,-0.041l-0,-12.069Zm-18.247,-18.247l6.096,0l-0,6.096l-6.096,-0.081l0,-6.015Zm-6.055,36.453l-6.055,-0.041c-0.163,-8.006 -1.057,-5.689 6.055,-6.096l-0,-6.014l-12.11,-0l-0.041,24.302l-6.055,-0l-0.041,-6.055l-6.014,-0l-0.041,5.973l6.096,0.082l-0,6.055l6.014,-0l0.041,-6.015l6.096,-0.081l-0,12.151l-6.055,0.041l-0.041,5.974l12.029,0.081l0.122,6.055l6.055,-0l0,6.055l12.11,0.041l0.041,12.11l5.974,-0l0.122,-6.055l6.055,-0l-0,-11.989l6.055,-0.162l-0,12.11l-6.055,0.041l-0,6.055l6.055,0.041l-0,6.055l6.096,-0l-0,-6.055l6.055,-0.041l-0,-6.055l-6.055,-0l-0,-12.151l6.055,-0l0.081,-6.055l6.015,-0.081l-0,-12.07l-6.096,-0.122l-0.081,-5.933l-5.974,-0.041l-0,-6.055l-6.096,-0l-0,-6.055l6.096,-0l-0.082,-12.151l-6.014,-0l-0,-12.151l6.096,-0l-0,6.055l6.055,0l-0,-12.11l-11.948,-0c-0.487,-1.26 -0.203,-4.511 -0.203,-6.096l-6.055,0l-0,5.933c-1.26,0.366 -4.674,0.203 -6.055,0.082l-0.041,-6.015l-12.11,0l-0.041,-6.014l-5.933,-0.041l-0.122,6.055l-12.11,0l-0.041,-6.014l-5.933,-0.041l-0.122,18.165l6.096,0.041l-0,5.933l6.055,0.163l-0,-6.096l12.11,-0l0.041,-6.055l6.014,-0l0.041,12.11l-12.151,0.041l0,5.974l12.11,0.081l0.041,6.014l-5.974,0.082l-0.081,18.206l5.933,-0l0.163,18.206l6.055,-0l-0.041,6.055l-12.07,-0l-0.04,-12.029l-6.096,-0.122l0,-6.014l6.055,-0.041l0.041,-6.055l-12.029,-0l-0.122,-12.151Z" style="fill:#0060af;"/><path d="M60.714,169.991l6.055,-0l0,6.096l-6.055,-0.041l-0,-6.055Zm-6.055,-0l-0,6.096l-6.096,-0l0.041,-6.096l6.055,-0Zm-0,-6.055l6.055,-0l-0,6.055l-6.055,-0l-0,-6.055Zm6.055,-0l0.081,-6.055l5.974,0.04l0,5.974l-6.055,0.041Zm36.453,-36.412l6.055,-0l-0,6.055l-5.121,-0l-0.934,-0.041l-0,-6.014Zm-0,-12.151l6.055,-0l-0,6.055l-6.096,-0.041l0.041,-6.014Zm-42.508,-42.508l-0,6.055l-6.055,0l-0.041,6.096l6.055,-0l0.041,6.055l6.055,-0l-0,6.055l6.055,0.041l0,6.055l-6.014,0.04l-0.082,6.015l-6.014,-0l-0,6.096l12.11,-0l0,6.055l-6.014,0.041l-0.041,6.055l12.151,-0l-0,6.055l6.055,-0l0,6.055l6.096,-0l-0,-12.11l-6.096,-0.041l0.122,-6.055l12.029,0.041l-0,18.165l6.055,-0l-0.041,6.096l-5.973,-0l-0.041,-6.055l-6.055,-0.041l-0,12.151l6.055,0.041l-0.041,12.069c-1.707,0.081 -4.551,-0.244 -6.014,0.203l-0,5.893l-6.096,0.041l0,6.055l-6.055,-0l0.041,-12.151l6.014,-0l-0.081,-6.055l-5.974,-0l-0,-12.151l-6.096,-0l0.041,6.055l-6.096,-0.041l-0,-6.014l-6.055,-0l-0,6.055l-12.151,0.081l-0,5.974l12.11,0.041l0.041,6.055c-1.544,-0 -4.755,-0.285 -6.096,0.203c0,1.829 0.325,4.145 -0.203,5.852c-0.488,1.666 -0.163,3.942 -0.163,5.73l-18.246,-0l-0,6.014l-5.243,0l0.041,-10.525c-0.081,-1.016 -0.203,-1.016 -0.488,-1.341l0.041,12.232l6.014,0.041l0.041,-6.055l18.328,-0l-0.122,5.974l6.015,0.081l0.081,-6.055l6.055,-0l-0,6.014l18.125,0.041l0.122,-6.015l6.055,-0.04l-0,5.974l18.165,0.081l0.041,-5.974l-18.206,-0.081l-0,-6.096l12.151,-0l-0,-6.015l6.055,-0.04l-0,5.933l6.055,0.122l-0,-12.11l-12.11,-0.041l-0,-6.014l24.261,-0.041l-0,-6.055l-12.07,-0c-0.244,-2.276 -0.284,-22.758 0.082,-24.302l5.933,-0l-0,-6.055l-6.096,-0l-0,-6.055l-6.055,-0.041l-0,-6.055l6.055,-0.041l-0,-12.11l-6.055,0.162l-0,11.989l-6.055,-0l-0.122,6.055l-5.974,-0l-0.041,-12.11l-12.11,-0.041l0,6.055l6.055,0.081l0,6.015l-6.055,0.081l0,6.015l-6.055,-0l-0,-18.247l-6.055,0.041l-0,-6.096l6.055,-0l-0.122,-6.055l-12.029,-0.081l0.041,-5.974l6.055,-0.041l-0,-12.151l-6.096,0.081l-0.041,6.015l-6.014,-0Z" style="fill:#fefeff;"/><path d="M242.856,364.284l6.096,-0l-0,6.095l-6.096,0l-0,-6.095Zm42.508,-18.125l6.055,-0.081l-0,18.206l-6.055,-0l-0,-18.125Zm-18.206,-6.177l12.151,0.041l-0,24.261l-12.151,-0l-0,-24.302Zm-18.247,18.247l6.055,-0l0.041,6.055l-6.055,-0l-0.041,-6.055Zm54.659,-6.056l-5.974,-0.04l-0.081,-6.055l6.055,-0l-0,6.095Zm-6.055,-12.15l-0,6.014l-6.096,0.041l0.04,-6.055l6.056,-0Zm-0,-0l-0,-6.096l6.014,-0l0.041,-6.015l6.096,-0.04l-0,5.973l6.055,0.122l-0,5.974l-6.055,0.082l-0,6.055l-6.096,-0l-0,-6.055l-6.055,-0Zm-18.206,-0l-0,-6.096l6.055,-0l-0,-6.055l6.055,-0l-0,12.151l-12.11,-0Zm-12.151,-0.041l-6.096,0.041l-0,-6.096l6.096,-0l-0,6.055Zm-6.096,0.041l-0,6.055l-6.055,-0l-0,5.974l-6.096,0.121l-0,6.056l-6.015,-0l-0.04,6.055l-6.055,-0l-0,-5.974l-6.096,-0.081l0.041,6.055l6.055,-0l-0,5.974l6.055,0.121l-0,6.056l12.151,-0l-0,6.055l-12.273,-0c1.056,0.894 11.501,0.406 12.638,0.406c0,-1.95 0.326,-4.673 -0.203,-6.461c-0.487,-1.788 -0.162,-4.145 -0.162,-6.056l6.096,0l-0.041,-6.095l6.096,-0l-0.041,6.095l12.11,0l0.082,-6.095c1.91,-0 4.267,-0.325 6.055,0.203c1.585,0.528 3.942,0.203 5.689,0.203l0.041,6.015l6.339,-0c-0.569,-0.61 -0.691,-0.366 -2.641,-0.326l-3.373,0l-0,-6.095l11.988,-0c0.447,-1.341 0.203,-10.079 0.163,-12.111l6.096,-0.04l-0,5.974l6.055,0.122l-0,-6.096l12.11,-0l0.041,-5.974l-6.096,-0.081l0.04,-6.055l6.056,-0l-0,-6.096l-6.015,-0l-0.041,-6.055l12.111,-0l-0,-6.096l-6.055,-0l-0,-6.055l-6.096,-0l-0,6.055l-18.206,-0l-0,6.096l-6.055,-0l-0,-6.096l-6.096,-0l-0,-6.055l-6.055,-0l-0,12.151l-12.151,-0l0.04,-6.056l6.056,-0.081l-0,-6.014l-12.151,-0c-0,2.113 0.243,10.728 -0.163,12.151l-11.988,-0l-0,12.151l6.055,-0Z" style="fill:#fefeff;"/><path d="M333.927,206.444l-0,-18.206l17.271,-0l0.935,0.04l-0,18.084l-18.206,0.082Zm-36.412,-36.453l6.055,-0l-0.082,12.151l-18.124,0.04l-0,6.015l24.302,0.041l-0,-6.056l6.014,-0.081l0.122,-6.014l12.07,-0l-0.041,-6.096l-18.165,-0l-0,-6.055l24.301,-0l-0.04,-6.055l24.302,-0l0.04,6.055l6.015,-0l-0,6.055l-6.055,0.041l-0,6.055l-6.096,-0l-0,-6.055l-6.055,-0.041l-0.041,12.151l-18.165,-0c-0,1.666 0.406,11.419 -0.204,11.988c-0.365,0.366 -10.525,0.163 -11.947,0.163l-0,6.055c1.097,-0 2.194,0.041 3.291,-0c2.032,-0 2.073,-0.244 2.683,0.366l0.081,11.744l36.453,0.041l-0,-6.055l6.055,-0l0.04,-6.055l6.055,-0.041l0,-6.055l-5.973,-0l-0.122,-6.055l-6.055,-0.041c-0,-1.504 -0.244,-4.795 0.162,-6.055l5.893,-0l-0,-6.015l6.014,-0.04l0.081,6.055l6.056,-0l-0,-6.055l6.055,-0l-0,-6.096l-12.151,-0l-0,-6.055l-6.055,-0l-0,-5.974l-6.055,-0.122l-0,-6.055l-18.206,-0l-0.041,-6.055l-6.055,-0l-0,12.11l-6.055,0.041l-0,-6.055l-6.096,-0.041l-0,6.096l-6.055,-0l-0,-6.096l-6.055,-0.122l-0,-5.933l-6.096,-0l-0,12.151l-6.055,-0l-0,12.11Z" style="fill:#0060af;"/><path d="M333.927,333.927l17.271,-0l0.935,0.081l-0.041,18.125l-18.084,-0l-0.081,-0.935l-0,-17.271Zm6.096,-12.151l6.014,-0c0.081,1.463 0.284,4.876 -0.163,6.096l-5.851,-0l-0,-6.096Zm-0,-0l-6.096,-0l-0,-6.055l6.096,-0l-0,6.055Zm-6.096,-24.261l6.096,-0l-0,12.151l-6.096,-0l-0,-12.151Zm-12.151,18.206l6.096,-0l-0,6.055l6.055,-0l-0,6.096l-12.111,-0l0.041,6.055l6.015,-0l-0,6.096l-6.056,-0l-0.04,6.055l6.096,0.081l-0.041,5.974l-12.11,-0l-0,6.096l12.151,0.121l-0,5.934l12.11,-0l0.041,12.151l5.892,-0c0.65,-2.479 -0.122,-8.981 0.203,-12.07l12.111,-0.081l-0,-12.111l6.055,-0.04l-0,5.974l6.095,0.122l-0.04,-6.056l-6.055,-0.04l-0,-5.974l-6.055,-0.081l-0,-6.055l6.055,-0l-0,-6.096l-6.015,-0l-0.04,-6.055l-5.893,-0c-0.975,-3.048 0.406,-14.102 -0.284,-18.206l-5.974,-0l-0,-6.096l6.055,-0l0.04,-6.055l-6.055,-0.041l-0.04,-6.055l-5.974,-0l-0.081,-6.055l-6.096,-0l-0,12.151l-6.055,-0.082l-0,-18.124l-6.056,-0l-0.162,12.11l-11.988,-0.041l-0,-12.069l-6.096,-0l-0,30.316l6.096,0.041l-0,-12.151l12.11,-0l-0,18.206Z" style="fill:#0060af;"/><path d="M145.73,72.865l6.055,-0l-0,6.055l-6.055,0l-0,-6.055Zm-0,-0l-12.151,-0.041l-0,-6.055l12.151,0.122l-0,5.974Zm-18.206,-18.206l6.055,-0l-0,12.11l-6.055,0l-0,-12.11Zm-0,-0l-6.096,-0l-0,-6.096l6.055,0.041l0.041,6.055Zm-12.151,-0l6.055,-0l-0,6.055l-6.055,-0l-0,6.055l5.974,0.041l0.081,5.933l6.096,0.122l-0,12.07l-6.015,0.081l-0.081,6.055l-6.055,-0l-0,12.151l6.055,-0l-0,6.055l-6.055,0.041l-0,6.055l6.055,-0.041c-0,-1.991 -0.285,-4.267 0.203,-6.055c0.528,-1.626 0.163,-3.901 0.203,-5.689c2.479,-0 9.835,0.325 11.745,-0.163c1.747,-0.569 4.186,-0.203 6.055,-0.203l0.041,6.055l6.055,-0.041l0.081,-12.069l5.974,-0l-0,-6.096l-12.151,-0l-0,5.893c-1.382,0.447 -4.389,0.162 -6.055,0.203l-0,6.055l-12.151,-0l0.081,-6.055l6.015,-0.082l-0,-12.069l6.055,-0l0.04,6.055l6.015,-0l0.041,-12.11l6.055,-0.041l-0.082,6.096l18.288,-0l-0.081,-6.055l-5.974,-0.163l-0,-5.933l18.206,-0.122l-0,-5.933l6.055,-0.041l-0.041,-24.261l-6.014,-0l-0,-3.332c-0,-2.114 0.244,-2.032 -0.366,-2.642l0.163,5.974c0.568,1.707 0.203,20.807 0.243,24.261l-12.191,0l-0,-6.055l-12.151,-0l-0,-6.055l-6.055,-0l-0,-6.055l-6.096,-0.041l-0,6.055l-6.055,0.041c-0,-1.585 0.244,-4.755 -0.163,-6.096l-5.892,0l-0.082,-6.055l-6.014,-0l-0,-6.055l12.151,-0l-0,-6.096l-6.055,-0l-0,-12.151l-18.247,0c-0,1.585 -0.284,4.836 0.203,6.096l11.948,-0l-0,12.11l-6.055,0l-0,-6.055l-6.096,-0l-0,12.151l6.014,-0l0.082,12.151Z" style="fill:#fefeff;"/><path d="M358.269,303.57l6.015,-0l-0,24.302l-6.055,-0.041l0.04,-24.261Zm12.11,-6.055l-6.055,-0l-0.04,-6.096l6.095,0.081l0,6.015Zm-18.206,-0l-0.04,-6.096l6.096,-0l-0.041,6.096l-6.015,-0Zm6.056,-12.151l6.055,-0l-0,6.055l-6.055,-0l-0,-6.055Zm-0,-24.302l6.055,-0l-0,18.247l-6.055,-0l-0,6.055l-18.206,-0l0.081,6.055l5.974,-0l0.04,6.055l6.055,0.041l-0.04,6.055l-6.055,-0l-0,6.096l5.974,-0c0.69,4.104 -0.691,15.158 0.284,18.206l5.893,-0l0.04,6.055l6.015,-0l-0,6.096l-6.055,-0l-0,6.055l6.055,0.081l-0,5.974l6.055,0.04l0.04,6.056l-6.095,-0.122l-0,-5.974l-6.055,0.04l-0,12.111l-12.111,0.081c-0.325,3.089 0.447,9.591 -0.203,12.07c-0.528,1.788 -0.203,4.511 -0.203,6.461l5.283,0.041c1.625,-0.122 1.178,-0.244 1.3,-0.528l-6.217,0.121l-0,-6.095l6.055,-0l-0,-6.056l12.151,0c-0,1.911 0.325,4.227 -0.163,6.056c-0.487,1.828 -0.162,4.511 -0.162,6.461l17.718,0c1.422,-0.284 0.447,0 0.894,-0.406l-18.287,-0l-0,-6.055l12.151,-0l-0,-36.412l-6.056,-0l0,-6.056l-6.055,-0.04l-0.04,-6.055l6.055,-0.041l0.081,-6.055l6.015,-0l-0,-6.055l-6.056,-0l0,-6.055c1.911,-0 4.268,-0.326 6.056,0.162l5.486,0.122c0.609,-0.163 0.406,-0.122 0.65,-0.284l-6.136,-0.041l-0.041,-6.055l-6.015,-0l0,-6.055l6.056,-0l-0,-6.096l6.136,-0c-0.935,-0.691 -5.202,-0.447 -6.136,-0.163c-1.788,0.488 -4.145,0.163 -6.056,0.163l0,-6.055l-6.095,-0l-0,-6.055l6.095,-0l0,-6.096c1.911,-0 4.268,-0.325 6.056,0.203c1.788,0.488 4.511,0.163 6.461,0.163c0,-1.179 0,-2.317 0.041,-3.495c-0,-0.447 0.04,-1.382 -0,-1.748c-0.122,-1.666 -0.285,-1.219 -0.488,-1.341l0.041,6.218l-6.055,-0l-0,-6.055l-6.056,-0l0,-6.055l-6.095,-0.041l-0,-6.055l12.151,-0l-0.082,-6.096l-12.069,0.081l-0,6.015l-6.055,-0l-0,6.055Z" style="fill:#fefeff;"/><path d="M285.364,242.896l0.934,-0.04l5.121,-0l-0,6.096l-6.055,-0.041l-0,-6.015Zm-12.151,-6.095l6.096,-0l-0,6.014l-6.056,0.041l-0.04,-6.055Zm-6.096,-6.096l6.096,-0l-0,6.096l-6.055,-0.082l-0.041,-6.014Zm0,-36.412l-12.11,-0l-0,-6.055l12.151,-0l-0,0.243l-0.041,5.812Zm0,36.412l-5.974,-0l-0.04,6.096l6.055,-0l-0,6.055l6.055,-0l-0,12.069l18.165,0.082l0.081,-6.055l6.056,-0.041l-0,-6.015l-6.056,-0.04l-0.04,-6.055l6.014,-0l0.082,-6.096c-1.585,0.041 -4.714,0.244 -6.096,-0.163l-0,-5.892l-6.055,0.04l-0,6.015l-12.151,-0l-0,-24.261l30.357,-0l-0,-5.934c-2.52,-0.609 -14.711,-0.162 -18.247,-0.162c-5.771,-0 -12.476,0.325 -18.165,-0l-0.041,-6.055l6.096,-0l-0,-12.151l-12.11,-0l-0.041,-6.055l5.892,-0c0.447,-1.301 0.204,-4.552 0.204,-6.096l-6.055,-0l-0.041,6.055l-12.07,0.041l-0.04,6.014l6.055,0.041l-0,6.096l-6.055,-0l-0,12.069l12.11,0.082l-0,18.206l5.892,-0c0.488,1.3 0.204,10.078 0.163,12.11Z" style="fill:#0060af;"/><path d="M303.57,248.911l6.055,0.041l0.041,6.055l-6.096,-0.041l-0,-6.055Zm-0,-24.261l6.096,-0l-0,6.055l-6.096,-0l-0,18.206l-6.055,-0l-0,6.096l6.055,-0l-0,18.206l-5.893,-0c-0.406,1.381 -0.162,4.47 -0.162,6.096l6.055,-0l-0,-6.056l30.357,-0.04l-0,6.096l6.096,-0l-0,-6.096l12.11,-0.041l-0.041,-6.014l-6.014,-0.122l-0,-5.974l-6.055,0.041l-0,12.11l-6.096,-0l-0.041,-6.055l-24.22,-0l-0,-12.151l6.014,-0.041l0.122,-6.014l5.974,-0l0.04,12.11l6.056,-0.122l-0,-5.933l12.11,-0l-0,-6.096l-6.055,0.041l-0,-6.056l-6.055,-0.04l-0.041,-12.11l-6.015,-0l-0.04,12.11l-12.11,-0l-0,-6.055l6.055,-0.041l-0,-12.11l12.151,-0l-0,-6.055l-18.206,-0.082l-0,-12.069l-6.096,-0l-0,18.206Z" style="fill:#0060af;"/><path d="M163.936,60.714l-0,-12.151l6.055,0l-0,12.151l-6.055,-0Zm-12.151,-6.055l-0,-6.055l6.096,-0.041l-0.041,6.096l-6.055,-0Zm-6.055,-30.398l-0.041,12.151l-6.055,-0.081l0.041,-12.029l6.055,-0.041Zm-18.206,-6.055l-0,12.151l6.055,-0l-0,6.096l-12.151,-0l-0,6.055l6.014,-0l0.082,6.055l5.892,0c0.407,1.341 0.163,4.511 0.163,6.096l6.055,-0.041l-0,-6.055l6.096,0.041l-0,6.055l6.055,-0l-0,6.055l12.151,-0l-0,6.055l12.191,0c-0.04,-3.454 0.325,-22.554 -0.243,-24.261l-24.099,-0l-0,-18.206l-6.055,-0.041l-0,-6.055l6.055,0l-0,-6.055l-18.206,-0l-0,6.055l-6.055,0Z" style="fill:#0060af;"/><path d="M358.229,127.524l0.975,-0.041l5.08,0.041l-0,6.055l-6.055,-0l-0,-6.055Zm12.15,-0l-6.014,-0.041l-0.081,-6.055l6.095,0.041l0,6.055Zm-18.246,-11.217l0.04,-0.934l12.111,-0l-0,6.055l-12.151,-0l-0,-5.121Zm-6.055,-13.085l12.029,-0l0.122,-12.11l6.055,-0.041l-0,18.206l-18.166,-0l-0.04,-6.055Zm6.055,-36.412l12.151,-0l-0,6.055l-12.111,-0l-0.04,-6.055Zm-0,-0.244c-1.707,0.65 -4.105,0.081 -6.055,0.284l-0.041,6.015l-6.014,-0l-0.041,6.055l24.22,0l0.082,6.096l-18.125,-0l-0.081,12.151l-6.055,-0.041l-0.041,12.151l6.096,-0l-0,24.18l6.055,0.162l-0,6.015l12.069,-0l0.122,-6.055l6.055,-0l0,-6.055l6.056,-0l-0,-6.096l6.055,-0l-0.041,6.218c0.203,-0.122 0.366,0.325 0.488,-1.301c0.04,-0.406 -0,-1.341 -0,-1.788c-0.041,-1.138 -0.041,-2.316 -0.041,-3.495c-1.95,0 -4.673,-0.325 -6.461,0.203c-1.788,0.488 -4.145,0.163 -6.056,0.163c0,-1.829 -0.325,-4.348 0.163,-6.055l0.163,-4.552c-0.041,-1.747 0.162,-0.244 -0.244,-1.422c-0.041,-0.041 -0.041,-0.163 -0.082,-0.203l0,6.177l-6.095,-0c-0,-1.951 -0.325,-4.267 0.203,-6.096c0.447,-1.26 0.447,-16.662 0.041,-18.206c-0.61,-1.666 -0.244,-4.186 -0.244,-6.055c1.747,-0 4.551,-0.366 6.095,0.203c1.87,0.406 4.024,0.163 5.974,0.163c-0.569,-0.61 -0.203,-0.407 -2.682,-0.366l-3.292,-0l0,-6.096l6.056,0l-0,-6.055l-6.015,-0l-0.081,-6.055l-6.055,-0.041l0.122,-6.218c-0.204,0.122 -0.366,-0.243 -0.488,1.341c-0.041,0.326 0.041,1.138 0.041,1.504l-0,3.007c-2.683,0 -9.632,-0.325 -11.826,0.163Z" style="fill:#fefeff;"/><path d="M321.776,145.73l-0,-6.055l6.096,-0.041l-0.041,6.096l-6.055,-0Zm6.096,-6.096l-0,-6.055l6.055,-0l-0,5.974l-0.935,0.122l-5.12,-0.041Zm-6.096,-24.261l6.055,-0c0.081,1.463 0.284,4.795 -0.163,6.055l-5.77,-0l-0.122,-6.055Zm-6.055,-12.151l6.095,-0l-0.081,6.055l-6.014,-0l-0,-6.055Zm-18.206,-6.096l-0,12.192l12.151,-0.041l-0,5.933l6.014,0.163l0.041,12.151l12.151,-0l-0,6.055l-6.056,-0l-0.04,6.055l-6.055,0.041l-0,6.055l-6.055,-0l-0.041,-6.015l-5.974,-0.081l-0.081,6.096l6.096,-0l-0,5.933l6.055,0.122l-0,-6.055l6.055,-0l-0,6.055l6.096,0.041l-0,6.055l6.055,-0.041l-0,-12.11l6.055,-0l-0,-24.302l-6.055,-0l-0,-6.055l-6.055,-0l-0,-6.096l6.055,0.041l-0.082,-6.096l-12.069,-0.041l-0,-12.11l-6.055,-0l-0,6.055l-18.206,0Z" style="fill:#fefeff;"/><path d="M303.692,42.508l-12.273,-0l0.04,12.151l6.056,-0l-0,-6.096l6.055,0l-0,6.096l6.096,-0.122l-0,-5.974l6.055,0.081l-0,12.07l12.11,-0l0.041,6.096l-6.056,-0l-0.04,6.055l-6.055,-0l-0,6.055c2.235,0 10.647,0.284 12.151,-0.163l-0,-11.988l12.151,0l-0,6.096l6.014,-0l0.041,-6.015c1.95,-0.203 4.348,0.366 6.055,-0.284l-0,-5.811l-18.206,-0.041l-0,-12.07l-6.055,-0.081l-0,5.974l-6.056,0.122l0,-12.151l6.056,-0l-0,-6.055l-6.056,-0.041l-0.04,-6.014c1.463,-0.082 4.836,-0.285 6.096,0.162l-0,5.893l6.055,-0.041l-0,-24.18l-12.151,-0.081l-0,12.151l-5.974,-0l-0.081,12.069l-6.055,0.082l-0,12.11l-6.096,0l0.122,-6.055Z" style="fill:#0060af;"/><path d="M54.659,109.277l-6.055,-0l-0.041,-6.055l6.096,0.04l-0,6.015Zm-0,-18.206l-0,6.055l-6.096,0.041l0,-6.096l6.096,-0Zm-18.206,-12.151l-0.041,6.096l-6.055,-0l-0,5.974l-6.055,0.081l-0,-6.055l-12.314,-0l0.163,12.151l6.014,-0l0.041,6.055l-6.055,-0l-0,6.055l6.055,-0l0,12.151l6.136,-0l-0.04,-24.221l12.151,-0.081l-0,-6.055l6.055,-0l-0,18.206l-6.055,-0l-0,6.096l5.77,0.04c0.61,0.61 0.366,0.488 0.326,2.642l-0,3.251l5.892,-0c0.041,-0.975 -0.284,-5.202 0.366,-5.933l5.852,-0l-0,-6.096l6.014,-0l0.082,-6.015l6.014,-0.04l0,-6.055l-6.055,-0.041l-0,-6.055l-6.055,-0l-0.041,-6.055l-6.055,-0l0.041,-6.096l6.055,0l-0,-6.055c-1.585,-0 -4.755,-0.244 -6.096,0.162l0,5.893l-12.11,0Z" style="fill:#0060af;"/><path d="M109.277,279.309l-0,6.014l-6.055,0l-0,-5.893l6.055,-0.121Zm-18.206,6.055l6.014,-0l0.082,6.055l18.206,-0l-0,12.151l18.206,-0l-0,-6.055l-6.015,-0l-0.081,-6.015l-5.974,-0.081l-0.081,-6.055l-6.055,-0l-0,-6.055l-6.096,-0l0.041,-12.151l-6.096,-0l-0,-12.151c1.788,-0 4.47,-0.325 6.055,0.203c1.422,0.325 4.673,0.325 6.096,-0c1.625,-0.528 4.307,-0.203 6.136,-0.203l-1.422,-0.407c-0.366,-0.04 -1.097,0 -1.504,0c-1.138,0.041 -2.235,-0.122 -3.21,0.204c-1.788,0.528 -4.145,0.203 -6.096,0.203l0.041,-6.096l-6.096,0.041l-0.041,-18.206l-6.014,-0.082l-0,-12.069l-6.096,-0l-0,30.357l12.151,-0l-0,6.055l-6.055,-0l-0,12.151l6.055,-0l-0,6.055l-18.206,0.122l0.04,5.974l6.015,0.04l-0,6.015Z" style="fill:#fefeff;"/><path d="M339.982,248.911l12.151,0.081l-0.081,6.015l-5.974,-0l0.04,6.055l12.111,-0l-0,-6.055l6.055,-0l-0,-6.015l12.069,-0.081l0.082,6.096l-12.151,-0l-0,6.055l6.095,0.041l0,6.055l6.056,-0l-0,-6.096l6.055,-0l-0,-24.261l-6.055,-0l-0,6.055l-12.151,-0.081l-0.082,-12.07l-5.973,0.041l-0.041,12.11l-6.015,-0l-0.081,-12.11l-6.014,-0.041l-0,-11.948c-1.382,-0.487 -9.997,-0.162 -12.151,-0.162l-0,12.11l12.151,-0l-0,6.096l-6.055,-0l-0.041,12.11Z" style="fill:#0060af;"/><path d="M72.865,145.73l-0,-6.096l6.096,-0l-0.082,6.096l-6.014,-0Zm-12.151,-12.151l6.055,-0l0.041,6.096l-6.096,-0.122l-0,-5.974Zm-0,-6.055l-0,6.055l-11.907,-0l-0.081,5.933c1.056,0 5.12,-0.325 5.933,0.325l-0,5.893l6.055,-0l-0,6.014l6.096,0.041l-0.041,-6.055l6.096,-0l-0,12.151l5.974,-0l0.081,6.055l-6.014,-0l-0.041,12.151l6.055,-0l0,-6.055l6.096,-0.041l-0,-5.893c1.463,-0.447 4.307,-0.122 6.014,-0.203l0.041,-12.069l-6.055,-0.041l-0,-12.151l6.055,0.041l0.041,6.055l5.973,-0l0.041,-6.096l-6.055,-0l-0,-18.165l-12.029,-0.041l-0.122,6.055l6.096,0.041l-0,12.11l-6.096,-0l0,-6.055l-6.055,-0l-0,-6.055l-12.151,-0Z" style="fill:#0060af;"/><path d="M48.116,48.116l-3.414,0.244c-6.217,-0 -22.188,0.284 -26.13,-0.041c-0.447,-1.056 -0.488,-27.471 -0.122,-29.869c2.398,-0.366 28.772,-0.325 29.869,0.122c0.366,4.429 0.041,10.322 0.041,14.874c-0,0.568 0.244,14.345 -0.244,14.67Zm-35.965,5.567l0.041,0.976l42.426,-0l0.041,-42.467l-0.976,-0.041l-41.695,-0l0.163,41.532Z" style="fill:#0060af;"/><path d="M346.525,48.116c-0.366,-0.447 -0.244,-0.935 -0.244,-1.666c0.081,-7.153 -0.325,-23.123 0.081,-27.878c1.057,-0.447 27.431,-0.488 29.829,-0.122c0.366,2.398 0.325,28.813 -0.122,29.869c-4.389,0.366 -10.322,0.041 -14.874,0.041c-0.569,-0 -14.345,0.244 -14.67,-0.244Zm-6.502,6.502l42.467,0.041l0.04,-0.976l-0.04,-41.532l-42.467,-0l-0,42.467Z" style="fill:#0060af;"/><path d="M48.116,346.525c0.041,0.04 0.081,0.122 0.081,0.122c0.285,0.772 0.163,2.113 0.163,3.332c-0,6.258 0.284,22.026 -0.041,26.09c-1.097,0.447 -27.471,0.488 -29.869,0.122c-0.366,-2.357 -0.325,-28.772 0.122,-29.829c3.942,-0.366 19.913,-0.041 26.13,-0.041c0.651,0 1.341,-0.04 1.992,-0.04c0.691,-0 1.178,-0.122 1.422,0.244Zm-35.965,35.965l0.325,-0l41.207,0.04l0.976,-0.04l-0.041,-42.467l-42.426,-0l-0.041,0.975l-0,41.492Z" style="fill:#0060af;"/><path d="M285.364,261.062l6.055,0.162l0.04,5.812l-0.894,0.122l-4.267,-0l-0.934,-0.082l-0,-6.014Zm-24.261,-12.151l-0.041,6.096l-6.055,-0l-0,6.055l18.206,-0l-0,12.07l18.206,0.081l-0,5.974l6.096,0.122c-0,-1.626 -0.244,-4.715 0.162,-6.096l5.893,-0l-0,-18.206l-6.055,-0l-0,-6.096l-6.056,0.041l-0.081,6.055l-18.165,-0.082l-0,-12.069l-6.055,-0l-0,6.096l-6.055,-0.041Z" style="fill:#fefeff;"/><path d="M340.023,279.309l18.206,-0l-0,-18.247l-12.111,-0l-0.04,-6.055l5.974,-0l0.081,-6.015l-12.151,-0.081l-0,6.096l-12.11,-0l-0,5.933l-6.056,0.122l-0.04,-12.11l-5.974,-0l-0.122,6.014l-6.014,0.041l-0,12.151l24.22,-0l0.041,6.055l6.096,-0l-0,-12.11l6.055,-0.041l-0,5.974l6.014,0.122l0.041,6.014l-12.11,0.041l-0,6.096Z" style="fill:#fefeff;"/><g><path d="M169.178,186.12c2.479,-0.041 7.031,-0.528 5.852,3.129c-0.813,2.479 -4.104,2.195 -7.152,2.195l1.3,-5.324Zm2.682,-10.281c2.235,-0.163 6.055,-0.651 4.877,2.6c-0.813,2.236 -3.332,1.951 -6.015,1.91l1.138,-4.51Zm-11.785,0.975l2.113,-0c0.082,1.422 -2.235,9.347 -2.722,11.338c-0.732,2.723 -2.683,8.981 -2.886,11.46c3.739,0.163 7.884,0.041 11.663,0.041c4.146,-0 6.868,0.04 10.16,-1.829c4.023,-2.276 6.827,-7.396 4.836,-12.151c-0.813,-1.951 -1.788,-1.788 -2.967,-2.967c2.276,-1.503 4.105,-2.641 5.405,-5.283c1.382,-2.763 0.813,-6.38 -1.056,-8.087c-2.195,-1.95 -5.121,-2.032 -8.656,-2.032c-3.495,-0.04 -7.478,-0.162 -10.973,0.041c-0.69,0.813 -4.551,8.331 -4.917,9.469Z" style="fill:#0060af;"/><path d="M224,186.567c-0,-0.813 3.21,-8.128 3.82,-8.981l-0.041,8.981l-3.779,0Zm-7.559,-10.119l2.397,0.081c-0.528,2.236 -10.931,20.767 -11.378,23.083l10.972,0l2.357,-5.527l6.99,-0.04l0.122,5.567l10.2,0.041l-1.341,-32.267l-15.361,-0.082l-4.958,9.144Z" style="fill:#0060af;"/><path d="M209.898,189.778c-16.174,8.534 -19.303,-9.591 -8.168,-12.517c1.747,-0.447 3.86,-0.488 5.648,-0c2.114,0.569 3.008,1.585 4.308,2.113l4.795,-8.615c-1.503,-1.423 -4.673,-2.601 -6.542,-3.658c-0.691,0.366 -0.651,0.894 -1.626,0.813c-1.016,-0.122 -1.3,-0.366 -2.601,-0.366c-1.788,0.041 -3.535,0.325 -5.202,0.772c-17.596,4.593 -22.107,30.073 -3.332,32.227c1.788,0.203 3.658,0.162 5.446,-0.163c2.926,-0.487 2.519,-0.04 3.576,-2.438c0.813,-1.788 3.373,-6.624 3.698,-8.168Z" style="fill:#0060af;"/><path d="M167.878,191.444c3.048,-0 6.339,0.284 7.152,-2.195c1.179,-3.657 -3.373,-3.17 -5.852,-3.129l-1.3,5.324Z" style="fill:#fefeff;"/><path d="M170.722,180.349c2.683,0.041 5.202,0.326 6.015,-1.91c1.178,-3.251 -2.642,-2.763 -4.877,-2.6l-1.138,4.51Z" style="fill:#fefeff;"/><path d="M224,186.567l3.779,0l0.041,-8.981c-0.61,0.853 -3.82,8.168 -3.82,8.981Z" style="fill:#fcfdfe;"/></g><path d="M297.515,321.776l6.055,-0l-0,-6.015l18.206,-0.04l-0,-18.206l-12.11,-0l-0,12.151l-6.096,-0.041l-0,-30.316l-6.055,-0l-0,6.014l-6.015,0.041l-0.081,6.055l5.974,0.04l0.122,6.015l-6.096,0.041l-0,6.055l6.055,-0l-0,6.055l-6.055,0.041l0.04,6.055l6.056,-0l-0,6.055Z" style="fill:#fefeff;"/><path d="M297.515,127.524l6.055,-0l-0,6.055l-6.055,-0l0.081,12.151l5.974,-0l0.081,-6.096l5.974,0.081l0.041,6.015l6.055,-0l-0,-6.055l6.055,-0.041l0.04,-6.055l6.056,-0l-0,-6.055l-12.151,-0l-0.041,-12.151l-6.014,-0.163l-0,-5.933l-12.151,0.041l-0,6.055l6.014,-0c0.081,1.463 0.244,4.754 -0.122,6.055l-5.892,-0l-0,6.096Z" style="fill:#0060af;"/><path d="M285.364,127.524l-6.055,-0l-0.041,-12.151l-6.055,-0l-0,-6.096l24.302,0.041l-0,-12.192l-6.056,0.041l-0.081,6.055l-24.22,0.04l-0.082,6.015l-6.014,-0l-0,6.096l6.096,-0l-0,6.055l6.055,0.081l-0.041,5.974l-6.014,0l-0,-6.055l-6.096,-0l-0,18.206l6.096,-0l-0,-6.055l18.206,-0l-0,-6.055Z" style="fill:#0060af;"/><path d="M297.515,224.65l-6.056,-0l-0.04,-6.055l6.096,-0l-0,6.055Zm-12.07,-12.151l5.974,-0l-0,6.096l-6.055,-0.082l0.081,-6.014Zm12.07,18.206l-0,-6.055l6.055,-0l-0,-18.206l-30.357,-0l-0,24.261l12.151,-0l-0,-6.015l6.055,-0.04l-0,5.892c1.382,0.407 4.511,0.204 6.096,0.163Z" style="fill:#fefeff;"/><path d="M333.927,115.373l-0,6.055l6.055,-0l-0,24.302l6.096,-0.122l-0,-5.974l6.055,0.081l0.081,6.015l6.015,-0l-0,6.055l6.055,-0l-0,-5.933l12.151,-0.122l-0,-6.055l5.892,-0.041c0.407,-1.219 0.203,-4.592 0.163,-6.055l-6.055,-0l-0,6.055l-6.056,-0l0,-6.055l-6.055,-0l-0.122,6.055l-12.069,-0l-0,-6.015l-6.055,-0.162l-0,-24.18l-6.096,-0l0.041,6.096l-6.096,-0Z" style="fill:#0060af;"/><path d="M24.383,151.826c-0.041,-0.041 -0.081,-0.122 -0.122,-0.163c-0.406,-1.3 -0.081,-4.105 -0.203,-5.933l-5.852,-0c0,2.276 0.285,10.525 -0.122,12.11l-5.933,0.041l-0,6.055l12.11,-0l0.041,-6.055l6.055,-0l-0,5.933l6.014,0.122l0.082,-6.055l6.055,-0l-0,12.069l5.852,0.041c0.528,-1.707 0.203,-4.023 0.203,-5.852c1.341,-0.488 4.552,-0.203 6.096,-0.203l-0.041,-6.055l-12.11,-0.041l-0,-5.974l12.151,-0.081l-0,-6.055l-5.771,-0.041c-0.325,-0.284 -0.406,0.041 -0.447,-1.382l0.041,-4.551l-12.029,-0l-0,18.125l-6.096,-0l-0,-6.055l-5.974,-0Z" style="fill:#0060af;"/><path d="M352.255,24.302l18.084,0.04l0.04,18.166l-18.246,-0l0.122,-18.206Zm-5.73,23.814l29.503,-0.041l0,-29.463l-29.463,0l-0.04,29.504Z" style="fill:#fefeff;"/><path d="M24.302,24.342l18.125,-0.04l0.081,0.894l-0,17.312l-18.206,-0l-0,-18.166Zm23.814,23.774l-0.041,-29.504l-29.463,0l0,29.463l29.504,0.041Z" style="fill:#fefeff;"/><path d="M24.302,352.173l18.206,-0.04l-0,17.312l-0.081,0.934l-18.125,-0.081l-0,-18.125Zm23.814,-5.648l-29.504,0.04l0,29.463l29.463,0l0.041,-29.503Z" style="fill:#fefeff;"/><path d="M206.444,297.515l6.055,-0l-0,5.973l12.151,0.082l-0,-12.111l-12.07,-0.04l-0.081,-12.029l12.11,-0.122l0.041,-6.015l-12.07,-0.04l-0.081,-6.055l-6.055,-0l-0,12.151l-6.096,-0l-0,12.11l5.974,-0l0.122,6.096Z" style="fill:#0060af;"/><path d="M91.071,297.515l6.096,-0l-0,6.055l-6.096,-0l-0,-6.055Zm-0,-0l-6.055,-0l-0,12.151l12.11,-0l0.081,6.055l12.07,-0.041l-0.081,-6.014l-5.974,-0l-0,-12.151l6.055,0.04l-0,6.015l6.096,-0l-0,-12.151l-18.206,-0l-0.082,-6.055l-6.014,-0l-0,12.151Z" style="fill:#0060af;"/><path d="M303.57,279.309l6.096,-0l-0,12.069l11.988,0.041l0.162,-12.11l6.056,-0l-0,18.124l6.055,0.082l-0,-12.151l6.096,-0l-0,-6.055l-6.096,-0l-0,-6.096l-30.357,0.04l-0,6.056Z" style="fill:#fefeff;"/><path d="M248.911,145.73l0.122,-6.096l5.974,-0l-0.041,-6.055l-12.11,-0l-0,-6.055l-6.055,-0l-0,6.055l-12.151,-0l-0,-6.055l-6.055,-0l-0,18.206l12.029,-0l0.122,-6.055l5.973,-0l0.082,6.055l12.11,-0Z" style="fill:#0060af;"/><path d="M24.302,261.103l-0.041,6.014l6.096,0.122l0.041,12.07l6.055,-0l-0,6.055l6.055,-0l-0,-12.151l12.11,-0l0,-6.055l-12.11,-0.082l0.041,-12.069l-6.096,-0l-0.041,6.055l-12.11,0.041Z" style="fill:#0060af;"/><path d="M54.659,224.65l6.055,-0l-0,-6.055l6.055,-0.082l0.041,-6.014l6.055,0.04l-0,18.166l6.055,-0l0,-6.015l6.096,-0.081c-0,-3.332 -0.407,-16.093 0.162,-18.165c0.529,-1.788 0.204,-4.105 0.204,-5.974c-0.651,0.65 -0.407,0.447 -0.366,2.723l-0,3.251l-6.096,-0l0,6.055l-6.055,-0l-0,-6.015l-6.096,-0.04l0,6.055l-18.165,-0l-0.041,5.974l6.096,0.122l-0,6.055Z" style="fill:#fefeff;"/><path d="M12.07,212.499c0.528,0.406 -0.529,0.081 0.894,0.406l5.242,-0.203c1.91,-0.61 9.591,-0.203 12.151,-0.203l-0,6.096c-2.479,-0 -10.322,0.365 -12.151,-0.204c-1.016,-0.365 -2.073,-0.203 -3.21,-0.203c-1.098,-0.04 -2.154,-0.203 -2.926,0.407l6.136,-0l0,6.055l18.206,-0l0.041,-6.055l5.933,-0l0.122,-6.096l-12.151,-0l-0,-6.055l6.055,-0l0.041,-12.111l-6.096,-0.04l-0,6.014l-6.055,0.082l-0,6.055l-6.096,-0l0,6.055l-6.136,-0Z" style="fill:#fefeff;"/><path d="M382.571,382.49l-0.081,-42.467l-6.055,-0l-0,36.412l-12.151,-0l-0,6.055l18.287,-0Z" style="fill:#0060af;"/><path d="M297.433,370.705l0.082,11.785l12.151,-0l-0.041,-6.055l-6.055,-0.041l0.162,-6.015l5.893,0l0.081,-6.055l6.015,-0.122l-0,-5.973l-6.055,-0.122l-0,-5.974l-6.096,0.04c0.04,2.032 0.284,10.77 -0.163,12.111l-11.988,-0l-0,6.095l3.373,0c1.95,-0.04 2.072,-0.284 2.641,0.326Z" style="fill:#0060af;"/><path d="M188.238,109.277l6.055,-0l-0,6.055l6.055,0.122l-0,5.974l12.151,-0l-0,-18.206l-24.261,-0l-0,6.055Z" style="fill:#fefeff;"/><path d="M206.444,376.435c-0,1.544 -0.244,4.754 0.162,6.055l11.948,-0l0.041,-12.111l12.11,0l-0,6.056l12.151,-0l-0,-6.056l-6.055,-0.121l-0,-5.974l-6.055,-0l-0.041,-6.055l-6.055,-0l-0,6.055l-6.055,0.122l-0,5.973l-6.056,0l-0.04,6.056l-6.055,-0Z" style="fill:#0060af;"/><path d="M24.302,42.508l18.206,-0l-0,-17.312l-0.081,-0.894l-18.125,0.04l-0,18.166Z" style="fill:#0060af;"/><path d="M24.302,370.298l18.125,0.081l0.081,-0.934l-0,-17.312l-18.206,0.04l-0,18.125Z" style="fill:#0060af;"/><path d="M212.499,78.92c0.04,-2.032 0.284,-10.769 -0.163,-12.151l-18.043,0.041l-0.041,6.055l-6.014,-0l-0,6.055l6.055,0l-0,6.096l-6.055,-0l0.04,6.055l18.166,-0l-0.122,-6.055l-5.974,-0l-0,-6.055l-6.055,-0.041l-0,-6.055l12.151,-0l-0,6.055l6.055,0Z" style="fill:#fefeff;"/><path d="M352.133,42.508l18.246,-0l-0.04,-18.166l-18.084,-0.04l-0.122,18.206Z" style="fill:#0060af;"/><path d="M267.158,151.785l-0,5.892c1.747,0.569 20.766,0.204 24.261,0.204l-0,-12.151l-6.055,0.04l-0,6.015l-6.055,-0l-0,-12.11l-12.151,-0.041l-0,6.096l6.055,-0l-0,6.055l-6.055,-0Z" style="fill:#0060af;"/><path d="M370.379,230.705l12.111,-0l-0,-36.412l-6.055,-0l-0.082,24.302l-5.974,-0l0,12.11Z" style="fill:#0060af;"/><path d="M194.333,340.023l6.015,0.081l-0.081,5.974l-5.974,-0.041l0.04,-6.014Zm-6.095,11.175l0.04,0.935l18.084,-0l0.082,-18.206l-18.206,-0l-0,17.271Z" style="fill:#fefeff;"/><path d="M194.374,48.563l5.974,0.041l-0,6.014l-6.055,-0.04l0.081,-6.015Zm-6.136,12.151l18.206,-0l-0.082,-18.206l-18.084,-0l-0.04,0.935l-0,17.271Z" style="fill:#fefeff;"/><path d="M340.104,194.293l5.974,0.081l-0.041,5.974l-6.014,-0l0.081,-6.055Zm-6.177,12.151l18.206,-0.082l-0,-18.084l-0.935,-0.04l-17.271,-0l-0,18.206Z" style="fill:#fefeff;"/><path d="M48.604,194.293l6.014,-0l-0.04,6.055l-6.015,-0.081l0.041,-5.974Zm-6.096,12.069l18.206,0.082l-0,-18.206l-18.206,-0l-0,18.124Z" style="fill:#fefeff;"/><path d="M340.023,340.023l6.055,-0l-0,6.055l-6.055,-0.041l-0,-6.014Zm-6.096,11.175l0.081,0.935l18.084,-0l0.041,-18.125l-0.935,-0.081l-17.271,-0l-0,17.271Z" style="fill:#fefeff;"/><path d="M279.309,340.023l-12.151,-0.041l-0,24.302l12.151,-0l-0,-24.261Z" style="fill:#0060af;"/><path d="M36.453,72.865l-12.111,-0l-0.04,-6.096l12.151,0.041l-0,6.055Zm-0,6.055l-0,-6.055l6.014,-0l0.041,-12.151l-18.166,-0l-0.04,6.096l-11.948,-0c-0.447,1.219 -0.244,4.592 -0.162,6.055l12.029,-0l0.081,5.974l12.151,0.081Z" style="fill:#0060af;"/><path d="M230.705,42.467l-6.055,0.041l-0,-6.055l-6.055,-0.041l-0,12.151l6.014,0l0,6.096l-6.014,-0l-0,6.055l18.206,-0.122l-0,-5.933l6.055,-0.041l-0,-6.055l-6.055,0.122l-0.041,5.974l-6.055,-0.081l-0,-12.111Z" style="fill:#fefeff;"/><path d="M267.158,297.515l24.22,-0l0.081,-6.096l-6.014,-0l-0.081,-12.11l-12.151,-0l-0,6.055l6.055,-0l-0,6.055l-12.11,0.04l-0,6.056Z" style="fill:#fefeff;"/><path d="M376.435,340.023l-0,-6.096l6.055,-0l-0,-18.206l-6.055,-0l-0,6.055l-6.015,-0l-0.081,6.055l-6.055,0.041l0.04,6.055l6.055,0.04l0,6.056l6.056,-0Z" style="fill:#0060af;"/><path d="M164.017,91.071l5.974,-0l-0,6.096l-6.015,-0c-0.121,1.381 -0.243,4.795 0.122,6.055l18.044,-0.041l-0.041,-6.014l-6.014,-0l-0.041,-18.206l-6.014,-0l-0.163,6.055l-5.933,-0l0.081,6.055Z" style="fill:#fefeff;"/><path d="M78.92,370.379l0.041,-12.15l-12.151,-0l-0,-6.056l-6.096,0.041l0.041,18.165l18.165,0Z" style="fill:#0060af;"/><path d="M176.087,255.007l6.055,-0l-0,6.055l-6.015,-0l-0.04,-6.055Zm-6.096,12.151l12.191,-0.041l-0.04,-6.055l6.055,-0l-0,-6.055l-6.055,-0l-0,-6.015l-18.125,-0.04l-0.081,6.055l6.055,-0l-0,12.151Z" style="fill:#0060af;"/><path d="M267.117,370.379l0.041,6.056l-6.096,-0l-0,6.055l12.151,-0l-0,-6.055l12.151,-0l-0,-11.948c-1.788,-0.528 -4.145,-0.203 -6.055,-0.203l-0.082,6.095l-12.11,0Z" style="fill:#0060af;"/><path d="M340.023,97.126l6.055,0.041l0.081,-12.151l18.125,-0l-0.082,-6.096l-24.22,0l0.041,18.206Z" style="fill:#0060af;"/><path d="M182.182,127.524l12.111,-0l-0,-12.192l-5.812,0.041l-0.243,-0l-0,-6.096l-6.096,-0l-0,6.055l-6.055,0.041l-0,6.055l6.055,0.041l0.04,6.055Z" style="fill:#fefeff;"/><path d="M297.515,97.126l18.206,0l-0,-6.055l6.055,-0l-0,-6.055l-18.206,0.04l-0.041,6.015l-6.014,-0l-0,6.055Z" style="fill:#0060af;"/><path d="M321.776,91.071l-0,12.11l12.069,0.041l0.082,6.096l6.055,-0.041l0.041,-12.151l-12.151,0.041l-0,-6.096l6.055,-0.041l-0.082,-6.014l-5.973,0.04l-0.041,6.015l-6.055,-0Z" style="fill:#0060af;"/><path d="M24.302,261.103l-0.081,-12.151l-6.015,-0l0,-12.151l-6.055,-0l0.041,24.261l12.11,0.041Z" style="fill:#0060af;"/><path d="M206.444,261.062l12.11,-0l0.041,-6.055l11.988,-0l0.122,-6.055l-24.221,-0l-0.04,12.11Z" style="fill:#0060af;"/><path d="M42.345,133.498l-5.892,0.081l-0.041,5.933l12.07,0c-0,-0.975 -0.325,-5.161 0.325,-5.933l11.907,-0l-0,-6.055l-11.866,-0.041c-0.448,-0.406 -0.326,0.244 -0.407,-1.138c0,-0.447 0.041,-1.056 0.041,-1.544l-0,-3.251l-5.893,-0c0,1.097 0.366,11.013 -0.244,11.948Z" style="fill:#fefeff;"/><path d="M24.383,133.579l5.811,-0.041c0.204,0.244 0.285,0.041 0.326,1.26l-0,4.714l5.892,0l0.041,-5.933l5.892,-0.081l0,-11.948l-11.907,-0l0.041,6.014l-6.137,0.163l0.041,5.852Z" style="fill:#0060af;"/><path d="M133.579,340.023l-0,-12.151l-6.096,-0l0,6.014l-12.11,0.041l-0,12.11l6.055,0.041l-0,-5.974l12.151,-0.081Z" style="fill:#fefeff;"/><path d="M346.118,109.277l18.166,-0l-0,-18.206l-6.055,0.041l-0.122,12.11l-12.029,-0l0.04,6.055Z" style="fill:#0060af;"/><path d="M376.353,85.382l0.082,11.744l6.055,0.041l-0,-24.302l-6.055,-0l-0,6.055l-6.056,0l0,6.096l3.292,-0c2.479,-0.041 2.113,-0.244 2.682,0.366Z" style="fill:#0060af;"/><path d="M103.222,376.435l6.055,0.04l-0,6.015l6.096,-0l-0,-6.015l6.055,-0.04l-0,-6.056l-12.11,0l-0.041,-6.055l-6.055,-0.04l-0,12.151Z" style="fill:#0060af;"/><path d="M297.515,340.023l6.055,-0l-0,6.055l6.096,-0l-0,-6.055l6.055,-0.082l-0,-5.974l-6.055,-0.122l-0,-5.973l-6.096,0.04l-0.041,6.015l-6.014,-0l-0,6.096Z" style="fill:#0060af;"/><path d="M206.444,376.435l6.055,-0l0.04,-6.056l6.056,0l-0,-5.973l6.055,-0.122l-0,-6.055l-12.151,0.081c-0,1.625 0.325,4.592 -0.203,5.974l-5.852,-0l-0,12.151Z" style="fill:#fefeff;"/><path d="M230.705,91.071l6.096,-0.081l0.04,-12.07l12.07,0l-0,-6.055l-12.11,-0l-0.082,-6.055l-5.973,-0l-0,6.055l6.055,-0l-0,6.055l-6.096,0.081l-0,12.07Z" style="fill:#fefeff;"/><path d="M224.65,358.229l6.055,-0l-0,-6.056l6.096,-0.081l-0.082,-6.014l-12.069,-0l-0.041,-6.055l-6.014,-0l0.081,12.11l5.974,0.04l-0,6.056Z" style="fill:#fefeff;"/><path d="M78.92,370.379l0,12.111l12.151,-0.041l-0.081,-18.165l-5.974,0.081l-0.122,6.014l-5.974,0Z" style="fill:#0060af;"/><path d="M224.65,97.126l-12.151,0.081l-0,5.974l6.055,0.081l0.081,6.015l18.166,-0.081l-0.082,-5.974l-12.069,-0l-0,-6.096Z" style="fill:#fefeff;"/><path d="M18.206,145.73l0,-5.974c0.203,-0.122 0.081,-0.122 0.528,-0.203l5.405,-0.041l-0.04,-5.933l-5.893,-0l0,-12.151l-6.055,-0l-0,24.302l6.055,-0Z" style="fill:#0060af;"/><path d="M370.379,297.515l0,6.055l6.015,-0l0.041,6.055l6.136,0.041l0,-18.247l-6.136,-0l-0,6.096l-6.056,-0Z" style="fill:#0060af;"/><path d="M279.309,36.453l-0,6.055l12.11,-0c-0,-2.885 0.406,-16.581 -0.203,-18.206l-5.812,-0l-0.04,12.151l-6.055,-0Z" style="fill:#0060af;"/><path d="M60.714,224.65l6.096,0.122l-0,5.933l6.055,-0l-0,-18.166l-6.055,-0.04l-0.041,6.014l-6.055,0.082l-0,6.055Z" style="fill:#0060af;"/><path d="M309.706,66.81l6.015,-0.041l-0,-6.055l-12.151,-0l-0,18.206l6.055,0l0.081,-12.11Z" style="fill:#0060af;"/><path d="M339.982,145.73l0.041,6.055l18.206,-0l-0,-6.055l-6.015,-0l-0.081,-6.015l-6.055,-0.081l-0,5.974l-6.096,0.122Z" style="fill:#fefeff;"/><path d="M169.991,303.57l-0,18.206l6.096,-0l-0,-12.07l6.055,-0.081l-0,-6.055l-12.151,-0Z" style="fill:#0060af;"/><path d="M297.515,248.911l6.055,-0l-0,-18.206l-6.055,-0l-0.082,6.096l-6.014,-0l0.04,6.055l6.056,0.04l-0,6.015Z" style="fill:#fefeff;"/><path d="M157.84,382.49l24.302,-0l-0,-6.055l-24.261,-0l-0.041,6.055Z" style="fill:#0060af;"/><path d="M315.721,376.435l-0,6.055l12.151,-0l-0,-18.206l-6.096,0.04l-0,12.111l-6.055,-0Z" style="fill:#0060af;"/><path d="M212.499,78.92l0.04,12.151l6.015,-0.081l0.041,-5.974l6.055,-0l-0,-12.151c-1.545,-0 -4.755,-0.285 -6.055,0.162l-0,5.893l-6.096,0Z" style="fill:#fefeff;"/><path d="M78.92,97.126l-6.055,0l-0,18.247l6.055,-0l0,-6.015l6.055,-0.081l0,-6.015l-6.055,-0.081l0,-6.055Z" style="fill:#0060af;"/><path d="M248.911,72.865l6.096,0.122l-0,5.933l6.096,0l-0.041,-6.055l6.096,-0l-0,-6.096l-18.206,0.122l-0.041,5.974Z" style="fill:#fefeff;"/><path d="M279.309,91.071l-0.041,6.096l12.151,-0l-0.041,-18.247l-6.014,0.041l-0.041,12.11l-6.014,-0Z" style="fill:#0060af;"/><path d="M358.229,327.831l6.055,0.041l-0,-24.302l-6.015,-0l-0.04,24.261Z" style="fill:#0060af;"/><path d="M376.435,145.73l-0,6.055l-6.056,-0l0,6.096l5.934,-0l0.162,6.055l5.934,-0l0.081,-18.206l-6.055,-0Z" style="fill:#0060af;"/><path d="M66.81,333.927l18.206,-0.082l-0.081,-5.933c-3.13,-0.406 -8.86,-0.04 -12.273,-0.04c-8.291,-0 -5.243,-1.098 -5.934,6.055l-6.014,0.081l-0,5.933l6.096,-0.04l-0,-5.974Z" style="fill:#0060af;"/><path d="M54.618,121.225c-0.406,0.365 0.203,0.122 -0.487,0.284l-5.405,0.041l0.122,5.933l11.866,0.041l0.041,-6.055l6.014,-0.041l0,-6.055l-12.11,-0l-0.041,5.852Z" style="fill:#0060af;"/><path d="M376.435,72.865l0.04,-6.055l6.015,-0.041l-0,-6.055c-3.861,-0 -15.158,0.488 -18.084,-0.163l-0.122,6.218l6.055,0.041l0.081,6.055l6.015,-0Z" style="fill:#0060af;"/><path d="M24.383,151.826l5.974,-0l-0,6.055l6.096,-0l-0,-18.125l-5.933,-0l-0.082,6.136l-6.055,0.041l0,5.893Z" style="fill:#fefeff;"/><path d="M103.222,72.865l-6.055,-0l-0,6.014c1.422,0.122 4.754,0.244 6.055,-0.081l-0,-5.933l12.11,-0l0.041,-6.096c-2.195,0 -10.688,-0.244 -12.151,0.203l-0,5.893Z" style="fill:#fefeff;"/><path d="M91.071,60.714l12.151,-0l-0,-6.055l-5.08,-0l-0.975,-0.041l-0.041,-0.935l0.041,-5.12l-6.096,0l-0,12.151Z" style="fill:#fefeff;"/><rect x="66.769" y="188.238" width="18.247" height="6.055" style="fill:#fefeff;"/><path d="M133.579,303.57l-18.206,-0l-0,6.055l18.206,0.041l-0,-6.096Z" style="fill:#0060af;"/><path d="M182.182,267.117l-12.191,0.041l-0,6.055c8.168,0.162 5.649,-1.504 6.136,6.096l6.015,-0.041l0.04,-12.151Z" style="fill:#fefeff;"/><path d="M109.277,169.991l-0,6.096l12.151,-0l-0,-12.151l-6.055,-0l-0,6.055l-6.096,-0Z" style="fill:#fefeff;"/><path d="M78.92,315.721l6.055,-0l0.041,-6.055l-12.151,-0l-0,12.11l6.055,-0l0,-6.055Z" style="fill:#0060af;"/><path d="M279.309,340.023l12.11,-0l-0,-12.151l-6.055,-0l-0,6.055l-6.055,-0l-0,6.096Z" style="fill:#0060af;"/><path d="M194.293,139.634l12.151,-0l-0.041,-6.055l-6.055,-0l-0,-6.055l-6.055,-0l-0,12.11Z" style="fill:#fefeff;"/><rect x="340.023" y="279.309" width="18.206" height="6.055" style="fill:#0060af;"/><path d="M303.57,30.316l6.096,0.041l-0,-18.206l-6.096,-0l-0,18.165Z" style="fill:#0060af;"/><path d="M285.364,315.721l-6.055,-0l-0,6.014l-6.056,0.081l-0.04,6.056l12.151,-0l-0,-12.151Z" style="fill:#0060af;"/><path d="M163.936,115.332l-6.055,-0.081l-0,-5.974l-6.096,0.041l-0,12.11l12.151,-0.081l-0,-6.015Z" style="fill:#fefeff;"/><rect x="358.229" y="261.062" width="6.055" height="18.247" style="fill:#0060af;"/><path d="M285.364,364.284l6.055,-0l-0,-18.206l-6.055,0.081l-0,18.125Z" style="fill:#0060af;"/><path d="M133.579,218.595l-5.893,-0c-0.447,1.219 -0.203,4.551 -0.162,6.055l6.055,-0l-0,-6.055l12.069,-0.041l0.082,-6.015l-12.07,-0.04l-0.081,6.096Z" style="fill:#0060af;"/><path d="M303.57,321.776l18.206,-0l-0,-6.055l-18.206,0.04l-0,6.015Z" style="fill:#0060af;"/><path d="M109.277,18.206l18.247,0l-0,-5.974l-18.247,-0.081l-0,6.055Z" style="fill:#0060af;"/><path d="M267.158,151.785l-0,-6.055l-18.247,-0l0.041,6.014l18.206,0.041Z" style="fill:#0060af;"/><path d="M212.499,315.721l-0,-6.096l-18.206,0.162l0.04,5.934l18.166,-0Z" style="fill:#0060af;"/><path d="M18.206,218.391c1.829,0.569 9.672,0.204 12.151,0.204l-0,-6.096c-2.56,-0 -10.241,-0.407 -12.151,0.203l0,5.689Z" style="fill:#0060af;"/><path d="M242.734,382.49l12.273,-0l-0,-6.055l-12.151,-0l-0.122,6.055Z" style="fill:#0060af;"/><path d="M109.318,267.158l-0.041,-11.948c-1.585,-0.528 -4.267,-0.203 -6.055,-0.203l-0,12.151l6.096,-0Z" style="fill:#0060af;"/><path d="M255.21,163.936l11.907,-0l0,-6.055l-12.11,-0c-0,1.747 -0.325,4.511 0.203,6.055Z" style="fill:#0060af;"/><path d="M352.133,376.435l11.988,-0c0.488,-1.829 0.163,-4.145 0.163,-6.056l-12.151,0l-0,6.056Z" style="fill:#0060af;"/><path d="M24.261,267.117l-12.11,0.041l-0.041,6.055l12.192,-0l-0.041,-6.096Z" style="fill:#0060af;"/><path d="M127.524,291.419l6.055,-0l-0,-12.11l-6.096,-0l0.041,12.11Z" style="fill:#fff;"/><rect x="200.348" y="18.206" width="6.096" height="12.151" style="fill:#fefeff;"/><path d="M267.158,97.126l-12.151,0.041l-0,6.055l12.151,-0l-0,-6.096Z" style="fill:#0060af;"/><rect x="376.435" y="103.222" width="6.055" height="12.151" style="fill:#0060af;"/><path d="M194.293,364.284l12.151,-0l-0.041,-6.055l-12.11,-0l-0,6.055Z" style="fill:#fefeff;"/><path d="M182.142,321.776l6.096,-0l-0.041,-12.11l-6.055,-0l-0,12.11Z" style="fill:#0060af;"/><path d="M352.133,121.428l12.151,-0l-0,-6.055l-12.111,-0l-0.04,0.934l-0,5.121Z" style="fill:#0060af;"/><rect x="127.524" y="54.659" width="6.055" height="12.11" style="fill:#0060af;"/><path d="M36.453,72.865l-0,-6.055l-12.151,-0.041l0.04,6.096l12.111,-0Z" style="fill:#fefeff;"/><path d="M72.865,242.856l-6.055,-0l-0,12.151l6.055,-0.041l-0,-12.11Z" style="fill:#0060af;"/><rect x="333.927" y="297.515" width="6.096" height="12.151" style="fill:#fff;"/><rect x="273.213" y="176.087" width="12.151" height="6.055" style="fill:#0060af;"/><path d="M66.769,291.419l12.151,-0l-0.041,-6.055l-12.069,-0l-0.041,6.055Z" style="fill:#fefeff;"/><path d="M97.167,48.522l6.055,0.041l-0,-12.151l-6.055,0.041l-0,12.069Z" style="fill:#fefeff;"/><path d="M352.173,72.865l12.111,-0l-0,-6.055l-12.151,-0l0.04,6.055Z" style="fill:#0060af;"/><path d="M267.117,194.293l0.041,-5.812l-0,-0.243l-12.151,-0l-0,6.055l12.11,-0Z" style="fill:#fefeff;"/><path d="M54.659,248.911l-0,6.096l-5.893,-0c-0.487,1.3 -0.244,4.551 -0.162,6.055l6.055,-0l-0,-6.055l6.055,-0l-0.081,-6.055l-5.974,-0.041Z" style="fill:#0060af;"/><path d="M333.967,163.936l-0.04,6.055l12.151,-0l-0,-6.055l-12.111,-0Z" style="fill:#0060af;"/><rect x="163.936" y="48.563" width="6.055" height="12.151" style="fill:#fff;"/><path d="M248.952,224.609l0.934,0.041l10.241,-0l0.935,-0.041l-0,-6.014l-12.11,-0l-0,6.014Z" style="fill:#0060af;"/><rect x="212.499" y="315.721" width="12.151" height="6.055" style="fill:#0060af;"/><path d="M248.911,352.173l0.041,-12.15l-6.056,-0l-0.04,12.11l6.055,0.04Z" style="fill:#fefeff;"/><path d="M267.158,169.991l12.151,-0.041l-0,-6.014l-12.192,-0l0.041,6.055Z" style="fill:#0060af;"/><path d="M279.309,315.721l6.055,-0l-0,-12.151l-6.015,-0l-0.04,12.151Z" style="fill:#fefeff;"/><path d="M145.73,24.261l-6.055,0.041l-0.041,12.029l6.055,0.081l0.041,-12.151Z" style="fill:#fefeff;"/><path d="M145.73,72.865l-0,-5.974l-12.151,-0.122l-0,6.055l12.151,0.041Z" style="fill:#0060af;"/><path d="M194.293,261.021l6.014,0.082l0.041,-12.151l-6.015,-0l-0.04,12.069Z" style="fill:#0060af;"/><path d="M145.73,340.023l6.055,-0l-0,-12.151l-5.933,-0l-0.122,12.151Z" style="fill:#fefeff;"/><path d="M157.881,346.037l5.933,0.041l0.122,-12.07l-6.055,-0.041l-0,12.07Z" style="fill:#fefeff;"/><path d="M24.424,139.756l5.852,-0l-0.082,5.892l-5.852,0l0.082,-5.892Zm-0.325,-6.177l0.04,5.933l-5.405,0.041c-0.447,0.081 -0.325,0.081 -0.528,0.203l5.893,-0l-0.041,5.974c0.122,1.828 -0.203,4.633 0.203,5.933c0.041,0.041 0.081,0.122 0.122,0.163l0,-5.893l6.055,-0.041l0.082,-6.136l17.962,-0l-0.041,4.551c0.041,1.423 0.122,1.098 0.447,1.382c-0.406,-1.504 -0.162,-4.267 -0.162,-5.933l5.933,0.081c-0.813,-0.65 -4.877,-0.325 -5.933,-0.325l0.081,-5.933c-0.65,0.772 -0.325,4.958 -0.325,5.933l-17.962,0l-0,-4.714c-0.041,-1.219 -0.122,-1.016 -0.326,-1.26l0.082,5.974l-5.934,0l0.041,-5.933l-0.041,-5.852l6.137,-0.163l-0.041,-6.014l11.907,-0l0,11.948c0.61,-0.935 0.244,-10.851 0.244,-11.948l5.893,-0l-0,3.251c-0,0.488 -0.041,1.097 -0.041,1.544c0.081,1.382 -0.041,0.732 0.407,1.138l-0.122,-5.933l5.405,-0.041c0.69,-0.162 0.081,0.081 0.487,-0.284l-5.892,0.081l0.081,-5.933c-0.65,0.731 -0.325,4.958 -0.366,5.933l-5.892,-0l-0,-3.251c0.04,-2.154 0.284,-2.032 -0.326,-2.642l0.082,5.893c-2.154,-0 -10.526,-0.284 -11.948,0.163l-0.122,5.973l-5.974,0.041l-0.162,6.096Z" style="fill:#82b1d8;"/><path d="M48.116,346.525l-0.041,29.503l-29.463,0l0,-29.463l29.504,-0.04Zm0,-0c-0.244,-0.366 -0.731,-0.244 -1.422,-0.244c-0.651,-0 -1.341,0.04 -1.992,0.04c-6.217,0 -22.188,-0.325 -26.13,0.041c-0.447,1.057 -0.488,27.472 -0.122,29.829c2.398,0.366 28.772,0.325 29.869,-0.122c0.325,-4.064 0.041,-19.832 0.041,-26.09c-0,-1.219 0.122,-2.56 -0.163,-3.332c0,-0 -0.04,-0.082 -0.081,-0.122Z" style="fill:#89b4da;"/><path d="M346.525,48.116l0.04,-29.504l29.463,0l0,29.463l-29.503,0.041Zm-0,0c0.325,0.488 14.101,0.244 14.67,0.244c4.552,-0 10.485,0.325 14.874,-0.041c0.447,-1.056 0.488,-27.471 0.122,-29.869c-2.398,-0.366 -28.772,-0.325 -29.829,0.122c-0.406,4.755 0,20.725 -0.081,27.878c-0,0.731 -0.122,1.219 0.244,1.666Z" style="fill:#89b4da;"/><path d="M48.116,48.116l-29.504,-0.041l0,-29.463l29.463,0l0.041,29.504Zm0,0c0.488,-0.325 0.244,-14.102 0.244,-14.67c-0,-4.552 0.325,-10.445 -0.041,-14.874c-1.097,-0.447 -27.471,-0.488 -29.869,-0.122c-0.366,2.398 -0.325,28.813 0.122,29.869c3.942,0.325 19.913,0.041 26.13,0.041l3.414,-0.244Z" style="fill:#89b4da;"/><path d="M370.379,109.196l-5.892,0.081c-0.528,1.829 -0.203,4.145 -0.203,6.096l6.095,-0l0,-6.177Z" style="fill:#0060af;"/><path d="M376.435,121.265l-0,-5.892l-5.893,-0c-0.488,1.707 -0.163,4.226 -0.163,6.055c1.911,-0 4.268,0.325 6.056,-0.163Z" style="fill:#0060af;"/><path d="M364.528,91.071l5.811,-0l0.04,-5.852c-1.544,-0.569 -4.348,-0.203 -6.095,-0.203c-0,1.869 -0.366,4.389 0.244,6.055Z" style="fill:#0060af;"/><path d="M279.43,24.261l-0.162,-6.014l-5.852,-0.041c-0.528,1.829 -0.203,4.145 -0.203,6.096l6.217,-0.041Z" style="fill:#0060af;"/><path d="M297.637,24.221l-0.122,-5.974l-5.893,-0.041c-0.528,1.788 -0.203,4.145 -0.203,6.096l6.218,-0.081Z" style="fill:#0060af;"/><path d="M291.256,18.206c0.529,-1.747 0.163,-4.145 0.163,-6.055l-6.218,0.041l0.163,5.973l5.892,0.041Z" style="fill:#0060af;"/><path d="M224.65,127.524l6.055,-0l-0,-6.096l-6.177,-0l0.122,6.096Z" style="fill:#0060af;"/><path d="M279.309,36.453l0.121,-6.055l-6.217,-0.041l0.04,6.055l6.056,0.041Z" style="fill:#0060af;"/><path d="M376.435,291.256l-0,-5.892l-6.056,-0l0,6.055c1.911,-0 4.268,0.325 6.056,-0.163Z" style="fill:#0060af;"/><path d="M370.379,279.309l6.056,-0l-0,-5.893c-1.788,-0.528 -4.145,-0.203 -6.056,-0.203l0,6.096Z" style="fill:#0060af;"/><path d="M255.169,376.435l5.893,-0l0.041,-6.056l-6.096,0c-0,1.911 -0.325,4.268 0.162,6.056Z" style="fill:#0060af;"/><path d="M121.509,255.007c-1.829,-0 -4.511,-0.325 -6.136,0.203l-0,5.852l6.014,-0l0.122,-6.055Z" style="fill:#0060af;"/><path d="M115.373,254.804l-0,-5.893l-6.055,-0l-0.041,6.096c1.951,-0 4.308,0.325 6.096,-0.203Z" style="fill:#0060af;"/><path d="M18.206,224.65l0,-6.055l-6.136,-0l0.081,6.055l6.055,-0Z" style="fill:#0060af;"/><path d="M376.435,315.721l-0,-5.893c-1.788,-0.488 -4.145,-0.162 -6.056,-0.162l0,6.055l6.056,-0Z" style="fill:#0060af;"/><path d="M340.023,321.776l-0,6.096l5.851,-0c0.447,-1.22 0.244,-4.633 0.163,-6.096l-6.014,-0Z" style="fill:#fefeff;"/><rect x="370.379" y="133.579" width="6.055" height="6.055" style="fill:#fefeff;"/><path d="M230.705,42.467l6.096,0.041l-0,-6.096l-6.096,0.041l-0,6.014Z" style="fill:#fefeff;"/><path d="M261.103,315.721l6.055,-0l-0,-6.055l-6.096,-0l0.041,6.055Z" style="fill:#fefeff;"/><rect x="303.57" y="224.65" width="6.096" height="6.055" style="fill:#fefeff;"/><rect x="297.515" y="48.563" width="6.055" height="6.096" style="fill:#fefeff;"/><rect x="91.071" y="297.515" width="6.096" height="6.055" style="fill:#fff;"/><rect x="315.721" y="151.785" width="6.055" height="6.096" style="fill:#fefeff;"/><rect x="188.238" y="364.284" width="6.055" height="6.096" style="fill:#fefeff;"/><path d="M261.103,315.721l-6.096,-0l-0,6.055l6.055,-0l0.041,-6.055Z" style="fill:#fefeff;"/><rect x="48.563" y="224.65" width="6.096" height="6.055" style="fill:#fefeff;"/><rect x="224.65" y="261.062" width="6.055" height="6.096" style="fill:#0060af;"/><path d="M54.659,91.071l-6.096,-0l0,6.096l6.096,-0.041l-0,-6.055Z" style="fill:#fefeff;"/><rect x="370.379" y="188.238" width="6.055" height="6.055" style="fill:#0060af;"/><rect x="115.373" y="54.659" width="6.055" height="6.055" style="fill:#0060af;"/><rect x="333.927" y="376.435" width="6.096" height="6.055" style="fill:#0060af;"/><path d="M267.117,42.508l-6.014,-0l-0.041,6.055l6.096,0l-0.041,-6.055Z" style="fill:#0060af;"/><path d="M206.444,297.515l-6.096,-0l-0,6.055l6.096,-0l-0,-6.055Z" style="fill:#0060af;"/><path d="M139.634,358.229l5.161,-0l0.935,-0.082l-0,-5.974l-6.096,-0.04l-0,6.096Z" style="fill:#fefeff;"/><rect x="376.435" y="279.309" width="6.055" height="6.055" style="fill:#0060af;"/><rect x="242.856" y="364.284" width="6.096" height="6.096" style="fill:#0060af;"/><rect x="364.284" y="279.309" width="6.096" height="6.055" style="fill:#0060af;"/><path d="M285.364,248.911l6.055,0.041l-0,-6.096l-5.121,-0l-0.934,0.04l-0,6.015Z" style="fill:#fefeff;"/><path d="M261.103,370.379l6.014,0l0.041,-6.095l-6.096,-0l0.041,6.095Z" style="fill:#0060af;"/><path d="M188.238,297.515l-0,6.055l6.055,-0l-0,-6.055l-6.055,-0Z" style="fill:#0060af;"/><path d="M72.865,97.126l-0,-6.055l-6.055,-0l-0,6.096l6.055,-0.041Z" style="fill:#0060af;"/><rect x="291.419" y="127.524" width="6.096" height="6.055" style="fill:#0060af;"/><path d="M115.373,358.188l0.934,0.041l5.121,-0l-0,-6.096l-6.055,0.04l-0,6.015Z" style="fill:#fefeff;"/><rect x="261.062" y="285.364" width="6.096" height="6.055" style="fill:#fefeff;"/><path d="M333.927,115.373l-0,-6.055l-6.055,-0.041l-0,6.096l6.055,-0Z" style="fill:#0060af;"/><path d="M376.435,188.238l6.055,-0l-0,-6.096l-6.055,-0l-0,6.096Z" style="fill:#0060af;"/><path d="M72.865,346.078l6.055,-0l0,-5.08l-0.041,-0.975l-6.014,-0l-0,6.055Z" style="fill:#0060af;"/><rect x="169.991" y="279.309" width="6.096" height="6.055" style="fill:#fefeff;"/><rect x="297.515" y="321.776" width="6.055" height="6.096" style="fill:#0060af;"/><rect x="224.65" y="376.435" width="6.055" height="6.055" style="fill:#0060af;"/><path d="M115.373,248.911l6.055,0.041l-0,-6.096l-6.055,-0l-0,6.055Z" style="fill:#0060af;"/><path d="M297.515,30.357l-0,6.096l6.055,-0l-0,-6.096l-6.055,-0Z" style="fill:#0060af;"/><path d="M230.705,321.776l6.096,-0l-0,-6.055l-5.161,-0l-0.935,0.081l-0,5.974Z" style="fill:#0060af;"/><rect x="364.284" y="206.444" width="6.096" height="6.055" style="fill:#0060af;"/><rect x="48.563" y="279.309" width="6.096" height="6.055" style="fill:#0060af;"/><rect x="127.524" y="261.062" width="6.055" height="6.096" style="fill:#0060af;"/><path d="M24.261,297.515l0.041,6.055l6.055,-0l-0,-6.055l-6.096,-0Z" style="fill:#fefeff;"/><path d="M358.229,133.579l6.055,-0l-0,-6.055l-5.08,-0.041l-0.975,0.041l-0,6.055Z" style="fill:#0060af;"/><path d="M261.062,340.023l6.096,-0.041l-0,-6.055l-6.096,-0l-0,6.096Z" style="fill:#0060af;"/><rect x="291.419" y="72.865" width="6.096" height="6.055" style="fill:#0060af;"/><rect x="309.666" y="370.379" width="6.055" height="6.055" style="fill:#0060af;"/><path d="M261.103,297.515l-0.041,-6.056l-6.055,-0.04l-0,6.096l6.096,-0Z" style="fill:#fefeff;"/><path d="M163.936,115.332l6.055,0.041l-0,-6.096l-6.055,-0l-0,6.055Z" style="fill:#fff;"/><path d="M248.952,212.418l0.934,0.121l5.121,-0.04l-0,-6.055l-6.055,-0l-0,5.974Z" style="fill:#0060af;"/><rect x="297.515" y="78.92" width="6.055" height="6.096" style="fill:#0060af;"/><path d="M182.142,133.579l-0,6.055l6.096,-0l-0.041,-6.055l-6.055,-0Z" style="fill:#fefeff;"/><path d="M54.659,169.991l-6.055,-0l-0.041,6.096l6.096,-0l-0,-6.096Z" style="fill:#0060af;"/><path d="M139.634,200.348l-0,6.096l6.096,-0.041l-0,-5.974l-0.935,-0.081l-5.161,-0Z" style="fill:#0060af;"/><path d="M97.167,133.538l0.934,0.041l5.121,-0l-0,-6.055l-6.055,-0l-0,6.014Z" style="fill:#0060af;"/><path d="M97.126,18.206l6.096,0l-0,-6.055l-6.055,-0l-0.041,6.055Z" style="fill:#0060af;"/><path d="M339.982,78.92l0.041,-6.055l-6.096,-0l-0,6.055l6.055,0Z" style="fill:#0060af;"/><path d="M261.062,303.57l-6.015,-0l-0.04,6.096l6.055,-0.041l-0,-6.055Z" style="fill:#fefeff;"/><path d="M285.364,169.991l6.055,-0l-0,-6.055l-5.121,-0l-0.934,0.04l-0,6.015Z" style="fill:#0060af;"/><path d="M151.785,54.659l6.055,-0l0.041,-6.096l-6.096,0.041l-0,6.055Z" style="fill:#fefeff;"/><path d="M309.666,194.293l5.12,-0l0.935,-0.041l-0,-6.014l-6.055,-0l-0,6.055Z" style="fill:#0060af;"/><path d="M109.277,224.65l-0,-6.055l-6.055,-0.041l-0,6.096l6.055,-0Z" style="fill:#fefeff;"/><rect x="285.364" y="376.435" width="6.055" height="6.055" style="fill:#0060af;"/><rect x="358.229" y="285.364" width="6.055" height="6.055" style="fill:#0060af;"/><path d="M261.103,248.911l6.055,0.041l-0,-6.096l-6.096,-0l0.041,6.055Z" style="fill:#0060af;"/><rect x="333.927" y="315.721" width="6.096" height="6.055" style="fill:#fff;"/><path d="M297.515,224.65l-0,-6.055l-6.096,-0l0.04,6.055l6.056,-0Z" style="fill:#0060af;"/><path d="M224.65,97.126l6.055,0.041l-0,-6.096l-6.055,-0l-0,6.055Z" style="fill:#fff;"/><path d="M176.127,261.062l6.015,-0l-0,-6.055l-6.055,-0l0.04,6.055Z" style="fill:#fefeff;"/><rect x="315.721" y="145.73" width="6.055" height="6.055" style="fill:#0060af;"/><path d="M194.293,115.332l-0,-6.055l-6.055,-0l-0,6.096l0.243,-0l5.812,-0.041Z" style="fill:#0060af;"/><rect x="297.515" y="54.659" width="6.055" height="6.055" style="fill:#0060af;"/><path d="M358.229,218.554l6.055,0.041l-0,-6.096l-6.055,0.04l-0,6.015Z" style="fill:#0060af;"/><path d="M133.579,340.023l-0,6.014l6.055,0.041l-0,-6.055l-6.055,-0Z" style="fill:#fefeff;"/><path d="M36.453,109.277l-0,-6.015l-6.096,-0.04l-0,6.055l6.096,-0Z" style="fill:#0060af;"/><rect x="297.515" y="127.524" width="6.055" height="6.055" style="fill:#fff;"/><path d="M54.659,109.277l-0,-6.015l-6.096,-0.04l0.041,6.055l6.055,-0Z" style="fill:#fefeff;"/><path d="M248.911,358.229l0.041,6.055l6.055,-0l-0.041,-6.055l-6.055,-0Z" style="fill:#0060af;"/><path d="M303.57,248.911l-0,6.055l6.096,0.041l-0.041,-6.055l-6.055,-0.041Z" style="fill:#fefeff;"/><path d="M261.062,303.57l6.096,-0l-0,-6.055l-6.055,-0l-0.041,6.055Z" style="fill:#fefeff;"/><rect x="109.277" y="54.659" width="6.096" height="6.055" style="fill:#fff;"/><path d="M261.062,279.309l-0,-6.056l-6.055,-0.04l-0,6.096l6.055,-0Z" style="fill:#0060af;"/><path d="M297.515,340.023l-6.056,-0l-0.04,6.055l6.096,-0.041l-0,-6.014Z" style="fill:#0060af;"/><path d="M327.872,139.634l5.12,0.041l0.935,-0.122l-0,-5.974l-6.055,-0l-0,6.055Z" style="fill:#0060af;"/><path d="M212.499,54.659l6.055,-0l0.041,-6.096l-6.096,0l-0,6.096Z" style="fill:#fefeff;"/><path d="M48.604,303.57l6.055,-0l-0,-6.055l-6.096,-0l0.041,6.055Z" style="fill:#fefeff;"/><path d="M200.389,267.117l6.055,0.041l-0,-6.096l-6.096,-0l0.041,6.055Z" style="fill:#0060af;"/><path d="M267.117,230.705l0.041,6.014l6.055,0.082l-0,-6.096l-6.096,-0Z" style="fill:#fefeff;"/><rect x="72.865" y="91.071" width="6.055" height="6.055" style="fill:#fff;"/><path d="M115.373,206.444l-0,6.014l6.055,0.041l-0,-6.055l-6.055,-0Z" style="fill:#0060af;"/><path d="M370.379,188.238l0,-6.056l-6.095,-0.04l-0,6.096l6.095,-0Z" style="fill:#0060af;"/><path d="M321.776,145.73l6.055,-0l0.041,-6.096l-6.096,0.041l-0,6.055Z" style="fill:#0060af;"/><rect x="72.865" y="48.563" width="6.055" height="6.096" style="fill:#0060af;"/><path d="M248.911,78.92l0.041,6.055l6.055,0.041l-0.041,-6.096l-6.055,0Z" style="fill:#fefeff;"/><rect x="145.73" y="72.865" width="6.055" height="6.055" style="fill:#0060af;"/><path d="M127.524,54.659l-0.041,-6.055l-6.055,-0.041l-0,6.096l6.096,-0Z" style="fill:#0060af;"/><path d="M60.714,169.991l-0,6.055l6.055,0.041l0,-6.096l-6.055,-0Z" style="fill:#0060af;"/><path d="M24.302,285.364l6.055,-0l-0.041,-6.055l-5.12,-0.041l-0.894,0.122l-0,5.974Z" style="fill:#0060af;"/><path d="M352.173,297.515l6.015,-0l0.041,-6.096l-6.096,-0l0.04,6.096Z" style="fill:#0060af;"/><path d="M133.579,297.515l6.014,-0l0.082,-6.096l-6.096,0.04l-0,6.056Z" style="fill:#fefeff;"/><path d="M261.103,78.92l-0.041,6.096l6.096,-0l-0.082,-6.096l-5.973,0Z" style="fill:#fefeff;"/><path d="M72.906,279.309l6.014,-0l0,-6.096l-6.055,-0l0.041,6.096Z" style="fill:#fefeff;"/><path d="M230.705,42.467l-0,-6.014l-6.055,-0l-0,6.055l6.055,-0.041Z" style="fill:#0060af;"/><path d="M145.73,273.213l6.055,-0l-0,-6.055l-6.015,-0l-0.04,6.055Z" style="fill:#fefeff;"/><path d="M109.277,54.659l-0,-6.015l-6.055,-0.081l-0,6.096l6.055,-0Z" style="fill:#fefeff;"/><path d="M333.927,115.373l6.096,-0l-0.041,-6.096l-6.055,0.041l-0,6.055Z" style="fill:#fff;"/><path d="M273.253,242.856l6.056,-0.041l-0,-6.014l-6.096,-0l0.04,6.055Z" style="fill:#fefeff;"/><path d="M133.579,327.831l6.055,0.041l-0,-6.096l-6.015,-0l-0.04,6.055Z" style="fill:#fefeff;"/><path d="M78.92,18.206l0,6.015l6.096,0.081l-0,-6.096l-6.096,0Z" style="fill:#fefeff;"/><rect x="54.659" y="163.936" width="6.055" height="6.055" style="fill:#0060af;"/><path d="M97.167,364.284l6.055,-0l-0,-6.055l-6.055,0.04l-0,6.015Z" style="fill:#0060af;"/><path d="M97.167,382.49l6.055,-0l-0,-6.055l-6.055,0.04l-0,6.015Z" style="fill:#0060af;"/><path d="M261.062,376.435l6.096,-0l-0.041,-6.056l-6.014,0l-0.041,6.056Z" style="fill:#fff;"/><rect x="297.515" y="224.65" width="6.055" height="6.055" style="fill:#0060af;"/><rect x="370.379" y="127.524" width="6.055" height="6.055" style="fill:#0060af;"/><path d="M72.865,145.73l6.014,-0l0.082,-6.096l-6.096,-0l-0,6.096Z" style="fill:#fefeff;"/><path d="M370.379,127.524l0,-6.055l-6.095,-0.041l0.081,6.055l6.014,0.041Z" style="fill:#0060af;"/><path d="M176.087,327.872l6.055,-0l-0.041,-6.096l-6.014,-0l-0,6.096Z" style="fill:#0060af;"/><rect x="370.379" y="279.309" width="6.055" height="6.055" style="fill:#fff;"/><path d="M297.515,169.991l-6.096,-0l-0,6.096l6.096,-0.082l-0,-6.014Z" style="fill:#0060af;"/><path d="M267.117,42.508l6.096,-0l-0,-6.096l-6.055,0.081l-0.041,6.015Z" style="fill:#0060af;"/><path d="M127.524,352.173l-0,-6.014l-6.096,-0.081l-0,6.055l6.096,0.04Z" style="fill:#fefeff;"/><path d="M370.379,297.515l0,-6.015l-6.095,-0.081l0.04,6.096l6.055,-0Z" style="fill:#0060af;"/><path d="M285.364,127.524l6.055,-0l-0,-6.096l-6.055,0.081l-0,6.015Z" style="fill:#0060af;"/><path d="M127.524,376.435l-6.096,-0l-0,6.095l6.096,-0.081l-0,-6.014Z" style="fill:#0060af;"/><path d="M60.714,133.579l-0,5.974l6.096,0.122l-0.041,-6.096l-6.055,-0Z" style="fill:#fefeff;"/><path d="M248.911,248.911l0.041,6.014l6.055,0.082l-0,-6.055l-6.096,-0.041Z" style="fill:#fefeff;"/><path d="M267.117,24.261l0.041,6.096l6.055,-0l-0.081,-6.055l-6.015,-0.041Z" style="fill:#0060af;"/><path d="M315.721,109.277l6.014,-0l0.081,-6.055l-6.095,-0l-0,6.055Z" style="fill:#0060af;"/><path d="M255.047,54.659l6.015,-0.041l-0,-6.055l-6.055,0l0.04,6.096Z" style="fill:#0060af;"/><path d="M340.023,346.037l6.055,0.041l-0,-6.055l-6.055,-0l-0,6.014Z" style="fill:#0060af;"/><path d="M60.714,242.856l6.055,-0l0.041,-6.055l-6.096,0.04l-0,6.015Z" style="fill:#0060af;"/><path d="M121.428,182.142l6.096,-0l-0,-6.015l-6.096,-0.04l-0,6.055Z" style="fill:#fefeff;"/><path d="M303.57,200.348l6.096,-0l-0,-6.055l-6.096,0.081l-0,5.974Z" style="fill:#0060af;"/><path d="M303.57,352.173l-0,-6.095l-6.055,-0l0.081,6.055l5.974,0.04Z" style="fill:#0060af;"/><path d="M255.007,170.113l-0,-6.177l-6.218,0.081c0.447,1.788 0.163,4.023 0.163,5.933l6.055,0.163Z" style="fill:#0060af;"/><path d="M48.644,315.721l5.974,-0l0.041,-6.055l-6.096,-0l0.081,6.055Z" style="fill:#fefeff;"/><path d="M321.898,121.428l5.77,-0c0.447,-1.26 0.244,-4.592 0.163,-6.055l-6.055,-0l0.122,6.055Z" style="fill:#0060af;"/><path d="M42.508,309.625l6.055,0.041l-0.041,-6.096l-6.014,0.081l-0,5.974Z" style="fill:#fefeff;"/><path d="M97.126,121.387l6.096,0.041l-0,-6.055l-6.055,-0l-0.041,6.014Z" style="fill:#0060af;"/><path d="M48.644,333.927l5.974,-0l0.041,-6.055l-6.096,-0l0.081,6.055Z" style="fill:#0060af;"/><path d="M248.911,327.79l6.096,0.082l-0,-6.096l-6.055,0.04l-0.041,5.974Z" style="fill:#fefeff;"/><path d="M230.705,339.941l0.935,0.082l4.267,-0l0.894,-0.082l-0,-5.892l-6.096,-0.122l-0,6.014Z" style="fill:#fefeff;"/><path d="M36.493,315.721l6.015,-0l-0.081,-6.055l-6.015,-0l0.081,6.055Z" style="fill:#fefeff;"/><path d="M382.449,266.995c-1.869,0.406 -4.104,0.163 -6.014,0.163l-0,6.055l6.055,-0l-0.041,-6.218Z" style="fill:#0060af;"/><path d="M376.435,127.524c1.91,-0.041 4.145,-0.285 6.014,0.122l0.041,-6.218l-6.055,-0l-0,6.096Z" style="fill:#0060af;"/><path d="M267.158,18.206l6.055,0l-0,-6.055l-6.218,0.081c0.406,1.829 0.163,4.064 0.163,5.974Z" style="fill:#0060af;"/><path d="M352.295,382.409c-0.447,-1.789 -0.162,-4.064 -0.162,-5.974l-6.055,-0l-0,6.095l6.217,-0.121Z" style="fill:#0060af;"/><path d="M285.364,267.076l0.934,0.082l4.267,-0l0.894,-0.122l-0.04,-5.812l-6.055,-0.162l-0,6.014Z" style="fill:#0060af;"/><path d="M285.364,218.513l6.055,0.082l-0,-6.096l-5.974,-0l-0.081,6.014Z" style="fill:#0060af;"/><path d="M78.92,230.705l0.041,6.055l5.974,0.041l0.081,-6.015l-6.096,-0.081Z" style="fill:#fefeff;"/><path d="M60.714,163.936l6.055,-0.041l0,-5.974l-5.974,-0.04l-0.081,6.055Z" style="fill:#0060af;"/><path d="M242.856,315.721l6.014,-0l0.041,-6.055l-5.893,-0l-0.162,6.055Z" style="fill:#fefeff;"/><path d="M109.277,279.309l-6.055,0.121l-0,5.893l6.055,0l-0,-6.014Z" style="fill:#0060af;"/><path d="M176.087,346.037l5.974,0.041l0.081,-6.015l-6.055,-0.04l-0,6.014Z" style="fill:#fefeff;"/><path d="M248.952,236.76l6.014,0.041l0.041,-6.015l-6.015,-0.081l-0.04,6.055Z" style="fill:#0060af;"/><path d="M157.881,30.316l5.974,0.041l0.081,-6.015l-6.015,-0.04l-0.04,6.014Z" style="fill:#0060af;"/><path d="M194.293,346.037l5.974,0.041l0.081,-5.974l-6.015,-0.081l-0.04,6.014Z" style="fill:#0060af;"/><path d="M194.293,54.578l6.055,0.04l-0,-6.014l-5.974,-0.041l-0.081,6.015Z" style="fill:#0060af;"/><path d="M340.023,200.348l6.014,-0l0.041,-5.974l-5.974,-0.081l-0.081,6.055Z" style="fill:#0060af;"/><path d="M48.563,200.267l6.015,0.081l0.04,-6.055l-6.014,-0l-0.041,5.974Z" style="fill:#0060af;"/><path d="M48.888,145.689l5.771,0.041l-0,-5.893l-5.933,-0.081c-0,1.666 -0.244,4.429 0.162,5.933Z" style="fill:#fefeff;"/><path d="M18.206,145.73l5.852,-0l0.041,-5.974l-5.893,-0l0,5.974Z" style="fill:#fefeff;"/><path d="M30.194,133.538l-5.811,0.041l-0.041,5.933l5.934,0l-0.082,-5.974Z" style="fill:#fefeff;"/><path d="M24.342,145.648l5.852,0l0.082,-5.892l-5.852,-0l-0.082,5.892Z" style="fill:#0060af;"/><path d="M54.618,121.225l0.041,-5.852l-5.852,-0l-0.081,5.933l5.892,-0.081Z" style="fill:#fefeff;"/></svg>