<?xml version="1.0" encoding="UTF-8" standalone="no"?><!DOCTYPE svg PUBLIC "-//W3C//DTD SVG 1.1//EN" "http://www.w3.org/Graphics/SVG/1.1/DTD/svg11.dtd"><svg width="100%" height="100%" viewBox="0 0 120 121" version="1.1" xmlns="http://www.w3.org/2000/svg" xmlns:xlink="http://www.w3.org/1999/xlink" xml:space="preserve" xmlns:serif="http://www.serif.com/" style="fill-rule:evenodd;clip-rule:evenodd;stroke-linejoin:round;stroke-miterlimit:2;"><rect id="path12" x="-0" y="0" width="119.736" height="120.24" style="fill:#fff;"/><path id="path14" d="M83.721,84.073l10.788,-0.025l-0.037,10.859l-10.751,-0l-0,-10.834Zm-9.125,-25.73l1.739,0.087l0.012,-4.037l-2.786,0.062l1.035,3.888Zm-23.809,29.147l3.403,0.012l0.013,3.987l3.945,0l0.013,-3.987l7.373,-0.012l-0,-7.404l7.398,-0l-0,-3.418l-3.983,-0.012l0,-3.417l3.983,-0l-0.013,-3.975c-3.057,-0.074 -1.442,1.436 -6.029,3.9c-2.392,1.3 -5.252,1.895 -8.446,1.721l-0.567,1.783l-7.09,0l0,-3.429l-3.995,-0l0.013,3.417l3.982,0.012l0,3.43l7.361,-0.012l0.013,7.416l-3.971,0l-0.012,-3.417l-3.107,-0.012l-0.284,-0l0,3.417l-3.982,0.012l0.012,11.404l3.97,-0.012l0,7.417l-3.982,-0l-0,-3.987l-10.789,-0.025l-0,4.012l0.283,-0l3.687,0.012l0.025,3.417l-3.983,-0.012l0.013,3.999l3.945,0l0.025,-3.987l10.776,0l0,3.987l18.162,-0.012l0,-3.987l3.983,0.012l-0.012,3.987l10.801,0.013l0.012,-4l-3.995,0l-0,-7.416l-3.391,0.012l-0.024,7.404l-3.391,0l-0,-7.416l-3.983,-0.013l0,-7.404l7.386,-0l-0,-7.404l3.403,0.012l0.012,11.379l14.759,0.024l0,7.392l-3.415,0l-0,-3.987l-3.97,-0.012l0.012,11.416l3.958,-0.012l-0,-3.975l3.403,0l-0,3.987l7.398,0.013l-0,-7.417l-3.415,-0.013l-0,-3.986l3.415,-0l0.012,-10.835l-3.427,0.013l0.012,-4l3.391,-0.012l0.012,-10.822l-3.415,0l0.074,3.418l-18.816,-0l-0,-3.418l-3.403,0l-0,10.834l-3.416,0l0.013,4l-3.97,-0.013l-0.013,3.418l-3.403,-0l0.012,-3.418l-3.982,0l-0,3.418l3.97,-0l-0.012,3.999l-3.958,0l-0.012,3.418l-3.404,-0l0,-3.418l-7.373,-0.012l0,-11.404Zm-40.319,-33.072l3.403,0.013l0,3.986l-3.415,0l0.012,-3.999Zm3.403,0.013l0,-3.418l-3.415,-0.012l0.012,3.417l-3.995,0l0.025,7.429l7.373,-0.012l0,3.999l-7.398,-0.012l0.025,3.442l3.946,-0.012l0.037,3.987l-3.971,-0l-0.024,3.417l3.982,0.012l0.013,3.418l-3.971,-0l-0.012,3.974l3.958,0.013l0.025,-3.987l3.39,-0l0,3.974l3.97,0.013l0.013,-3.987l3.403,-0l-0,-3.418l3.97,-0.012l0,-3.417l3.428,-0l-0.025,3.417l7.102,-0l0.284,0.012l-0,10.847l3.982,-0.013l0,7.405l-3.699,0.012l-0.283,0l-0,3.999l7.386,-0.012l-0,-11.391l-3.404,-0.013l-0.012,-3.429l3.416,-0l-0,-4l-3.428,0.013l0.024,-3.418l3.12,-0.012l0.284,-0l-0,-7.404l4.734,-0.025c-0.666,-1.102 -1.356,-1.981 -1.825,-3.405l-2.909,0.012l-0,-7.417l-7.386,0l-0,-4.011l10.283,0.012c1.208,-3.393 4.611,-6.686 7.891,-7.924l-0.012,-2.91l3.995,-0l-0,1.795c4.636,-0.247 8.36,0.842 11.528,3.727c1.431,1.313 0.913,1.895 3.218,1.895l0.013,-3.987l3.403,-0.013l-0,-6.834l-7.386,-0l0,-3.987l10.789,-0.013l-0,-3.417l3.97,-0l0.013,-3.987l-3.971,-0l-0.012,-3.43l-3.391,0l-0.012,-3.987l3.403,0l0.012,-3.417l3.971,-0l-0,-7.417l-7.386,0l0.012,-4.012l-7.385,0.025l-0.013,7.417l10.789,-0.012l0.012,3.999l-14.204,-0.012l0.013,-3.975l-3.983,-0.012l-0,3.987l3.97,-0l0.013,7.429l-7.386,-0l-0.012,-7.442l-3.971,0.025l0.013,-3.999l3.945,0.012l0.013,-3.43l3.415,0l-0,-3.999l-3.415,0.012l-0,3.987l-11.356,0l-0,-4.012l-6.819,0.025l0.012,3.987l-3.982,0l0.012,3.43l10.764,-0.013l0.013,4l3.97,-0l0.012,3.417l-3.982,0l-0,7.417l-3.403,-0l-0,11.404l3.403,-0l0.012,3.417l-6.818,-0l-0.013,-3.417l-7.373,-0l-0,-3.987l-3.958,-0l-0.025,3.987l-3.403,-0l0,-4l-3.97,0.013l-0,3.987l3.97,-0l0,3.429l3.416,-0.012l-0.013,3.417l3.983,0l-0,-3.417l7.385,-0l-0.012,7.429l-11.356,-0.012l0,3.417l-3.415,0l0.012,-7.404l-3.97,-0.013l-0,-3.417l-3.391,0.012l-0.024,-7.416l-3.971,-0l0,7.416l-3.427,-0.012l0.024,-7.429l-3.995,0.012l0.025,10.834l11.356,0.013l-0.012,3.999l3.427,-0.012l-0.012,3.417l-7.386,0.013Zm62.464,-25.668l3.415,0l-0.012,3.987l-3.391,-0l-0.012,-3.987Zm0.012,-3.43l-0.012,3.43l-3.403,0l-0.013,-3.43l3.428,0Zm32.921,54.753l0,-3.418l3.699,-0.012l0.284,-0l-0,-7.417l-3.983,0.013l0,7.416l-3.403,0l-0.012,3.418l3.415,-0l0,11.403l3.995,0l-0.012,-11.403l-3.983,-0Zm-80.625,-36.502l-0.013,-3.417l3.983,-0l-0,3.417l-3.97,0Zm14.759,22.25l-0,3.418l-3.404,-0l0,-3.43l3.404,0.012Zm65.866,-3.999l-3.391,-0l-0.012,-3.417l-7.386,-0l0,14.833l3.428,-0.012l-0.012,-11.404l3.982,-0l-0.012,3.987l3.403,-0l0,-3.987l3.995,-0l-0.012,-10.847l-7.386,0.013l0,3.417l3.403,0l0,7.417Zm-3.403,34.78l0.012,2.279l3.391,0.012l0,-3.987l-0.283,0l-3.12,-0.012l0,1.708Zm-77.235,-27.363l3.983,-0l-0,3.987l-3.958,-0l-0.025,-3.987Zm3.983,-0l-0,-3.418l3.403,-0.012l-0,3.43l-3.403,-0Zm-0,-3.418l-3.958,0l-0.025,3.418l-3.403,-0l0,-7.417l-3.97,-0l-0,-3.417l7.373,-0l0,3.417l3.983,-0l-0,3.999Zm18.174,-33.084l3.391,-0l0.012,-3.987l-3.403,0l0,-3.43l7.386,0.013l-0.013,7.404l3.416,-0l-0.012,3.417l3.982,0l0,4l-3.97,-0l-0,3.429l-3.403,-0.012l-0.025,-3.417l-3.958,-0l-0.012,3.417l-3.391,0l0,-3.417l-3.982,-0l0.024,-3.987l3.958,-0.013l0,-3.417Zm0,-3.987l0,3.987l-3.97,-0l-0.012,-3.987l3.982,0Zm55.078,11.404l3.403,-0l0,6.834l0.284,0l3.699,0.013l-0,-6.847l-3.983,-0l0,-4l-3.378,0.013l-0.025,3.987l-7.386,-0l0,-3.987l-3.957,-0l-0.013,3.987l-10.788,-0l-0.013,3.417l-3.97,-0l0.012,3.417l0.272,0l3.699,0.013l-0.013,-3.43l3.416,-0l-0,7.417l-3.391,-0l-0.012,7.404l3.403,0l-0,-3.987l3.97,0l0.012,3.987l3.403,0.012l-0.012,-7.404l-3.391,-0.012l0,-7.417l3.416,-0l-0.013,3.417l3.97,0.013l0.013,7.392l3.403,0.024l-0,-7.416l3.97,-0.013l0,-6.834Zm-95.397,36.501l0.012,-3.429l3.391,-0l0,3.417l-0.283,0.012l-3.12,0Zm36.349,-33.084l3.97,0l0,3.43l-3.982,-0l0.012,-3.43Zm51.662,3.43l0,-3.43l3.416,0l-0,3.43l-3.416,-0Zm0,-3.43l-3.957,0l-0.013,-3.417l3.97,-0l0,3.417Zm-62.463,22.238l-0.012,-3.987l3.97,-0l0.024,3.987l-3.982,-0Zm-0.012,-3.987l-3.391,-0l-0,-3.417l3.403,-0l-0.012,3.417Zm-3.391,-3.417l-3.983,-0l0,-4l3.983,0l-0,4Zm32.933,-22.251l0,-3.417l3.403,-0l0,3.43l-3.403,-0.013Zm0,-3.417l-3.97,-0l-0,-3.987l3.97,0l0,3.987Zm-40.319,36.502l0,3.987l-3.97,0.012l-0,-3.999l3.97,-0Zm10.789,-0l3.982,-0l-0.024,3.987l-3.946,0.012l-0.012,-3.999Zm51.132,22.237l3.946,0.013l-0,-3.987l-1.406,-0.013l-1.146,-0.012l-1.406,0.025l-0.012,1.127l-0,1.139l0.024,1.708Zm22.12,14.821l3.983,0l-0,-3.987l-3.983,0l0,3.987l-3.403,0.013l0,7.404l7.373,0l0.025,-3.987l-3.995,0l0,-3.43Zm-95.397,-40.476l3.97,-0.012l0.025,7.417l-3.995,-0l0,-7.405Zm3.97,-0.012l0,-3.987l3.416,-0l0.012,3.999l-3.428,-0.012Zm0,-3.987l-3.97,-0l0,-3.417l3.983,-0l-0.013,3.417Zm18.175,-33.072l-0,4.012l3.995,-0.013l-0.025,-3.999l-3.97,0Zm-7.386,55.322l3.983,-0.012l-0,-3.987l-3.995,-0l0.012,3.999Zm11.368,-62.726l-3.97,-0l0,3.987l7.374,-0l-0,-7.429l-3.391,0.012l-0.013,3.43Zm32.934,7.404l-0,3.999l-3.983,-0.012l0,-3.987l3.983,0Zm-22.145,80.977l0,-3.43l7.373,0.013l-0.012,3.417l-7.361,0Zm-36.916,-3.43l11.356,0l0,-11.391l-0.851,-0.012l-10.221,-0l-0.284,0.012l0,11.391Zm80.638,-80.977l11.331,0.013l0.025,-11.416l-11.368,-0l0.012,11.403Zm-80.638,-11.403l0,11.416l8.237,-0l1.985,-0.013l1.134,0.013l0,-11.416l-11.356,-0Zm32.934,33.084l0.024,3.999l-3.427,-0.012l-0,-3.987l3.403,-0Zm18.729,33.072l-3.958,-0l-0,-3.418l0.283,-0.012l3.699,0.012l-0.024,3.418Zm21.59,-10.834l3.97,0.012l0.012,3.975l-3.982,0.012l-0,-3.999Zm-13.576,-3.48l6.19,0.062l0.012,3.418l3.983,-0l-0.012,7.404l10.788,-0l-0.012,-14.821l-3.391,-0l-0.012,3.974l-3.958,0.013l-0.012,-3.987c-15.388,-0 -11.899,-1.201 -13.576,3.937l0,0Zm-11.972,40.551l0.283,-0.013l3.687,0l0,2.291l0.025,1.139l-3.995,0l-0,-3.417Zm-51.12,-14.834l18.162,0l0.012,18.251l-18.187,0l0.013,-18.251Zm-3.958,22.213l26.115,0.025l-0,-26.225l-1.135,-0.012l-22.995,0.012l-1.985,0.013l-0,26.187Zm3.958,-103.19l18.174,0l0,18.251l-18.174,0l-0,-18.251Zm-3.958,22.25l26.115,-0.012l-0,-26.225l-26.127,0l0.012,26.237Zm84.608,-22.237l0.284,-0.013l17.878,0l0,18.251l-18.162,0l0,-18.238Zm-3.982,-4l-0,26.237l26.102,-0.012l0.025,-2.278l-0,-23.947l-26.127,0Z" style="fill:#4f3d8c;"/><path id="path16" d="M51.095,53.093c1.246,0.706 1.505,5.188 3.169,7.318c-0.592,-5.448 6.597,-8.11 10.024,-3.863c1.505,1.882 1.653,5.138 0.148,7.008c-1.602,1.993 -3.501,2.476 -6.744,1.944c1.948,3.194 6.633,2.08 7.903,2.439c-0.32,0.384 -0.172,0.557 -1.467,0.656c-0.542,0.05 -1.418,0.025 -1.973,-0.012c-1.109,-0.074 -2.096,-0.446 -3.008,-0.891c-0.678,-0.322 -1.887,-1.041 -2.404,-1.573l-1.209,-1.374c-0.037,-0.038 -0.098,-0.099 -0.135,-0.137c-0.087,-0.086 -0.321,-0.334 -0.407,-0.433c-0.925,-1.052 -0.518,-0.953 -1.233,-2.204c-0.518,-0.916 -0.198,-0.198 -0.666,-1.424l-1.64,-4.259c-0.999,-1.672 -1.171,-1.424 -1.825,-1.461c-5.067,13.149 8.311,20.256 16.436,14.957c6.683,-4.358 5.918,-13.57 3.354,-15.44c-0.05,0.409 -0.9,5.807 -2.281,6.154l-0.937,-0.087c0.037,-1.04 0.296,-1.56 0.37,-2.551c0.123,-1.807 0.049,-4.16 -0.333,-6.017c-0.259,-1.276 -0.728,-1.251 -0.506,-1.276c-1.48,-1.659 -5.499,-2.327 -8.249,-1.708c-2.564,0.569 -5.302,2.278 -6.387,4.234l0,0Z" style="fill:#7661a9;"/><path id="path18" d="M58.432,56.659c4.5,-2.167 7.015,5.102 2.922,6.959c-4.464,2.03 -7.164,-4.928 -2.922,-6.959Zm-4.168,3.752c0.185,1.461 0.382,2.328 1.172,3.306c0.863,1.052 1.196,0.941 2.256,1.783c3.243,0.532 5.142,0.049 6.744,-1.944c1.505,-1.87 1.357,-5.126 -0.148,-7.008c-3.427,-4.247 -10.616,-1.585 -10.024,3.863Z" style="fill:#faf9fa;"/><path id="path20" d="M58.432,56.659c-4.242,2.031 -1.542,8.989 2.922,6.959c4.093,-1.857 1.578,-9.126 -2.922,-6.959Z" style="fill:#7e65a9;"/><path id="path22" d="M49.628,54.827c0.654,0.037 0.826,-0.211 1.825,1.461l1.64,4.259c0.468,1.226 0.148,0.508 0.666,1.424c0.715,1.251 0.308,1.152 1.233,2.204c0.086,0.099 0.32,0.347 0.407,0.433c0.037,0.038 0.098,0.099 0.135,0.137l1.209,1.374c0.517,0.532 1.726,1.251 2.404,1.572c0.912,0.446 1.899,0.818 3.008,0.892c0.555,0.037 1.431,0.062 1.973,0.012c1.295,-0.099 1.147,-0.272 1.467,-0.656c-1.27,-0.359 -5.955,0.755 -7.903,-2.439c-1.06,-0.842 -1.393,-0.731 -2.256,-1.783c-0.79,-0.978 -0.987,-1.845 -1.172,-3.306c-1.664,-2.13 -1.923,-6.612 -3.169,-7.318c-0.998,0.743 -0.715,1.065 -1.467,1.734l0,-0Z" style="fill:#5d4b94;"/><path id="path24" d="M69.418,54.344c-0.124,-0.78 -0.876,-1.585 -1.381,-2.13c-0.407,-0.433 -0.58,-0.582 -1.036,-0.966c-0.949,-0.78 -0.222,-0.532 -1.27,-0.681c-0.222,0.025 0.247,0 0.506,1.276c0.382,1.857 0.456,4.21 0.333,6.017c-0.074,0.991 -0.333,1.511 -0.37,2.551l0.937,0.087c1.381,-0.347 2.231,-5.746 2.281,-6.154l-0,-0Z" style="fill:#6552a3;"/></svg>