<?xml version="1.0" encoding="UTF-8" standalone="no"?><!DOCTYPE svg PUBLIC "-//W3C//DTD SVG 1.1//EN" "http://www.w3.org/Graphics/SVG/1.1/DTD/svg11.dtd"><svg width="100%" height="100%" viewBox="0 0 120 121" version="1.1" xmlns="http://www.w3.org/2000/svg" xmlns:xlink="http://www.w3.org/1999/xlink" xml:space="preserve" xmlns:serif="http://www.serif.com/" style="fill-rule:evenodd;clip-rule:evenodd;stroke-linejoin:round;stroke-miterlimit:2;"><path id="path26" d="M103.572,110.508l6.461,-0.012l-0,3.231l-6.474,0.013l0.013,-3.232Zm-22.663,-0.012l9.716,-0l-0.012,3.244l-9.704,-0l0,-3.244Zm-42.07,0.012l0.198,-0.012l3.045,-0l-0.012,3.244l-3.231,-0l0,-3.232Zm-32.366,-19.303l0.013,-0.211l22.637,0l0,22.746l-22.699,-0l0.049,-22.535Zm97.099,19.303l-3.243,-0l-0.012,-3.257l3.242,-0.024l0.013,3.281Zm-9.716,-3.269l3.218,0l0.012,3.257l-3.206,-0l-0.024,-3.257Zm-22.663,-16.22l3.243,-0.025l0,3.244l-3.23,0l-0.013,-3.219Zm-6.461,-3.269l3.231,0l-0,6.488l-3.231,0l0,-6.488Zm-9.716,3.219c0.136,0.087 0.013,-0.049 0.074,0.124l0.013,3.071l3.144,-0l0.012,-3.17l3.231,0l-0,9.707l3.242,0.013c0.087,0.371 0.087,6.327 -0.024,6.537l-9.667,0.013l-0,3.207l2.417,-0c0.209,-0 0.641,-0.075 0.789,0.086l0.012,3.17l-3.243,0.012l0,-3.194l-6.436,-0.012l-0.062,3.206l-3.205,0c-0,-0.52 0.061,-2.959 -0.037,-3.244l-3.206,0l-0,-9.744l-6.436,-0.012l-0.037,3.256l3.242,0l0,3.244l-6.473,0l0,-9.732l3.231,-0.012l-0,-3.244l9.716,-0l-0,3.244l3.23,-0l0,-3.22l-3.23,-0.037l-0,-3.244c0.863,-0.012 9.21,0.074 9.703,-0.025l0,0Zm-6.473,-6.451l9.704,-0.024l0.012,3.244l-9.704,0.012l-0.012,-3.232Zm-38.827,-9.769l0,13.001l-3.218,0l-0.025,-13.001l3.243,0Zm58.247,6.501l3.218,-0l0.025,-3.232l9.691,-0.025l0.012,6.488l-3.218,0.013l-0.024,3.231l-3.219,0.025l-0.012,-3.256l-6.473,-0l-0,-3.244Zm-0,-0l-3.231,-0l0,3.219l-3.242,0.025l-0,-3.244l-3.219,-0l-0.012,-3.257l9.679,0l0.025,3.257Zm-22.65,-3.257l6.448,0l0.025,3.244l-6.461,0.013l-0.012,-3.257Zm61.489,-3.244l0,6.488l3.231,0.013l-0,6.5l3.242,0l-0.012,3.244l-3.218,0l-0.012,3.256l3.205,0c0.074,0.261 0.062,6.278 0,6.489l-3.205,-0l-0,3.244l-3.231,0.012l0,-6.5l-6.473,-0l-0,3.244l3.218,-0l0.012,3.244l-6.46,0.012l-0.013,-3.256l-6.448,-0l-0.025,3.256l3.243,-0l-0,3.244l-6.474,-0l0,-3.219l-3.242,-0.025l-0,3.244l-6.461,0l-0.013,6.501l-16.176,-0l-0,-3.232l9.703,-0.013l0.013,-6.475c-0.506,-0.124 -2.553,-0.013 -3.231,-0.025l-0.012,-6.5l12.946,-0l0,-3.232l-3.218,-0.025l-0.025,-3.219l6.474,-0.025l-0,-9.732l3.242,-0.012l0,3.244c0.839,-0 6.116,0.062 6.474,-0.025l-0,-3.219l6.473,-0l-0,-3.244l3.23,-0.013l0,-3.244l-6.473,0l0,-3.256l3.243,-0l-0,-3.232l3.23,-0.012l0,-3.257l9.704,0l0,13.001l-3.23,0l-0,-3.231l-3.231,-0.013Zm3.231,-16.245l3.23,-0.012l0,3.256l-3.23,0l-0,-3.244Zm-77.667,-6.5l3.231,-0l-0,3.231l-3.231,0.013l0,-3.244Zm-6.51,9.744c0.049,-0.619 -0.025,-2.786 0.012,-3.083l0.05,-0.173l3.205,-0l0.013,-3.244l3.23,-0l0,3.231l3.231,0.025l-0,3.244l6.473,0l-0,3.232l-3.231,0.025l0,6.488l-6.46,-0l-0.013,3.231l3.231,0.025l-0,3.244l3.242,0l0,-3.232l3.231,-0.012l-0,9.72l-3.218,0.025l-0.013,6.5l-6.473,0l0,-6.5l-3.23,-0l-0.013,3.244l-12.922,0.012l-0.024,-6.5l-3.218,-0l-0.013,-6.488l-3.23,-0.013l-0.012,-9.744l-3.206,-0.013l-0.025,-3.244l3.23,0l0.013,-9.744l3.23,-0.013l0,-3.244l3.231,0l0.012,6.501l-3.218,-0l-0.111,3.244l9.802,-0l0,3.256l3.194,0Zm42.316,-7.677c0.062,0.149 0.173,0.174 0.309,0.261c0.345,0.21 0.678,0.544 0.937,0.879c0.333,0.433 0.579,1.077 0.69,1.745c0.21,1.35 -0.123,3.034 -0.567,4.173c-0.888,2.316 -2.54,3.838 -5.4,4.284c-3.773,0.582 -2.947,-1.461 -4.069,5.646c-0.136,0.818 -0.284,1.263 -1.159,1.263c-0.802,0.013 -1.616,0 -2.417,0c-0.678,0 -1.837,0.223 -1.924,-0.483c-0.049,-0.396 0.259,-1.696 0.296,-2.228c-0.357,0.049 -4.636,0.086 -4.895,-0.037c-0.431,-0.186 -0.419,-0.582 -0.345,-1.09c0.296,-1.87 0.58,-3.727 0.888,-5.621c0.592,-3.74 1.184,-7.479 1.763,-11.231c0.136,-0.879 0.247,-1.956 0.444,-2.823c0.234,-1.089 1.27,-0.904 2.33,-0.904c2.158,0 4.328,-0.025 6.486,0c2.774,0.025 5.511,0.694 6.461,3.306c0.382,1.053 0.209,1.734 0.172,2.86l0,0Zm41.861,-2.067l-0,-3.257l3.242,0l-0.012,3.244l-3.23,0.013Zm-12.922,3.244l-0.025,3.244l6.461,-0l0.012,-3.244l-3.23,-0l-0,-3.257l3.23,0l0,-3.244l3.231,0l0.012,3.232l3.231,0.025l-0,6.5l-3.231,0l0,3.244l-12.909,0c0.111,0.372 0.037,10.314 0.037,12.63l-0,0.21c-0.062,0.31 -0,0.087 -0.087,0.186c-0.702,-0.124 -2.416,-0.025 -3.23,-0.025l-3.193,0c-0.037,0.619 0.074,2.873 -0.05,3.256l-3.082,0.013c-0.148,-0.037 -0.062,0.025 -0.136,-0.099l-0.012,-3.158l3.218,-0.012l0.012,-3.232l-6.461,0l0,3.22l-3.23,0.012l-0.012,-9.72l3.218,-0.012l-0,-0.037l0.024,-6.476l-3.23,-0.012l-0.012,-9.732l3.242,-0.013l0,-3.244l3.231,0l0.012,-3.244l3.206,-0.012l0.025,3.256l3.23,0l0,3.244l6.449,0l0.024,3.244l-3.156,0.025l-0,3.157l2.787,0c0.221,0 0.283,0 0.394,0.075l-0,-0Zm-87.395,-3.244l-3.243,-0.013l-0.049,-3.244l3.292,0l0,3.257Zm25.881,-6.501l6.473,0l-0,12.976l-3.218,0.013l-0.013,-9.745l-3.205,0c-0.099,-0.359 -0.037,-2.699 -0.037,-3.244l-0,0Zm71.205,-3.207l-0.012,3.207l-6.461,0l-0,-9.757l3.23,0l0.013,-3.244l9.691,0l0,6.501l-3.218,-0.025l-0.012,3.281l-3.231,0.037Zm-100.341,-6.55l3.255,0l-0.012,3.257l-3.231,-0l-0.012,-3.257Zm29.136,-13.001l-0,13.001l-3.231,-0.012l0,-12.989l3.231,0Zm-0,22.758l-3.231,0.013l0,6.488l-3.23,-0l-0.013,3.244l-6.461,-0l0,-3.244l-3.242,-0.013l-0,-6.488l-9.704,-0.025l-0,-3.231l3.23,-0.013l0.013,-3.231l3.23,-0l0,-3.257l-3.243,0l0.05,-3.244l9.654,0l0.025,3.244l3.218,0l0.012,-3.244l3.218,0l0,3.244l-3.23,0l-0,3.257l3.23,-0l-0.012,3.244l3.255,-0l0,-3.244l3.231,0.012l-0,6.488Zm55.016,-39.003l22.65,0l0.012,22.535l-0.012,0.211l-22.65,-0l-0,-22.746Zm-84.127,0l22.44,0l0.197,0.013l0,22.733l-22.637,-0l-0.013,-0.211l0.013,-22.535Zm32.353,16.245l-3.242,0l0.012,-3.244l3.23,0l0,3.244Zm22.651,0l6.473,0l-0,6.501l3.206,0.012l0.037,-3.281l3.23,-0.012l0.012,-6.414c0.074,-0.062 0.025,-0.05 0.148,-0.062l3.058,0l-0.024,-3.244l-3.194,0l0,-3.244l3.194,-0l0.037,-3.269l3.267,0l-0.025,-3.231l6.449,-0l0.049,0.383c-0.012,2.031 0.074,12.097 -0.025,12.642l-9.691,0l0,6.451l3.218,-0.012l0,-3.219l6.473,0.024l-0.012,6.476l-3.181,0.025l-0.062,-0l0.013,3.231l12.946,0l-0.012,3.244l-3.218,0l-0,3.257l3.23,-0l-0.012,3.244l-3.218,-0.013l-0.013,-3.231l-6.461,-0l0,-3.257l-3.242,0.013l-0,3.244l-6.461,-0l-0.013,3.244l3.243,-0l0,3.256l-3.243,-0.025l0,-3.231l-3.23,-0l-0.012,-3.244l-6.461,-0l0.012,3.244l-3.243,-0l-0.012,-3.244l-3.23,-0.013l-0.013,3.257l-9.691,-0l0.012,-9.72l-3.23,-0.012l0.012,2.922c-0.012,0.359 -0.049,0.272 -0.099,0.309l-6.362,0l-0.037,6.513l-2.934,0.025c-0.358,-0 -0.284,-0.037 -0.309,-0.087l0.013,-6.376c0.135,-0.161 0.567,-0.087 0.776,-0.087l2.429,-0l0.013,-3.219c0.333,-0.124 5.622,-0.05 6.448,-0.05l0,-3.219l-3.205,-0l-0,-3.219l-3.206,-0l-0.013,3.12c-0.024,0.124 0,0.037 -0.061,0.111l-3.194,-0.012l0,-6.501l6.474,0l-0,3.22l3.255,0.037l0.012,3.244l3.206,-0l-0.013,-3.232c0.222,-0.124 2.935,-0.049 3.206,-0.049l0,-3.108c0.025,-0.112 0.037,-0.075 0.062,-0.124l3.218,0.012l0,-3.244l-6.473,0l-0,3.244l-3.243,-0.024l0,-3.22l-3.23,0l0.012,-9.744l9.679,-0.025l0.025,-3.232l9.703,0.025l0.025,6.476l3.206,-0l-0,3.244l3.243,0.025l-0.013,3.231l-6.461,-0.024l-0.012,-3.232l-6.461,-0l-0.012,3.256l3.206,0c0.098,0.31 0.037,2.724 0.037,3.244l-0,0Zm-29.124,-16.245l9.704,0.025l-0,9.708l-3.231,-0l0,-3.232l-3.242,-0l-0,3.232l-3.231,-0l0,-9.733Zm-32.366,113.74l119.736,0l0,-120.24l-119.736,0l-0,120.24Z" style="fill:#fff;"/><path id="path28" d="M80.909,97.495l3.231,-0c-0,0.532 0.074,2.922 -0.037,3.244l-3.194,-0l-0.012,3.256l-6.461,0l0.025,-3.256l6.448,-0l0,-3.244Zm6.461,-9.745l9.716,0l0,9.745l-9.703,-0l-0,-0.211l-0.013,-9.534Zm16.202,-3.256l3.23,-0l-0.012,6.5l-3.231,0l-0.024,3.257l-3.206,-0.013l0.012,-6.488l3.218,-0.025l0.013,-3.231Zm-22.663,13.001l-12.946,-0l0.012,6.5c0.678,0.012 2.725,-0.099 3.231,0.025l-0.013,6.475l-9.703,0.013l-0,3.231l16.177,0l0.012,-6.5l6.461,-0l-0,-3.244l3.243,0.025l-0,3.219l6.473,-0l-0,-3.244l-3.243,-0l0.025,-3.257l6.448,0l0.013,3.257l6.461,-0.012l-0.013,-3.245l-3.218,0l0,-3.244l6.473,0l0,6.501l3.231,-0.012l-0,-3.244l3.206,-0c0.061,-0.211 0.074,-6.229 -0,-6.489l-3.206,0l0.012,-3.256l3.218,0l0.013,-3.244l-3.243,-0l-0,-6.5l-3.231,-0.013l0,-6.488l-3.242,0l-0,3.244l-3.231,0.012l0,3.245l-6.473,-0l-0,3.219c-0.358,0.086 -5.635,0.025 -6.473,0.025l-0,-3.244l-3.243,0.012l-0,9.732l-6.473,0.025l0.024,3.219l3.218,0.025l0,3.232Z" style="fill:#003087;"/><path id="path30" d="M48.518,113.74c0,-0.52 -0.061,-2.935 0.037,-3.257l6.437,0l0.012,-3.269l9.704,0l-0,-6.451l-3.218,0.013l-0.037,3.219l-9.667,0l-0,3.244l-6.473,0l-0,-3.244l3.181,0l0.049,-3.244c0.506,-0.124 2.577,-0.037 3.243,-0.037c1.368,-0 9.05,0.062 9.704,-0.013l-0,-9.707l-3.231,0l-0.012,3.17c-0.111,0.148 -0.395,0.087 -0.789,0.087l-2.442,-0l0,3.206c-0.32,0.099 -2.7,0.038 -3.23,0.038c-0.012,-0.57 -0.074,-2.861 0.025,-3.257l3.205,0l0,-3.269c-0.493,0.099 -8.84,0.013 -9.703,0.025l-0,3.244l3.23,0.037l0,3.22l-3.23,-0l-0,-3.244l-9.716,-0l-0,3.244l-3.231,0.012l0,9.732l6.473,0l0,-3.244l-3.242,-0l0.037,-3.256l6.436,0.012l-0,9.744l3.206,0c0.098,0.285 0.037,2.724 0.037,3.244l3.205,0.001Z" style="fill:#003087;"/><path id="path32" d="M16.177,81.25l0.025,-3.257l3.218,0.013l0.012,3.244l3.231,-0l-0,3.244c-0.543,-0 -2.923,0.074 -3.243,-0.038l-0,-3.206l-3.243,-0Zm-6.461,-29.246l-0.012,9.744l9.716,0.013l-0.013,3.231l-3.218,0.013l0.013,3.244l-3.256,-0l0,-3.257l-3.242,0.013l0.012,9.744l3.23,0.012l0.013,6.488l3.218,0l0.025,6.501l12.921,-0.012l0.013,-3.244c-0.604,0.012 -2.811,0.074 -3.243,-0.025l0,-3.22l3.243,0l-0.013,-3.219l-3.23,-0.025c-0.099,-0.297 -0.062,-2.785 -0.037,-3.256l-9.667,-0.012l0,-3.244l6.461,-0l0.013,-6.464c0.111,-0.074 0.036,-0.062 0.369,-0.049l2.836,-0l-0.012,-3.232l-3.193,0l-0,-3.256l-9.803,-0l0.111,-3.244l3.218,-0l-0.012,-6.501l-3.231,0l0,3.244l-3.23,0.013Z" style="fill:#003087;"/><path id="path34" d="M67.975,32.502l9.692,0.025l-0,3.219l-9.704,0l0.012,-3.244Zm-6.485,-6.537l3.242,0.024c0.087,0.397 0.013,7.85 0.025,9.237c0,0.545 0.037,0.471 -0.099,0.533l-3.168,-0l-0,3.231l3.23,0.013l0.012,3.244l3.243,-0l-0.012,-3.244l6.461,-0l0.012,3.244l3.231,-0l-0,3.231l3.242,0.025l0,-3.256l-3.242,-0l0.012,-3.244l6.461,-0l-0,-3.244l3.243,-0.013l-0,3.257l6.46,-0l0.013,3.231l3.218,0.013l0.012,-3.244l-3.23,-0l-0,-3.257l3.218,0l0.012,-3.244l-12.946,0l-0.013,-3.231l-3.218,-0.025l0,-3.207l-3.205,0l-0.013,3.095c-0.037,0.149 0.013,0.025 -0.061,0.112l-3.194,-0l0,-3.219l-3.193,0.012l-0.013,3.095c-0.037,0.137 0,0.05 -0.061,0.124l-3.206,-0.012l-0,-6.501l-6.473,0l-0,3.22Z" style="fill:#003087;"/><path id="path36" d="M25.918,58.492l0.012,3.256l6.375,0c0.086,0.075 0.086,0.013 0.086,0.359c-0.012,0.718 0.025,2.415 -0.025,2.873c-0.32,0.136 -5.622,0.049 -6.448,0.049l-0,3.22l3.205,-0l0.013,3.219c-0.087,0.062 0.086,0.025 -0.161,0.062l-3.045,-0l-0.012,3.219l3.218,0l-0,3.207c0.481,-0.025 2.947,-0.087 3.255,0.049l-0,3.232l1.677,0c0.246,0 1.455,-0.124 1.529,0.062l-0,3.195l-3.231,-0l0,6.5l6.473,0l0.013,-6.5l3.218,-0.025l-0,-9.72l-3.231,0.012l0,3.232l-3.242,-0l-0,-3.244l-3.231,-0.025l0.013,-3.231l6.46,-0l0,-6.488l3.231,-0.025l-0,-3.232l-6.473,0l-0,-3.244l-3.231,-0.025l0,-3.231l-3.23,-0l-0.013,3.244l-3.205,-0Z" style="fill:#003087;"/><path id="path38" d="M25.696,94.436c0.123,0.186 0.049,3.789 0.049,3.975c-0,1.151 0.062,11.267 -0.012,11.911c-0.444,0.124 -3.293,0.037 -3.983,0.037c-1.023,0 -11.393,0.05 -11.886,-0.024c-0.074,-0.533 -0.012,-1.449 -0.012,-2.031c-0,-1.709 -0.074,-13.509 0.024,-13.905c0.604,-0.062 15.733,0 15.758,0c0.012,0.012 0.025,0.037 0.037,0.025c0,-0.013 0.025,0.012 0.025,0.012l-0,0Zm-19.272,19.304l22.699,-0l0,-22.746l-22.637,0l-0.013,0.211l-0.049,22.535Z" style="fill:#003087;"/><path id="path40" d="M94.041,25.804c-0.013,-0.037 -0.025,-0 -0.037,-0.099l-0.013,-3.876c0,-1.151 -0.049,-11.267 0.013,-11.911c0.456,-0.124 3.304,-0.037 3.995,-0.037c1.023,-0 11.393,-0.037 11.886,0.025c0.061,0.544 0.012,1.448 0.012,2.03c0,1.721 0.074,13.521 -0.037,13.905c-0.579,0.062 -1.393,0.012 -2.01,0.012c-4.414,0 -8.976,-0.037 -13.39,0c-0.284,0 -0.296,0.037 -0.419,-0.049l-0,-0Zm-3.428,3.442l22.65,-0l0.012,-0.211l-0.012,-22.535l-22.65,0l-0,22.746Z" style="fill:#003087;"/><path id="path42" d="M25.696,25.804c-0.025,0.024 -0,0.024 -0.099,0.049l-3.847,0c-1.171,0 -11.208,0.062 -11.874,-0.012c-0.123,-0.458 -0.024,-3.306 -0.024,-4.012c-0,-1.015 -0.05,-11.428 0.012,-11.924c0.542,-0.074 1.455,-0.024 2.022,-0.024c1.714,-0 13.464,-0.062 13.847,0.037c0.061,0.594 0.012,15.799 -0,15.824l-0.037,0.062Zm-19.223,3.231l0.013,0.211l22.637,-0l0,-22.733l-0.197,-0.013l-22.44,0l-0.013,22.535Z" style="fill:#003087;"/><path id="path44" d="M22.662,52.004l0,-9.757c0.913,-0.013 5.981,-0.099 6.474,0.037l-0,3.207l-3.243,0.012l-0,3.232l3.243,0.012l-0,3.257l3.23,-0l0,-6.488l3.231,-0.013l-0,-6.488l-3.231,-0.012l0,3.244l-3.255,-0l0.012,-3.244l-3.23,-0l-0,-3.257l3.23,0l0,-3.244l-3.218,0l-0.012,3.244l-3.218,0l-0.025,-3.244l-9.654,0l-0.05,3.244l3.243,0l0,3.257l-3.23,-0l-0.013,3.231l-3.23,0.013l0,3.231l9.704,0.025l-0,6.488l3.242,0.013Z" style="fill:#003087;"/><path id="path46" d="M48.555,16.245l3.231,0.012l-0,3.244l-3.243,0l0.012,-3.256Zm6.449,-6.513l3.267,0.012l-0.012,3.269l-3.255,-0.012l0,-3.269Zm0,0l-9.679,0.025l-0.012,9.744l3.23,0l0,3.22l3.243,0.025l-0,-3.245l6.473,0l0,3.245l3.231,-0c-0,-0.52 0.061,-2.935 -0.037,-3.245l-3.206,0l0.012,-3.256l6.461,0l0.012,3.232l6.461,0.025l0.013,-3.232l-3.243,-0.025l-0,-3.244l-3.206,0l-0.025,-6.476l-9.703,-0.024l-0.025,3.231Z" style="fill:#003087;"/><path id="path48" d="M54.868,69.611c0.136,-0.458 0.222,-1.325 0.309,-1.845c0.086,-0.632 0.197,-1.276 0.296,-1.907c0.135,-0.904 0.382,-3.12 0.665,-3.801c-0.111,-0.174 0.259,-2.056 0.296,-2.266l0.728,-4.656c0.333,-2.191 0.382,-1.795 3.625,-1.795c1.788,-0 4.71,-0.124 6.325,0.371c0.407,0.124 0.691,0.285 1.036,0.384l0.024,-0.024c0.037,-1.127 0.21,-1.808 -0.172,-2.861c-0.95,-2.612 -3.687,-3.281 -6.461,-3.306c-2.158,-0.024 -4.328,0 -6.486,0c-1.06,0 -2.096,-0.185 -2.33,0.904c-0.197,0.867 -0.308,1.944 -0.444,2.823c-0.579,3.752 -1.171,7.491 -1.763,11.231c-0.308,1.894 -0.592,3.751 -0.888,5.621c-0.074,0.508 -0.086,0.904 0.345,1.09c0.259,0.123 4.538,0.086 4.895,0.037l0,-0Z" style="fill:#003087;"/><path id="path50" d="M97.086,13.001l9.716,-0l-0.012,9.744l-9.704,0l0,-9.744Zm-3.045,12.803l15.807,-0.013l-0,-15.861l-15.795,0.013l-0.012,15.861Z" style="fill:#fdfefe;"/><path id="path52" d="M12.946,97.495l-0.086,-0l9.802,-0l-0.012,9.744l-9.704,0l0,-9.744Zm12.75,-3.059l-15.795,0.013l-0,15.861l15.782,-0l0.013,-15.874Z" style="fill:#fdfefe;"/><path id="path54" d="M12.909,13.001l9.753,-0l0.025,9.744l-9.741,0l-0.037,-9.744Zm12.787,12.803l-0.013,-15.861l-15.782,-0l-0,15.848l15.795,0.013Z" style="fill:#fdfefe;"/><path id="path56" d="M87.383,48.747l3.23,0l-0,3.257l-3.23,-0l-0,-3.257Zm-6.474,-3.244l0,3.244l-3.242,0.013l0.012,9.732l3.23,0.012l0,-6.513l3.243,0l-0.012,3.244l9.716,0.013l-0,-3.083c0.037,-0.161 -0.025,-0.05 0.074,-0.149l3.156,-0.025l-0.025,-3.244l-6.448,0l-0,-3.244l-3.231,0l-0.024,-3.256l-3.206,0.012l-0.012,3.244l-3.231,0Z" style="fill:#003087;"/><path id="path58" d="M97.111,55.248l-3.255,-0l-0,3.256c-0,0.632 -0.087,2.786 0.037,3.244l12.909,0l0,-3.244l3.231,0l-0,-6.5l-3.231,-0.025l-0.012,-3.232l-3.231,0l0,3.244l-3.23,0l0,3.257l3.23,-0l-0.012,3.244l-6.461,-0l0.025,-3.244Z" style="fill:#003087;"/><path id="path60" d="M103.559,74.749c0,-0.582 -0.074,-2.86 0.037,-3.256l3.206,-0l0,-3.244l3.231,0.012l-0.013,3.232l-3.218,0.012l0,3.244l3.231,0.012l-0,3.232l3.23,0l0,-13.001l-9.704,0l0,3.257l-3.23,0.012l0,3.232l-3.243,-0l0,3.256l6.473,0Z" style="fill:#003087;"/><path id="path62" d="M56.138,62.058c-0.283,0.681 -0.53,2.897 -0.665,3.801c-0.099,0.631 -0.21,1.275 -0.296,1.907c-0.087,0.52 -0.173,1.387 -0.309,1.845c-0.037,0.532 -0.345,1.832 -0.296,2.228c0.087,0.706 1.246,0.483 1.924,0.483c0.801,0 1.615,0.013 2.417,0c0.875,0 1.023,-0.445 1.159,-1.263c1.122,-7.107 0.296,-5.064 4.069,-5.646c2.86,-0.446 4.512,-1.968 5.4,-4.284c0.444,-1.139 0.777,-2.823 0.567,-4.173c-0.111,-0.668 -0.357,-1.312 -0.69,-1.745c-0.259,-0.335 -0.592,-0.669 -0.937,-0.879c-0.136,-0.087 -0.247,-0.112 -0.309,-0.261l-0.024,0.025c-0.53,3.034 -1.739,5.077 -3.786,6.228c-2.059,1.164 -3.994,1.152 -6.362,1.152c-0.937,-0 -1.455,-0.099 -1.862,0.582l0,-0Z" style="fill:#009cde;"/><path id="path64" d="M48.58,29.246l0,3.219l2.885,-0.012c0.062,-0 0.161,-0 0.21,0.012c0.123,0.025 0.062,0.025 0.123,0.062l-0.012,9.72l9.691,-0l0.013,-3.257l-3.231,0.013l0,-3.257l-3.243,-0.012l0.013,-3.232l3.23,-0.024l0,-3.232l-3.193,0.012c-0.074,-0.086 -0.037,0.087 -0.074,-0.161l-0,-3.083l-3.218,0l0.012,3.232l-3.206,-0Z" style="fill:#003087;"/><path id="path66" d="M12.946,22.745l9.741,0l-0.025,-9.744l-9.753,-0l0.037,9.744Z" style="fill:#003087;"/><path id="path68" d="M12.946,107.239l9.704,0l0.013,-9.744l-9.803,-0l0.086,-0l0,9.744Z" style="fill:#003087;"/><path id="path70" d="M97.086,22.745l9.704,0l0.012,-9.744l-9.716,-0l0,9.744Z" style="fill:#003087;"/><path id="path72" d="M90.625,90.994l3.231,0.025l-0.013,3.219l-3.23,0l0.012,-3.244Zm-3.242,6.29l-0,0.211l9.703,-0l0,-9.745l-9.716,0l0.013,9.534Z" style="fill:#fdfefe;"/><path id="path74" d="M67.963,81.25l-0,3.244l6.473,-0l0.012,3.256l3.219,-0.025l0.024,-3.231l3.218,-0.013l-0.012,-6.488l-9.691,0.025l-0.025,3.232l-3.218,-0Z" style="fill:#003087;"/><path id="path76" d="M32.366,16.233l3.231,-0l-0,-3.232l3.242,-0l0,3.232l3.231,-0l-0,-9.708l-9.704,-0.024l0,9.732Z" style="fill:#003087;"/><path id="path78" d="M80.934,9.732l3.206,0.012l-0.013,3.257l-3.205,0.012l-0.013,3.232l-3.206,-0l0,3.219l9.655,0l-0,-12.964l-6.449,0l0.025,3.232Z" style="fill:#003087;"/><path id="path80" d="M56.138,62.058c0.407,-0.681 0.925,-0.582 1.862,-0.582c2.368,-0 4.303,0.012 6.362,-1.152c2.047,-1.151 3.256,-3.194 3.786,-6.228c-0.345,-0.099 -0.629,-0.26 -1.036,-0.384c-1.615,-0.495 -4.537,-0.371 -6.325,-0.371c-3.243,-0 -3.292,-0.396 -3.625,1.795l-0.728,4.656c-0.037,0.21 -0.407,2.092 -0.296,2.266Z" style="fill:#012169;"/><path id="path82" d="M80.909,58.504l3.231,-0.012l0.012,3.194l3.255,0.038l-0.024,-3.232l3.23,-0l-0,3.256l3.23,0l0,13.026c0.087,-0.099 0.025,0.124 0.087,-0.186l-0,-0.21c-0,-2.316 0.074,-12.258 -0.037,-12.63c-0.124,-0.458 -0.037,-2.612 -0.037,-3.244l-0,-3.256l3.255,-0c-0.111,-0.075 -0.173,-0.075 -0.395,-0.075l-2.786,0l-0,-3.157c-0.099,0.099 -0.037,-0.012 -0.074,0.149l-0,3.083l-9.716,-0.013l0.012,-3.244l-3.243,0l0,6.513Z" style="fill:#fdfefe;"/><path id="path84" d="M58.259,29.246l0,3.232l-3.23,0.024l-0.013,3.232l3.243,0.012l0,3.257l3.231,-0.013l-0,-3.231l3.168,-0c0.124,-0.372 0.05,-4.185 0.05,-4.891l-0,-4.841l-3.218,0.012l-0.013,3.207l-3.218,-0Z" style="fill:#fdfefe;"/><path id="path86" d="M25.856,74.749l0.025,-3.256l3.255,-0.025l-0.013,-3.219l-3.205,-0c-0,-0.013 -0.013,-0.025 -0.025,-0.037c-0,-0.013 -0.012,-0.025 -0.012,-0.038l-0.013,-3.145l-3.206,0l-0.012,6.464l-6.461,-0l0,3.244l9.667,0.012Z" style="fill:#fdfefe;"/><path id="path88" d="M48.494,103.995l-3.181,0l-0,3.244l6.473,0l-0,-3.244l9.667,0l0.037,-3.219l-12.91,-0.013l0,3.083c-0.025,0.137 -0.012,0.075 -0.086,0.149l-0,0Z" style="fill:#fdfefe;"/><path id="path90" d="M90.625,64.98c-0.234,0.136 -2.848,0.062 -3.205,0.062l-0,3.207l3.193,-0l0.012,3.231c-0.135,0.075 -0.172,0.05 -0.394,0.05l-2.811,-0l-0,3.219l3.193,0c0.814,0 2.528,-0.099 3.23,0.025l0,-13.026l-3.23,0l0.012,3.232Z" style="fill:#003087;"/><path id="path92" d="M22.662,52.004l6.474,-0l-0,-3.257l-3.243,-0.012l-0,-3.232l3.243,-0.012l-0,-3.207c-0.493,-0.136 -5.561,-0.049 -6.474,-0.037l0,9.757Z" style="fill:#fdfefe;"/><path id="path94" d="M35.597,45.503c-0,0.545 -0.062,2.885 0.037,3.244l3.205,0l0.013,9.745l3.218,-0.013l-0,-12.976l-6.473,0Z" style="fill:#003087;"/><path id="path96" d="M80.909,71.517c0.013,0 0.025,-0.012 0.037,-0.012c0.013,-0.012 0.025,-0.012 0.037,-0.025c0.173,-0.037 -0.086,0.013 0.099,-0.012l6.276,-0l-0,-3.219l-6.449,-0l-0.024,-3.232l-3.219,0.012l0.013,9.72l3.23,-0.012l0,-3.22Z" style="fill:#003087;"/><path id="path98" d="M9.704,65.005l3.242,-0.013l0,3.257l3.256,-0l-0.013,-3.244l3.218,-0.013l0.013,-3.231l-9.716,-0.013l-0,3.257Z" style="fill:#fdfefe;"/><path id="path100" d="M103.559,35.746l6.474,0.025l0.012,3.207l3.218,0.025l0,-6.501l-9.691,0l-0.013,3.244Z" style="fill:#003087;"/><path id="path102" d="M35.597,22.745l-3.231,0l0,12.989l3.231,0.012l-0,-13.001Z" style="fill:#003087;"/><path id="path104" d="M67.963,81.25l-0.025,-3.257l-9.679,0l0.012,3.257l3.219,-0l-0,3.244l3.242,-0.025l0,-3.219l3.231,-0Z" style="fill:#003087;"/><path id="path106" d="M103.559,87.725l-3.218,0.025l-0.012,6.488l3.206,0.013l0.024,-3.257l3.231,0l0.012,-6.5l-3.23,-0l-0.013,3.231Z" style="fill:#fdfefe;"/><path id="path108" d="M9.716,74.749l-3.243,0l0.025,13.001l3.218,0l0,-13.001Z" style="fill:#003087;"/><path id="path110" d="M106.802,42.296l-3.132,0.013c-0.148,-0.037 -0.074,-0.013 -0.135,-0.075l0.024,-6.488l-3.23,0l0,9.757l6.461,0l0.012,-3.207Z" style="fill:#003087;"/><path id="path112" d="M80.909,97.495l0,3.244l-6.448,-0l-0.025,3.256l6.461,0l0.012,-3.256l3.194,-0c0.111,-0.322 0.037,-2.712 0.037,-3.244l-3.231,-0Z" style="fill:#fdfefe;"/><path id="path114" d="M80.909,113.74l9.704,-0l0.012,-3.244l-9.716,-0l0,3.244Z" style="fill:#003087;"/><path id="path116" d="M103.535,42.234l3.243,0l-0,-3.244l3.267,-0.012l-0.012,-3.207l-6.474,-0.025l-0.024,6.488Z" style="fill:#fdfefe;"/><path id="path118" d="M67.963,35.746l9.704,0l-0,-3.219l-9.692,-0.025l-0.012,3.244Z" style="fill:#fdfefe;"/><path id="path120" d="M48.555,87.75l9.704,-0.012l-0.012,-3.244l-9.704,0.024l0.012,3.232Z" style="fill:#003087;"/><path id="path122" d="M80.885,64.98l6.473,-0l-0,-3.219l-3.07,-0c-0.148,-0.025 -0.05,0.012 -0.136,-0.075l-0.012,-3.194l-3.231,0.012l-0.024,6.476Z" style="fill:#003087;"/><path id="path124" d="M42.033,29.258l0.037,-3.256c0.321,-0.099 2.7,-0.037 3.243,-0.037l-0,-3.22l-6.474,0l0,6.501l3.194,0.012Z" style="fill:#003087;"/><path id="path126" d="M80.909,25.965c0.493,-0.013 2.959,-0.087 3.255,0.049l0.025,3.257l3.181,-0.025l0.013,-6.476l-6.474,-0.025l0,3.22Z" style="fill:#003087;"/><path id="path128" d="M103.559,74.749l3.243,0l0,-3.244l3.218,-0.012l0.013,-3.232l-3.231,-0.012l0,3.244l-3.206,-0c-0.111,0.396 -0.037,2.674 -0.037,3.256l0,0Z" style="fill:#fdfefe;"/><path id="path130" d="M16.177,81.25l3.243,-0l-0,3.206c0.32,0.112 2.7,0.038 3.242,0.038l0,-3.244l-3.23,-0l-0.012,-3.244l-3.218,-0.013l-0.025,3.257Z" style="fill:#fdfefe;"/><rect id="path132" x="64.732" y="87.75" width="3.23" height="6.488" style="fill:#002f85;"/><path id="path134" d="M29.136,52.004l-6.474,-0l0,3.244l6.461,-0l0.013,-3.244Z" style="fill:#003087;"/><path id="path136" d="M45.325,81.25l6.461,-0.013l-0.025,-3.244l-6.448,0l0.012,3.257Z" style="fill:#003087;"/><path id="path138" d="M103.572,110.508l-0.013,3.232l6.474,-0.013l-0,-3.231l-6.461,0.012Z" style="fill:#003087;"/><path id="path140" d="M87.358,68.249l0.012,-3.22l-6.485,-0.012l0.024,3.232l6.449,-0Z" style="fill:#fff;"/><path id="path142" d="M32.305,61.748l-6.375,0l-0.012,3.232l6.411,-0c0,-0.656 0.086,-2.724 -0.025,-3.232l0.001,0Z" style="fill:#fdfefe;"/><path id="path144" d="M42.119,35.746l6.362,0c0.099,-0.359 0.038,-2.674 0.038,-3.231l-6.412,-0l0.012,3.231Z" style="fill:#003087;"/><path id="path146" d="M38.839,42.197c0.481,0.112 2.553,0.025 3.219,0.025l-0,-6.426l-3.206,0.025l-0.013,6.376Z" style="fill:#003087;"/><path id="path148" d="M74.436,25.965l3.194,-0.013l-0,-6.401l-3.182,-0l-0.012,6.414Z" style="fill:#003087;"/><path id="path150" d="M58.247,94.164l-3.144,-0l-0.013,-3.071c-0.061,-0.173 0.062,-0.037 -0.074,-0.124l0,3.269l-3.205,0c-0.099,0.396 -0.037,2.687 -0.025,3.257c0.53,-0 2.91,0.061 3.23,-0.038l0,-3.206l2.442,-0c0.394,-0 0.678,0.061 0.789,-0.087l-0,-0Z" style="fill:#fdfefe;"/><path id="path152" d="M9.716,52.004l0,-3.257l-3.292,0l0.049,3.244l3.243,0.013Z" style="fill:#003087;"/><path id="path154" d="M29.136,84.494l-0,-3.244l-3.243,-0l-0,3.219c0.431,0.099 2.639,0.037 3.243,0.025Z" style="fill:#fdfefe;"/><path id="path156" d="M6.473,39.003l3.231,-0l0.012,-3.257l-3.255,0l0.012,3.257Z" style="fill:#003087;"/><path id="path158" d="M38.839,113.74l3.231,-0l0.012,-3.244l-3.045,-0l-0.198,0.012l0,3.232Z" style="fill:#003087;"/><rect id="path160" x="87.383" y="48.747" width="3.23" height="3.256" style="fill:#fdfefe;"/><path id="path162" d="M35.597,22.745l3.242,0l0,-3.244l-3.23,0l-0.012,3.244Z" style="fill:#003087;"/><path id="path164" d="M110.033,58.504l-0,3.244l3.23,0l0,-3.256l-3.23,0.012Z" style="fill:#003087;"/><path id="path166" d="M110.033,52.004l3.23,-0.013l0.012,-3.244l-3.242,0l-0,3.257Z" style="fill:#003087;"/><path id="path168" d="M48.543,19.501l3.243,0l-0,-3.244l-3.231,-0.012l-0.012,3.256Z" style="fill:#fdfefe;"/><path id="path170" d="M32.366,52.004l0,3.244l3.231,-0.013l-0,-3.231l-3.231,-0Z" style="fill:#003087;"/><path id="path172" d="M9.704,65.005l-0,-3.257l-3.231,0l0.025,3.244l3.206,0.013Z" style="fill:#003087;"/><path id="path174" d="M80.922,13.013l3.205,-0.012l0.013,-3.256l-3.206,-0.013l-0.012,3.281Z" style="fill:#fdfefe;"/><path id="path176" d="M93.88,110.496l3.206,-0l-0.012,-3.257l-3.218,0l0.024,3.257Z" style="fill:#003087;"/><path id="path178" d="M71.206,94.238l3.23,0l0,-3.244l-3.243,0.025l0.013,3.219Z" style="fill:#003087;"/><path id="path180" d="M90.625,64.98l-0.012,-3.232l-3.206,-0.024l0,3.256l3.218,-0Z" style="fill:#fdfefe;"/><path id="path182" d="M90.613,94.238l3.23,0l0.013,-3.219l-3.231,-0.025l-0.012,3.244Z" style="fill:#003087;"/><path id="path184" d="M87.407,61.723l3.206,0.025l-0,-3.256l-3.23,-0l0.024,3.231Z" style="fill:#003087;"/><path id="path186" d="M29.136,84.494l3.23,-0l-0.025,-3.232l-3.205,-0.012l-0,3.244Z" style="fill:#003087;"/><path id="path188" d="M29.136,81.25l3.206,0.012l-0,-3.256l-3.219,0.024l0.013,3.22Z" style="fill:#fdfefe;"/><path id="path190" d="M77.703,16.245l3.206,-0l0.013,-3.232l-3.243,0.013l0.024,3.219Z" style="fill:#fdfefe;"/><path id="path192" d="M32.366,84.494l3.231,-0l-0,-3.195l-3.255,-0.037l0.024,3.232Z" style="fill:#fdfefe;"/><rect id="path194" x="58.259" y="22.745" width="3.23" height="3.219" style="fill:#fdfefe;"/><path id="path196" d="M84.127,29.271l-0.012,-3.257l-3.206,0.025l0,3.207l3.218,0.025Z" style="fill:#fdfefe;"/><path id="path198" d="M58.259,29.246l3.218,-0l0.013,-3.207l-3.231,-0l0,3.207Z" style="fill:#003087;"/><rect id="path200" x="74.436" y="13.001" width="3.193" height="3.244" style="fill:#003087;"/><path id="path202" d="M58.259,25.965l0,-3.22l-3.218,-0.012l-0.012,3.244l3.23,-0.012Z" style="fill:#003087;"/><path id="path204" d="M77.63,29.246l0.024,-3.232l-3.218,0.013l0,3.219l3.194,-0Z" style="fill:#fdfefe;"/><path id="path206" d="M90.625,71.48l-0.012,-3.231l-3.193,-0l-0.013,3.231l3.218,0Z" style="fill:#fdfefe;"/><path id="path208" d="M29.136,77.956l-0,-3.207l-3.218,0l-0.013,3.219l3.231,-0.012Z" style="fill:#fdfefe;"/><path id="path210" d="M84.152,77.919c0.407,0.111 2.614,0.037 3.206,0.037l-0,-3.207l-3.218,0.013l0.012,3.157Z" style="fill:#003087;"/><rect id="path212" x="45.313" y="26.027" width="3.206" height="3.219" style="fill:#003087;"/><path id="path214" d="M55.066,29.258l3.193,-0.012l0,-3.207l-3.218,-0.012l0.025,3.231Z" style="fill:#fdfefe;"/><path id="path216" d="M58.247,110.557l-3.231,-0.012l0,3.195l3.243,-0.013l-0.012,-3.17Z" style="fill:#003087;"/><path id="path218" d="M77.703,12.976l3.169,0l0.025,-3.207l-3.193,0l-0.001,3.207Z" style="fill:#003087;"/><rect id="path220" x="106.827" y="39.015" width="3.181" height="3.195" style="fill:#003087;"/><path id="path222" d="M100.378,110.458l3.169,0l-0.012,-3.182l-3.157,0l0,3.182Z" style="fill:#003087;"/><rect id="path224" x="55.066" y="9.794" width="3.156" height="3.17" style="fill:#fff;"/><path id="path226" d="M77.703,9.769l3.194,0l-0.025,3.207l-3.169,0l0,-3.207Zm0,6.476l-0.024,-3.219l3.243,-0.013l0.012,-3.281l-3.268,0l-0.037,3.269l0,3.244l0.025,3.244l-3.058,0c-0.123,0.012 -0.074,0 -0.148,0.062l3.181,-0l0,6.401l-3.193,0.013l-3.23,0.012l-0.038,3.281c0.062,-0.074 0.025,0.013 0.062,-0.124l0.012,-3.095l3.194,-0.012l3.218,-0.013l-0.025,3.232c0.074,-0.087 0.025,0.037 0.062,-0.111l0.012,-3.096l3.206,0l3.206,-0.025l0.012,3.257l0.062,-0l-0.025,-3.257c-0.296,-0.136 -2.762,-0.062 -3.255,-0.049l-3.218,0.012l-0,-6.451l9.691,0c0.099,-0.545 0.013,-10.611 0.025,-12.642l-0.049,-0.383l-0,12.963l-9.655,0l0,-3.219Z" style="fill:#6985b8;"/><path id="path228" d="M25.696,94.436l-0.013,15.874l-15.782,-0l-0,-15.861l15.795,-0.013Zm-0,0c-0,0 -0.025,-0.024 -0.025,-0.012c-0.012,0.012 -0.025,-0.012 -0.037,-0.025c-0.025,0 -15.154,-0.062 -15.758,0c-0.098,0.396 -0.024,12.196 -0.024,13.905c-0,0.582 -0.062,1.498 0.012,2.031c0.493,0.074 10.863,0.024 11.886,0.024c0.69,0 3.539,0.087 3.983,-0.037c0.074,-0.644 0.012,-10.76 0.012,-11.911c-0,-0.186 0.074,-3.789 -0.049,-3.975l-0,0Z" style="fill:#95a9cd;"/><path id="path230" d="M25.696,25.804l-15.795,-0.013l-0,-15.848l15.782,-0l0.013,15.861Zm-0,-0l0.037,-0.062c0.012,-0.025 0.061,-15.23 -0,-15.824c-0.383,-0.099 -12.133,-0.037 -13.847,-0.037c-0.567,-0 -1.48,-0.05 -2.022,0.025c-0.062,0.495 -0.012,10.908 -0.012,11.923c-0,0.706 -0.099,3.554 0.024,4.012c0.666,0.074 10.703,0.012 11.874,0.012l3.847,0c0.099,-0.024 0.074,-0.024 0.099,-0.049l-0,-0Z" style="fill:#95a9cd;"/><path id="path232" d="M94.041,25.804l0.012,-15.861l15.795,-0.013l-0,15.861l-15.807,0.013Zm-0,-0c0.123,0.086 0.135,0.049 0.419,0.049c4.414,-0.037 8.976,0 13.39,0c0.617,0 1.431,0.05 2.01,-0.012c0.111,-0.384 0.037,-12.184 0.037,-13.905c0,-0.582 0.049,-1.486 -0.012,-2.031c-0.493,-0.061 -10.863,-0.024 -11.886,-0.024c-0.691,-0 -3.539,-0.087 -3.995,0.037c-0.062,0.644 -0.013,10.76 -0.013,11.911l0.013,3.876c0.012,0.099 0.024,0.062 0.037,0.099l-0,-0Z" style="fill:#95a9cd;"/><path id="path234" d="M48.494,103.995c0.074,-0.074 0.061,-0.012 0.086,-0.149l0,-3.083l12.91,0.013l3.218,-0.013l-0,6.451l-9.704,0l-0.012,3.269l-6.437,0c-0.098,0.322 -0.037,2.737 -0.037,3.257l0.062,-3.207l6.436,0.012l3.231,0.012c-0.148,-0.161 -0.58,-0.086 -0.789,-0.086l-2.417,-0l-0,-3.207l9.667,-0.013c0.111,-0.21 0.111,-6.166 0.024,-6.537l-3.242,-0.013c-0.654,0.075 -8.336,0.013 -9.704,0.013c-0.666,-0 -2.737,-0.087 -3.243,0.037l-0.049,3.244Z" style="fill:#8aa0c8;"/><path id="path236" d="M42.033,29.258c0.062,-0.074 0.037,0.013 0.062,-0.111l0.012,-3.12l6.411,-0l0,6.438c-0.826,0 -6.115,-0.074 -6.448,0.05l-0.012,3.219l-2.429,0c-0.21,0 -0.642,-0.074 -0.777,0.087l3.206,-0.025l-0,6.426c-0.666,0 -2.738,0.087 -3.219,-0.025c0.025,0.05 -0.049,0.087 0.309,0.087l2.934,-0.025l0.037,-6.512l-0.012,-3.232l6.411,-0c0,0.557 0.062,2.872 -0.037,3.232c0.05,-0.038 0.087,0.049 0.099,-0.31l-0.012,-2.922l3.23,0.012c-0.061,-0.037 0,-0.037 -0.123,-0.062c-0.049,-0.012 -0.148,-0.012 -0.21,-0.012l-2.885,0.012l-0,-3.219l-0.012,-3.244l-3.255,-0.037c-0.543,-0 -2.923,-0.062 -3.243,0.037l-0.037,3.256Z" style="fill:#7a93c1;"/><path id="path238" d="M80.885,64.98l-0,0.037l6.485,0.012l-0.012,3.22l-0,3.219l-6.276,-0c-0.185,0.025 0.074,-0.025 -0.099,0.012c-0.012,0.013 -0.024,0.013 -0.037,0.025c-0.012,0 -0.024,0.012 -0.037,0.012l6.461,0l-0.012,3.232l-0,3.207c-0.592,0 -2.799,0.074 -3.206,-0.037c0.074,0.124 -0.012,0.062 0.136,0.099l3.082,-0.012c0.124,-0.384 0.013,-2.638 0.049,-3.257l0,-3.219l2.812,-0c0.222,-0 0.259,0.025 0.394,-0.05l-3.218,0l0.012,-3.231l0,-3.207c0.358,-0 2.972,0.074 3.206,-0.062l-3.218,-0l0,-3.257l-3.255,-0.037c0.086,0.087 -0.012,0.05 0.136,0.075l3.07,-0l-0,3.219l-6.473,-0Z" style="fill:#758fbe;"/><path id="path240" d="M51.774,26.014l3.218,0l-0,3.083c0.037,0.248 -0,0.075 0.074,0.161l-0.025,-3.231l3.218,0.012l3.231,-0l3.218,-0.012l-0,4.841c-0,0.706 0.074,4.519 -0.05,4.891c0.136,-0.062 0.099,0.012 0.099,-0.533c-0.012,-1.386 0.062,-8.84 -0.025,-9.237l-3.242,-0.024l-3.231,-0l-3.23,0.012l0.012,-3.244c-0.025,0.049 -0.037,0.012 -0.062,0.124l0,3.108c-0.271,-0 -2.983,-0.075 -3.205,0.049l-0,0Z" style="fill:#8aa0c8;"/><path id="path242" d="M25.856,74.749c-0.025,0.471 -0.062,2.959 0.037,3.257l3.23,0.024l3.219,-0.024l-0,3.256l3.255,0.037c-0.074,-0.186 -1.283,-0.062 -1.529,-0.062l-1.677,0l-0,-3.231c-0.308,-0.137 -2.774,-0.075 -3.255,-0.05l-3.231,0.012l0.025,-6.438l3.046,-0c0.246,-0.037 0.073,-0 0.16,-0.062l-3.255,0.025l-0.025,3.256Z" style="fill:#6c88ba;"/><path id="path244" d="M25.856,61.748l0.012,3.232l-2.836,-0c-0.333,-0.012 -0.259,-0.025 -0.369,0.049l3.205,0l0.013,3.145c-0,0.013 0.012,0.025 0.012,0.038c0.012,0.012 0.025,0.024 0.025,0.037l-0,-3.22c0.826,0 6.128,0.087 6.448,-0.049c0.05,-0.458 0.013,-2.155 0.025,-2.873c-0,-0.346 -0,-0.284 -0.086,-0.359c0.111,0.508 0.024,2.576 0.024,3.232l-6.411,-0l0.012,-3.232l-0.012,-3.256l-0.05,0.173c-0.037,0.297 0.037,2.464 -0.012,3.083l-0,0Z" style="fill:#7c95c1;"/><path id="path246" d="M106.827,39.015l3.181,0l0,3.195l-3.181,-0l-0,-3.195Zm-3.292,3.219c0.061,0.062 -0.013,0.038 0.135,0.075l3.132,-0.013l3.231,-0.037l0.012,-3.281l-3.267,0.012l-0,3.244l-3.243,0Z" style="fill:#5a79b1;"/><path id="path248" d="M55.066,9.794l3.156,0l0,3.17l-3.156,-0l-0,-3.17Zm-0.062,-0.062l0,3.269l3.255,0.012l0.013,-3.268l-3.268,-0.013Z" style="fill:#b6c4dd;"/><path id="path250" d="M100.378,107.276l3.157,0l0.012,3.182l-3.169,0l0,-3.182Zm3.194,3.232l-0.013,-3.281l-3.242,0.024l0.012,3.257l3.243,-0Z" style="fill:#4a6baa;"/></svg>