<?xml version="1.0" encoding="UTF-8" standalone="no"?><!DOCTYPE svg PUBLIC "-//W3C//DTD SVG 1.1//EN" "http://www.w3.org/Graphics/SVG/1.1/DTD/svg11.dtd"><svg width="100%" height="100%" viewBox="0 0 447 447" version="1.1" xmlns="http://www.w3.org/2000/svg" xmlns:xlink="http://www.w3.org/1999/xlink" xml:space="preserve" xmlns:serif="http://www.serif.com/" style="fill-rule:evenodd;clip-rule:evenodd;stroke-linejoin:round;stroke-miterlimit:2;"><g id="CorelEMF" serif:id="CorelEMF"><path d="M257.258,406.339l13.573,-0.138c0,2.439 0.276,11.917 -0.138,13.574l-13.343,-0l-0.092,-13.436Zm-230.018,13.298c-0.461,-0.644 -0.184,-22.685 -0.184,-23.375l-0,-59.31c-0,-3.865 -0.231,-8.191 -0,-11.918c1.472,-0.414 75.276,-0.138 82.869,-0.138c3.727,0 8.374,-0.23 12.009,0.046c0.276,3.543 0.046,18.774 0.046,23.559c-0,4.831 0.23,69.801 -0.138,71.274c-5.016,0.276 -17.669,0.046 -23.513,0.046l-71.089,-0.184Zm243.545,-40.492l-13.527,0l-0,-13.527l13.619,-0l-0.092,13.527Zm-216.628,-81.258l0,13.528l-27.055,-0l-0,-13.528l27.055,-0Zm135.416,-13.528l13.527,0l0,13.528l-13.527,-0l-0,-13.528Zm-162.471,-27.101l13.527,-0l0,13.573c-2.438,0 -11.917,0.276 -13.527,-0.138l-0,-13.435Zm200.799,7.822c-0.736,0.322 -1.334,0.966 -2.208,1.38c-2.945,1.334 -6.212,1.242 -8.973,-0.184c-2.807,-1.426 -5.567,-4.555 -5.567,-9.064c0.046,-6.488 5.843,-11.09 11.917,-10.031c2.393,0.368 3.359,1.288 4.877,2.162l0.046,-2.162l3.957,0.092c0.047,2.761 0.139,18.129 -0.092,19.969l-3.819,0.046l-0.138,-2.208Zm-39.157,-25.952c3.82,0 11.412,-0.414 14.587,0.599c3.497,1.104 6.533,3.773 7.362,7.408c1.15,4.831 -1.841,8.374 -4.51,10.031c-4.233,2.668 -7.5,1.656 -12.929,1.932l-0.046,8.328l-4.464,0l0,-28.298Zm48.728,36.811c0.276,-0.967 1.334,-2.669 1.841,-3.635c4.417,-8.835 4.555,-5.706 1.978,-10.813c-0.966,-1.933 -7.362,-13.574 -7.5,-14.494l5.43,-0c0.644,0.138 4.555,8.052 5.199,9.202c0.46,0.967 1.058,2.577 1.84,3.037l4.97,-9.387c1.886,-3.589 0.368,-2.852 6.764,-2.852c-0.184,0.966 -14.172,27.101 -15.184,28.988l-5.338,-0.046Zm-183.315,-45.737l13.574,0.046l-0.092,13.482l-13.482,-0l0,-13.528Zm243.73,-13.436c1.38,-0.368 11.273,-0.092 13.528,-0.092l0.046,13.528l-13.574,0l-0.092,27.056l-13.298,-0c-0.322,-1.059 -0.138,-23.927 -0.138,-27.056l13.528,0l-0,-13.436Zm27.101,-54.295l-0.092,27.102l-13.481,-0l-0,13.389c-1.289,0.461 -23.651,0.138 -27.056,0.138l0,-13.527l13.528,-0.046l-0,-13.482l13.528,-0.092c0.092,-2.485 -0.322,-11.963 0.184,-13.482l13.389,0Zm-131.596,16.979c-0.23,4.371 3.313,3.451 6.856,3.451l50.154,-0c9.018,-0 8.19,6.074 8.19,11.733l-0,30.185c-0,3.635 0.276,5.889 -1.841,8.144c-2.162,2.254 -4.325,2.116 -8.144,2.116l-50.154,0c-3.727,0 -5.889,0.276 -8.144,-1.932c-2.209,-2.117 -2.071,-4.187 -2.071,-7.914l0,-40.17c0,-3.404 -0.69,-6.717 2.577,-7.592c1.518,-0.414 39.617,-5.107 44.31,-5.705c1.841,-0.23 7.316,-1.289 8.743,-0.552c1.104,0.506 1.748,1.472 1.748,3.221c0.046,1.426 0.138,3.635 -0.046,5.015l-52.178,-0Zm185.753,-16.979l0.046,-13.528l13.482,0l0,-13.527l13.528,0.092l0.092,13.573c0.966,-0.414 11.503,-0.138 13.482,-0.138l-0,94.787l-13.574,-0l-0.092,-54.157l-13.436,-0l0,-13.528l13.528,-0.046l-0,-13.528l-27.056,0Zm-27.055,-13.666c2.209,0 12.193,-0.23 13.574,0.138l0.046,13.528l13.435,0l-0.046,13.574l-13.389,-0l-0.046,13.436l12.055,-0c1.15,-0 1.012,-0 1.38,0.23l0.046,13.251c3.037,0.184 11.918,-0.23 13.252,0.092l0.322,0.138l-0.046,13.436l-13.482,0.092c-0.276,-0.506 -0.23,-1.012 -0.184,-1.702l0,-11.826l-13.343,0l0.046,27.01l13.435,0l0,13.436c-0.966,0.552 -13.435,0.138 -13.665,0.092l-0,-13.528c-2.807,0 -11.227,-0.368 -13.344,0.092l-0.092,26.825c2.485,0.093 12.055,-0.322 13.666,0.139l-0,13.573l26.917,0l0.046,13.528l13.482,0l-0,-27.009l-13.206,-0.046c0,-0.046 -0.092,-0 -0.138,-0.092c0,-0.046 -0.092,-0 -0.138,-0.046l0,-13.436c2.209,-0 12.286,-0.276 13.528,0.138l-0,13.251c2.853,0.139 11.641,-0.368 13.574,0.139c0.092,0.46 0.322,25.03 0.092,26.503c-0.138,0.828 -0,0.276 -0.23,0.598l-13.252,0l-0,26.964c2.439,-0 11.733,-0.323 13.39,0.092c0.276,1.426 0.092,20.429 0.092,23.926l-0,1.795c-0,1.196 0.046,1.012 -0.23,1.38l-13.344,0.092l-0.092,13.436l13.528,-0l0.046,13.574l-13.436,-0c-0.46,1.748 -0.138,10.997 -0.138,13.527l13.528,0l0.046,27.01l-13.574,0.046l-0,13.528l-13.436,0.046c-0.322,-1.473 -0.092,-23.605 -0.092,-27.102l-13.528,0l0,27.102l-27.009,-0l-0.092,-13.39l-27.056,-0l0,13.39l-27.147,-0l0.046,-27.01l-27.056,-0.092l-0.046,-13.528l54.157,0l-0.046,13.436l0.138,0l26.964,0.092c-0,0.046 0.046,0.046 0.046,0.138l0.138,13.344l13.344,-0l-0,-40.491l-13.344,-0l-0.184,13.481l-13.482,0l0,-13.527l-54.157,-0l0,-13.528l-13.482,-0.046l-0.046,-13.482l13.528,-0.046l0,-13.528l13.528,0l-0,-54.157l13.39,0l0.138,-13.573c2.116,-0.507 10.721,-0.139 13.527,-0.139c4.464,0 9.111,-0.092 13.574,0l0,-26.917l-13.528,-0.046l0.046,-27.056l13.39,-0.046l0.092,-40.583l-13.528,0l0.092,-27.055l26.964,-0l0.046,13.389Zm-67.731,0.138l13.528,-0.092l-0,-13.435c2.761,-0 11.457,-0.368 13.528,0.138l0.046,26.917l-27.102,0l0,-13.528Zm-108.314,-40.629l-0.092,27.102l-13.482,-0l0,13.527l13.574,0.046l-0,13.482l-13.574,0l-0.046,81.259l-27.009,-0.046l-0,-13.482l-27.102,0l0.092,13.528l13.482,0.046l-0,13.343c3.543,0.093 25.813,-0.322 27.147,0.185l-0.046,40.537c-1.242,0.506 -11.319,0.184 -13.435,0.184l-0,13.298l26.917,-0l0,-26.964l13.574,0l-0,13.528l13.528,-0l-0,26.963c1.196,0.368 11.411,0.138 13.527,0.138l0,-13.527l13.574,-0.046l0,-27.056l13.528,0l0,40.629l13.528,0l-0,-13.573l13.389,-0c0.415,-1.151 0.139,-11.412 0.139,-13.528l-13.482,-0l-0.046,-13.39c1.564,-0.506 23.466,-0.138 27.101,-0.138l0,13.528l13.528,-0l0,27.101l-27.055,0l-0.046,13.528l-13.482,0l-0.046,13.482l-13.528,0.046l0,13.574l13.482,-0l0.046,13.527l13.528,0l-0,13.62l-27.056,-0.092l0,13.528l13.436,-0c-0,0.046 0.046,0.092 0.046,0.138c-0,0.092 0.046,0.138 0.046,0.184l0.092,1.15c-0.046,2.485 0.138,10.951 -0.138,12.102l-40.538,0.046c-0.322,-1.381 -0.092,-26.826 -0.092,-30.553c0,-3.129 -0.23,-7.086 0,-10.123l27.102,-0.138l0.046,-13.389l-13.436,-0l-0.138,-13.574l-13.528,-0c0,2.209 0.277,12.331 -0.138,13.574l-13.343,-0l-0.046,26.963l-13.528,0.092l-0,13.528l-13.528,-0l-0.046,-13.528l-13.528,0.092c-0.506,-0.69 -0.276,-2.438 -0.276,-3.267l0,-23.604l-13.251,-0.322l-0.092,-54.019l-25.629,-0c-1.197,-0 -1.013,-0 -1.335,-0.276l-0.046,-13.252c-2.669,0.046 -11.595,-0.322 -13.482,0.138l-0.046,13.252l-27.101,-0l-0,-13.39c-1.289,-0.368 -11.319,-0.138 -13.528,-0.138l0.046,-27.056l13.482,-0.046l0.138,-13.527l13.39,0.092c0.506,4.877 -0.507,24.754 0.184,27.009l13.389,0l0,-13.528l27.102,-0.046l-0,-13.389l-27.056,-0.092c-0.506,-1.289 -0.184,-11.32 -0.184,-13.528l-13.389,-0.092l-0,-13.39c2.254,-0.598 10.26,0.138 13.343,-0.138l-0.046,-26.964l-13.205,0l-0,12.838c-0.138,1.288 0.184,-0.828 -0.092,0.322l-0.092,0.322l-13.298,-0.092c-0.322,-0.46 -0.23,-0.828 -0.23,-1.564l0.046,-11.826l-13.528,0l0,27.01l-13.528,0.046l-0.092,13.482l-13.435,-0.046l-0,-27.01l13.527,0l0,-26.963c-2.852,-0.092 -11.641,0.414 -13.666,-0.138l0.093,-40.63c1.426,-0.414 11.411,-0.138 13.711,-0.138l13.436,0.184l-0.046,13.482l13.574,-0.046l-0.046,-13.39c0.828,-0.46 12.653,-0.23 13.482,-0.23l-0,-12.699c0.138,-1.243 -0.184,0.828 0.046,-0.368l0.138,-0.322l54.065,-0l-0,13.389c1.288,0.414 11.273,0.138 13.527,0.138c0,-2.07 0.23,-12.423 -0.138,-13.527l-13.389,-0l-0,-40.63l13.527,0l0.046,27.102l13.482,-0l0.046,-13.574l13.528,0Zm243.592,-81.074l0.184,71.089c-0,5.752 0.23,18.59 -0.046,23.513c-1.473,0.368 -66.443,0.092 -71.274,0.092c-4.831,-0 -19.97,0.276 -23.559,-0.046c-0.276,-3.589 -0.046,-8.236 -0.046,-11.963c0,-7.639 -0.276,-81.305 0.138,-82.869c3.773,-0.185 8.053,-0 11.918,-0l59.31,-0c0.69,-0 22.731,-0.277 23.375,0.184Zm-392.397,-0c-0,-0.046 0.092,-0.046 0.092,-0.092c1.242,-0.415 66.58,-0.092 70.997,-0.092c5.89,-0 18.451,-0.277 23.513,-0c0.368,1.518 0.092,66.442 0.092,71.273c-0,4.832 0.276,19.97 -0.046,23.559c-3.589,0.322 -8.236,0.046 -11.963,0.046c-7.593,-0 -81.351,0.276 -82.869,-0.092c-0.185,-3.681 -0,-94.188 -0,-94.234c0.092,-0.414 0.046,-0.23 0.184,-0.368Zm135.231,40.491l27.102,-0.092l-0,-13.482l13.527,0l0.046,-13.528l13.482,0l0.046,40.63l-13.574,-0l0,13.527l27.102,-0.046l0,-13.481l13.528,-0.046l-0,-13.528l13.528,-0l-0,-13.528l13.573,0l-0.046,-26.917c0.276,-0.277 -0.276,-0.277 1.611,-0.277l1.794,0c3.543,0 22.178,-0.138 23.697,0.093c0.46,1.426 0.138,11.227 0.184,13.573c2.623,0 11.411,0.322 13.298,-0.138c0.414,0.368 0.184,-0.046 0.368,0.69l-0,40.354c-3.497,-0 -25.906,0.23 -27.378,-0.138l0,13.389l27.056,0.092l-0,26.964l-13.528,0.046l-0,-13.574l-13.528,0l0,40.629l-13.528,-0.046l0,-13.481l-27.101,-0l-0,13.527l13.528,0.092l-0,13.344c-1.059,0.322 -23.927,0.092 -27.056,0.092c0,-3.175 -0.23,-25.951 0.092,-27.055l13.436,-0l-0.046,-27.102l-13.482,0l-0.046,13.574l-13.528,-0l0,13.528l-27.055,-0l-0,-27.102l-13.528,0l0.046,-13.528l13.482,-0.092l-0.046,-13.435l-27.056,-0.046l0,-13.482Zm67.731,-13.574l0,-13.574c0,-2.484 -0.322,-11.825 0.092,-13.481l13.436,-0l-0,27.055l-13.528,0Zm-67.731,13.574l-13.528,-0.092l-0.046,-13.482l-13.481,0l0.046,-13.528l13.481,0l0.092,-13.527l27.01,-0l-0,27.055l-13.574,0.046l0,13.528Zm-162.471,379.099l446.83,0l0,-446.83l-446.83,-0l-0,446.83Z" style="fill:#fff;"/><path d="M175.999,338.516l13.574,0l-0,27.102l-13.528,-0l-0.046,-27.102Zm40.675,0l-13.574,0l0.046,-13.528l13.528,0l0,13.528Zm-54.203,-27.193l-0.782,0.184c-2.393,0.184 -23.697,-0 -26.181,-0c-0,1.748 0.23,52.224 -0.092,54.065l13.527,0.046l0,-40.584l13.528,-0.046c0.23,3.313 0,16.013 0,20.338c0,2.623 0.184,19.141 -0.092,20.292l-13.39,-0l-0.046,27.147l13.528,-0.092l0.046,13.528l13.528,-0l-0,-13.528l13.528,-0.092l0.046,-26.963l13.343,-0c0.415,-1.243 0.138,-11.365 0.138,-13.574l13.528,-0l0.046,-13.528l13.528,0.046l0,13.482l13.528,-0.046l0.046,-13.482l13.482,0l0.046,-13.528l27.055,0l0,-27.101l-13.528,-0l0,-13.528c-3.635,0 -25.537,-0.368 -27.101,0.138l0.046,13.39l13.482,-0c-0,2.116 0.276,12.377 -0.139,13.528l-13.389,-0l-0,13.573l-13.528,0l0,-40.629l-13.528,0l0,27.056l-13.574,0.046l0,13.527c-2.116,0 -12.331,0.23 -13.527,-0.138l-0,-26.963l-13.528,-0l-0,-13.528l-13.574,0l0,26.964Z" style="fill:#ee4e2c;"/><path d="M162.471,162.471l-13.528,0.092l0,-13.62l13.528,0l0,13.528Zm-54.065,-13.528l13.482,0.046l-0,13.482l-13.574,0l0.092,-13.528Zm-27.055,-13.527l-0,13.389l13.159,0.092c0.046,0 0.138,0.092 0.138,0.046c0.046,-0.046 0.138,0.046 0.184,0.092l-0.046,27.01l40.63,0.092l-0.046,13.436l-27.056,-0l0,13.389c4.831,0.046 39.203,-0.368 40.675,0.184c0.184,1.841 0,21.258 0.046,25.676c0,0.644 0.138,1.104 -0.276,1.334l-13.343,0.046l-0,-13.528l-27.102,-0.046l0,-13.436l-13.482,0l0.046,25.63c0,1.012 0.046,1.012 -0.276,1.334c-3.083,0.276 -11.089,-0.46 -13.343,0.138l-0,13.39l13.389,0.092c0.276,0.46 0.092,-0.138 0.184,0.644l0,12.746l27.056,-0.047l-0,-13.343l-13.482,-0.046l-0.092,-13.528l27.102,0l-0,13.482l27.009,0.046l0.046,-81.259l13.574,0l-0,-13.482l-13.574,-0.046l0,-13.527l13.482,-0l0.092,-27.102l-13.528,0l-0.046,13.574l-13.482,-0l-0.046,-27.102l-13.527,0l-0,40.63l13.389,-0c0.368,1.104 0.138,11.457 0.138,13.527c-2.254,0 -12.239,0.276 -13.527,-0.138l-0,-13.389l-54.065,-0Z" style="fill:#ee4e2c;"/><path d="M216.628,121.888l-13.528,-0.092l0,-13.482l13.574,0l-0.046,13.574Zm-54.157,-54.157l0,13.482l27.056,0.046l0.046,13.435l-13.482,0.092l-0.046,13.528l13.528,0l-0,27.102l27.055,-0l0,-13.528l13.528,-0l0.046,-13.574l13.482,0l0.046,27.102l-13.436,-0c-0.322,1.104 -0.092,23.88 -0.092,27.055c3.129,0 25.997,0.23 27.056,-0.092l-0,-13.344l-13.528,-0.092l-0,-13.527l27.101,-0l0,13.481l13.528,0.046l0,-40.629l13.528,0l-0,13.574l13.528,-0.046l-0,-26.964l-27.056,-0.092l0,-13.389c-1.15,-0.322 -11.779,-0.23 -13.528,-0.092l-0.046,40.583l-13.527,-0.092l-0,-13.482l-13.528,0l0.092,-13.528c2.07,0 12.331,0.276 13.436,-0.138l-0,-26.963l13.573,-0l0,-13.528l-13.573,0l-0,13.528l-13.528,-0l-0,13.528l-13.528,0.046l0,13.481l-27.102,0.046l0,-13.527l13.574,-0l-0.046,-40.63l-13.482,0l-0.046,13.528l-13.527,0l-0,13.482l-27.102,0.092Z" style="fill:#ee4e2c;"/><path d="M311.461,311.369l40.675,0.046l-0.046,40.721l-40.721,-0.092l0.092,-40.675Zm40.675,-26.918c1.242,-0.23 12.515,-0.23 13.482,0l-0.046,13.436l-13.528,-0l0.092,-13.436Zm-0,0l-0.184,0l-13.436,-0.092l0,13.39l-0.782,0.276l-0.782,-0c-5.292,-0.092 -23.605,0.276 -25.629,-0.138l-0.046,-27.056l-13.39,0l-0,54.157l-13.528,0l0,13.528l-13.528,0.046l0.046,13.482l13.482,0.046l0,13.528l54.157,-0l0,13.527l13.482,0l-0,-13.527c1.15,-0.414 11.411,-0.184 13.436,-0.184c-0,-2.025 -0.23,-12.286 0.184,-13.39l13.527,-0.046l0,-13.482l-13.389,0c-0.23,-0.276 -0.092,0.046 -0.23,-0.414c-0.276,-1.15 -0.046,-26.227 0.046,-26.779l13.573,-0.046l0,-26.918l13.528,0l-0.046,-13.528l-26.917,0l-0.23,-0.828c-0,-0.184 0.046,-0.598 0.046,-0.828l-0,-11.825l-13.344,-0l-0.046,27.101Z" style="fill:#ee4e2c;"/><path d="M41.412,405.419c-0.323,-0.414 -0.231,-1.381 -0.231,-1.933c0.092,-9.018 -0.184,-62.209 0.092,-64.28c0.507,-0.138 64.372,-0.46 66.397,-0.046c0.414,2.071 0.138,65.937 -0.046,66.397c-2.163,0.322 -55.261,-0 -64.464,0.092c-0.184,-0 -1.564,0.046 -1.61,-0.138c-0.046,-0.046 -0.092,-0.046 -0.138,-0.092Zm-14.172,14.218l94.556,-0.046l0.092,-94.557l-94.602,0l-0.046,94.603Z" style="fill:#ee4e2c;"/><path d="M405.419,41.412c0.368,0.46 0.23,1.38 0.23,1.978c-0.092,8.973 0.23,62.163 -0.092,64.234c-0.506,0.184 -64.372,0.46 -66.397,0.046c-0.414,-2.025 -0.092,-65.89 0.046,-66.397c1.887,-0.276 54.94,-0.092 62.486,-0.092c0.644,0 1.334,0.046 1.978,0l1.749,0.231Zm14.218,-14.172l-94.603,0.046l0,94.51l94.511,-0l0.092,-94.556Z" style="fill:#ee4e2c;"/><path d="M41.412,41.412c0.184,-0.139 -0.093,-0.046 0.414,-0.185l1.564,-0.046c8.973,0.092 62.163,-0.184 64.234,0.092c0.184,0.507 0.46,64.372 0.046,66.397c-2.025,0.414 -65.89,0.138 -66.397,-0.046c-0.276,-1.887 -0.092,-54.893 -0.092,-62.439c0,-0.829 -0.138,-3.313 0.231,-3.773Zm-14.172,-14.172l0.046,94.556l-0.507,-0l95.017,-0l-0,-94.51l-94.556,-0.046Z" style="fill:#ee4e2c;"/><path d="M193.392,179.45l52.178,-0c0.184,-1.38 0.092,-3.589 0.046,-5.015c0,-1.749 -0.644,-2.715 -1.748,-3.221c-1.427,-0.737 -6.902,0.322 -8.743,0.552c-4.693,0.598 -42.792,5.291 -44.31,5.705c-3.267,0.875 -2.577,4.188 -2.577,7.592l0,40.17c0,3.727 -0.138,5.797 2.071,7.914c2.255,2.208 4.417,1.932 8.144,1.932l50.154,0c3.819,0 5.982,0.138 8.144,-2.116c2.117,-2.255 1.841,-4.509 1.841,-8.144l-0,-30.185c-0,-5.659 0.828,-11.733 -8.19,-11.733l-50.154,-0c-3.543,-0 -7.086,0.92 -6.856,-3.451Z" style="fill:#ee4e2c;"/><path d="M392.673,365.48l-0.782,0.23c-0.184,0.046 -0.598,-0 -0.782,-0l-25.399,-0l-0.046,40.537c-1.243,0.414 -11.504,0.184 -13.62,0.138l0.092,13.39l27.009,-0l0,-27.102l13.528,0c0,3.497 -0.23,25.629 0.092,27.102l13.436,-0.046l-0,-13.528l13.574,-0.046l-0.046,-27.01l-13.528,0c-0,-2.53 -0.322,-11.779 0.138,-13.527l13.436,-0l-0.046,-13.574l-13.528,-0l0.092,-13.436l-0.184,0l-13.436,-0.092l0,26.964Z" style="fill:#ee4e2c;"/><path d="M67.685,284.359l13.574,0l-0.046,13.528l-13.528,-0l-0,-13.528Zm-13.528,13.528c2.209,-0 12.239,-0.23 13.528,0.138l-0,13.39l27.101,-0l0.046,-13.252c0.184,-0.598 1.749,-0.322 3.083,-0.322l10.399,-0.046l0,-13.436l27.01,0c-0,0.046 0.046,0.046 0.046,0.138c-0,0.092 0.046,0.092 0.046,0.138c0.276,1.15 -0.046,-0.966 0.092,0.322l-0,12.884l13.297,-0l0.046,-40.491l-26.963,0.046l-0,13.389l-27.102,0.046l0,13.528l-13.389,0c-0.691,-2.255 0.322,-22.132 -0.184,-27.009l-13.39,-0.092l-0.138,13.527l-13.482,0.046l-0.046,27.056Z" style="fill:#ee4e2c;"/><path d="M54.157,352.044l40.629,-0l0,40.629l-40.629,0l0,-40.629Zm-12.745,53.375l66.166,-0l-0,-66.121l-66.12,0.046l-0.046,66.075Z" style="fill:#fffefe;"/><path d="M54.157,54.157l40.629,0l0,40.629l-40.629,0l0,-40.629Zm-12.745,-12.745l0.046,66.074l66.12,0.092l-0,-66.12l-66.166,-0.046Z" style="fill:#fffefe;"/><path d="M352.044,54.157l40.629,0l0,40.629l-40.629,0l-0,-40.629Zm53.375,-12.745l-66.121,0.046l0,66.12l66.121,-0.092l-0,-66.074Z" style="fill:#fffefe;"/><path d="M379.145,162.471l27.056,0l-0,13.528l-13.528,0.046l0,13.528l13.436,-0l0.092,54.157l13.574,-0l-0,-94.787c-1.979,0 -12.516,-0.276 -13.482,0.138l-0.092,-13.573l-13.528,-0.092l0,13.527l-13.482,0l-0.046,13.528Z" style="fill:#ee4e2c;"/><path d="M230.156,379.007c-0.644,0.461 -5.66,0.184 -6.534,0.184l-20.383,0l-0,40.4l40.353,-0l0.046,-13.39l-13.436,-0l0,-13.528l27.056,0.092l-0,-13.62l-13.528,0l-0.046,-13.527l-13.482,-0l0,-13.574l-13.574,-0l0.138,13.574l13.436,-0l-0.046,13.389Z" style="fill:#ee4e2c;"/><path d="M54.157,392.673l40.629,0l0,-40.629l-40.629,-0l0,40.629Z" style="fill:#ee4e2c;"/><rect x="54.157" y="54.157" width="40.629" height="40.629" style="fill:#ee4e2c;"/><rect x="352.044" y="54.157" width="40.629" height="40.629" style="fill:#ee4e2c;"/><path d="M324.988,162.471l13.528,0l-0.092,40.583l13.62,-0.092l0.046,-13.297c0.782,-0.414 12.561,-0.184 13.39,-0.184l-0,-13.436l-13.436,-0l0.046,-13.574l13.39,0l-0,-13.436c-2.715,0 -12.056,0.138 -13.114,-0.092l-0.276,-0.138l-0.046,-13.389l-26.964,-0l-0.092,27.055Z" style="fill:#ee4e2c;"/><path d="M365.756,338.516l13.389,0l0,13.482c-0.506,0.23 -0.552,0.184 -1.426,0.184l-12.055,-0l-0,13.344l27.009,-0.046l0,-26.964l13.436,0.092l0.046,-27.101l-13.482,-0l0,13.481l-13.528,-0.046l0,-13.389l-13.435,-0.046l0.046,27.009Z" style="fill:#fffefe;"/><path d="M324.988,324.988l13.528,0l0,13.528l-13.528,-0.046l0,-13.482Zm-13.389,26.964l40.353,-0l-0,-40.353l-40.353,-0l-0,40.353Z" style="fill:#fffefe;"/><path d="M284.359,54.157l-13.528,0l0,13.528l-13.573,-0l-0,26.963c-1.105,0.414 -11.366,0.138 -13.436,0.138l-0.092,13.528l13.528,0l-0,13.482l13.527,0.092l0.046,-40.583c1.749,-0.138 12.378,-0.23 13.528,0.092c1.472,0.368 23.881,0.138 27.378,0.138l-0,-40.354c-0.184,-0.736 0.046,-0.322 -0.368,-0.69l0.046,40.768l-27.056,-0l0,-27.102Z" style="fill:#fffefe;"/><path d="M324.988,406.385c-2.208,0.092 -12.101,0.276 -13.619,-0.138c-0.046,-0.322 -0.369,-12.792 0.138,-13.62l13.389,-0.046l0.046,-13.436l-54.157,0l0.046,13.528l27.056,0.092l-0.046,27.01l27.147,-0l0,-13.39Z" style="fill:#ee4e2c;"/><path d="M162.471,67.731l0,-13.528l13.574,-0.046l-0,-27.055l-27.01,-0l-0.092,13.527l-13.481,0l-0.046,13.528l13.481,0l0.046,13.482l13.528,0.092Z" style="fill:#ee4e2c;"/><path d="M54.157,230.202l0,-27.01c0.184,-0.092 0.046,-0.092 0.414,-0.184l13.114,-0.046l-0,-13.159c-2.071,-0.46 -10.767,-0.138 -13.528,-0.138c-4.003,-0 -9.755,-0.322 -13.528,0.046l0,26.963l-13.527,0l-0,27.01l13.435,0.046l0.092,-13.482l13.528,-0.046Z" style="fill:#ee4e2c;"/><path d="M311.553,270.831l-0,27.01l26.963,-0.092l0,-13.39l13.436,0.092l0.046,-27.101l-13.482,-0l0,13.481l-26.963,0Z" style="fill:#fffefe;"/><path d="M324.988,162.471l-13.389,0c-0.506,1.519 -0.092,10.997 -0.184,13.482l-13.528,0.092l-0,13.482l-13.528,0.046l0,13.527c3.405,0 25.767,0.323 27.056,-0.138l-0,-13.389l13.481,-0l0.092,-27.102Z" style="fill:#ee4e2c;"/><path d="M297.795,54.203l-13.436,-0.046l0,27.102l27.056,-0l-0.046,-40.768c-1.887,0.46 -10.675,0.138 -13.298,0.138c-0.322,2.899 0.138,10.767 -0.046,12.93l-0.23,0.644Z" style="fill:#ee4e2c;"/><path d="M67.685,189.803l-0,13.159l13.482,0.046l-0.046,-26.963l-26.964,-0l0,-13.574l-13.39,0l-0.092,27.01l26.274,-0c1.242,0.138 0.368,-0.092 0.736,0.322Z" style="fill:#fffefe;"/><path d="M94.786,202.962l13.528,0l0,-13.389l27.056,-0l0.046,-13.436l-40.63,-0.092l0,26.917Z" style="fill:#fffefe;"/><path d="M148.759,230.156l0.046,-26.964l-40.491,0l0,13.436l27.102,0.046l-0,13.528l13.343,-0.046Z" style="fill:#fffefe;"/><path d="M40.767,162.471l13.39,0l0.046,-13.482l-27.009,0l-0,40.492l13.389,-0l-0.092,-23.789l0,-1.61c0,-0.737 -0.092,-1.151 0.276,-1.611Z" style="fill:#ee4e2c;"/><path d="M135.416,365.572l13.251,0.322l0,23.604c0,0.829 -0.23,2.577 0.276,3.267l0.046,-27.147l13.39,-0c0.276,-1.151 0.092,-17.669 0.092,-20.292c0,-4.325 0.23,-17.025 0,-20.338l-13.528,0.046l0,40.584l-13.527,-0.046Z" style="fill:#fffefe;"/><path d="M284.359,148.943l0,13.528l27.102,0l-0.046,-26.917c-2.071,-0.506 -10.767,-0.138 -13.528,-0.138l-0,13.435l-13.528,0.092Z" style="fill:#ee4e2c;"/><path d="M297.887,230.202l-13.528,0c0,3.129 -0.184,25.997 0.138,27.056l13.298,-0l0.092,-27.056l13.574,0l-0.046,-13.528c-2.255,0 -12.148,-0.276 -13.528,0.092l-0,13.436Z" style="fill:#ee4e2c;"/><path d="M54.157,162.471l0,13.574l26.964,-0l0.046,-27.01l-13.482,0l0.046,13.39l-13.574,0.046Z" style="fill:#ee4e2c;"/><path d="M270.831,54.157l13.528,0l-0.046,-13.482c0.506,-0.23 0.644,-0.184 1.472,-0.184l12.056,0l-0,-13.343l-27.056,0.092l0.046,26.917Z" style="fill:#ee4e2c;"/><path d="M230.202,54.157l13.528,0l-0,-27.055l-13.436,-0c-0.414,1.656 -0.092,10.997 -0.092,13.481l0,13.574Z" style="fill:#ee4e2c;"/><path d="M176.045,365.618l13.528,-0l-0,-27.102l-13.574,0l0.046,27.102Z" style="fill:#fffefe;"/><path d="M338.516,257.119l13.528,0l0.092,-26.825l-0.184,0c-2.393,-0.46 -10.445,-0.092 -13.436,-0.092l0,26.917Z" style="fill:#ee4e2c;"/><rect x="27.102" y="297.887" width="27.056" height="13.528" style="fill:#ee4e2c;"/><path d="M338.516,230.202l-0.092,-27.01l0,-0.138l-13.39,0.046l-0.046,27.056l13.528,0.046Z" style="fill:#ee4e2c;"/><path d="M379.145,311.277l13.528,0.046l0,-26.964l-13.528,0l0,26.918Z" style="fill:#fffefe;"/><path d="M351.998,392.673l-26.964,-0.092l0,13.574l26.918,-0l0.046,-13.482Z" style="fill:#ee4e2c;"/><path d="M338.516,230.202c2.991,0 11.043,-0.368 13.436,0.092l0.046,-27.102l-13.574,0l0.092,27.01Z" style="fill:#fffefe;"/><path d="M108.314,297.795l27.01,0.046l-0,-13.482l-27.01,0l0,13.436Z" style="fill:#fffefe;"/><rect x="392.673" y="284.359" width="13.482" height="26.963" style="fill:#ee4e2c;"/><path d="M81.397,176.045l13.389,-0l0.046,-27.01l-13.481,0l0.046,27.01Z" style="fill:#fffefe;"/><path d="M311.553,270.831l26.963,0l0,-13.481l-27.009,-0l0.046,13.481Z" style="fill:#ee4e2c;"/><path d="M94.786,202.962l0,-26.917l-13.389,-0l-0.046,26.917l13.435,0Z" style="fill:#ee4e2c;"/><path d="M406.293,338.608l13.344,-0.092l0.046,-27.009l-13.344,-0l-0.046,27.101Z" style="fill:#ee4e2c;"/><path d="M108.36,311.277l26.964,0.046l-0,-13.298l-27.01,-0l0.046,13.252Z" style="fill:#ee4e2c;"/><path d="M406.385,284.359l13.252,0l0.046,-27.009l-13.344,-0l0.046,27.009Z" style="fill:#ee4e2c;"/><path d="M352.136,230.294c2.117,-0.46 10.537,-0.092 13.344,-0.092l-0.046,-27.01l-13.252,0l-0.046,27.102Z" style="fill:#ee4e2c;"/><path d="M193.3,254.497l-0.046,-10.767c4.095,-0.184 12.285,-0.92 12.377,5.291c0.046,2.715 -1.932,4.417 -3.865,5.108c-1.702,0.598 -6.396,0.46 -8.466,0.368Zm-4.556,12.929l4.464,0l0.046,-8.328c5.429,-0.276 8.696,0.736 12.929,-1.932c2.669,-1.657 5.66,-5.2 4.51,-10.031c-0.829,-3.635 -3.865,-6.304 -7.362,-7.408c-3.175,-1.013 -10.767,-0.599 -14.587,-0.599l0,28.298Z" style="fill:#ee4e2c;"/><path d="M219.895,251.552c3.497,-1.012 6.488,1.518 7.178,4.187c0.966,3.681 -1.518,6.534 -4.279,7.224c-7.316,1.841 -10.675,-9.202 -2.899,-11.411Zm8.006,13.528l0.138,2.208l3.819,-0.046c0.231,-1.84 0.139,-17.208 0.092,-19.969l-3.957,-0.092l-0.046,2.162c-1.518,-0.874 -2.484,-1.794 -4.877,-2.162c-6.074,-1.059 -11.871,3.543 -11.917,10.031c-0,4.509 2.76,7.638 5.567,9.064c2.761,1.426 6.028,1.518 8.973,0.184c0.874,-0.414 1.472,-1.058 2.208,-1.38Z" style="fill:#ee4e2c;"/><path d="M237.472,275.939l5.338,0.046c1.012,-1.887 15,-28.022 15.184,-28.988c-6.396,-0 -4.878,-0.737 -6.764,2.852l-4.97,9.387c-0.782,-0.46 -1.38,-2.07 -1.84,-3.037c-0.644,-1.15 -4.555,-9.064 -5.199,-9.202l-5.43,-0c0.138,0.92 6.534,12.561 7.5,14.494c2.577,5.107 2.439,1.978 -1.978,10.813c-0.507,0.966 -1.565,2.668 -1.841,3.635Z" style="fill:#ee4e2c;"/><path d="M162.471,162.471l0,-13.528l-13.528,0l0,13.62l13.528,-0.092Z" style="fill:#fff;"/><path d="M27.102,270.693c1.61,0.414 11.089,0.138 13.527,0.138l0,-13.573l-13.527,-0l-0,13.435Z" style="fill:#ee4e2c;"/><path d="M270.785,379.145l0.092,-13.527l-13.619,-0l-0,13.527l13.527,0Z" style="fill:#ee4e2c;"/><path d="M216.628,352.044l13.574,-0l0,-13.482l-13.528,-0.046l-0.046,13.528Z" style="fill:#fffefe;"/><rect x="189.573" y="284.359" width="13.528" height="13.528" style="fill:#ee4e2c;"/><path d="M67.685,297.887l13.528,-0l0.046,-13.528l-13.574,0l-0,13.528Z" style="fill:#fff;"/><path d="M352.136,284.451l-0.092,13.436l13.528,-0l0.046,-13.436c-0.967,-0.23 -12.24,-0.23 -13.482,0Z" style="fill:#fffefe;"/><path d="M257.35,419.775l13.343,-0c0.414,-1.657 0.138,-11.135 0.138,-13.574l-13.573,0.138l0.092,13.436Z" style="fill:#ee4e2c;"/><path d="M216.674,338.516l0,-13.528l-13.528,0l-0.046,13.528l13.574,0Z" style="fill:#fffefe;"/><path d="M216.628,121.888l0.046,-13.574l-13.574,0l0,13.482l13.528,0.092Z" style="fill:#fffefe;"/><path d="M108.314,162.471l13.574,0l-0,-13.482l-13.482,-0.046l-0.092,13.528Z" style="fill:#fffefe;"/><path d="M324.988,338.47l13.528,0.046l0,-13.528l-13.528,0l0,13.482Z" style="fill:#ee4e2c;"/><path d="M54.157,230.202l0,13.528l13.482,-0l0.092,-13.482l-13.574,-0.046Z" style="fill:#ee4e2c;"/><path d="M379.191,216.72l13.482,-0.092l0.046,-13.436l-13.528,0l0,13.528Z" style="fill:#ee4e2c;"/><path d="M392.673,257.166l13.528,-0.047l-0,-13.251c-1.242,-0.414 -11.319,-0.138 -13.528,-0.138l0,13.436Z" style="fill:#ee4e2c;"/><path d="M284.359,54.157l13.436,0.046l0.046,-13.528l-13.528,0l0.046,13.482Z" style="fill:#fff;"/><path d="M365.71,176.045l13.389,-0l0.046,-13.574l-13.435,0l-0,13.574Z" style="fill:#ee4e2c;"/><path d="M392.673,311.507l-13.528,0.046l0,13.389l13.528,0.046l0,-13.481Z" style="fill:#ee4e2c;"/><path d="M365.48,176.045l-0,-13.574l-13.39,0l-0.046,13.574l13.436,-0Z" style="fill:#fffefe;"/><path d="M324.896,392.581l-13.389,0.046l-0,13.574l13.343,-0l0.046,-13.62Z" style="fill:#fff;"/><path d="M379.145,243.638l0,-13.436l-13.435,0l-0.046,13.436l13.481,-0Z" style="fill:#ee4e2c;"/><path d="M67.869,216.582l13.298,0.092l-0,-13.482l-13.298,0l-0,13.39Z" style="fill:#ee4e2c;"/><path d="M352.044,202.962l13.436,0.046l-0,-13.343l-13.39,-0l-0.046,13.297Z" style="fill:#fffefe;"/><path d="M379.145,202.962l-0.046,-13.251l-13.389,-0l-0,13.251l13.435,0Z" style="fill:#ee4e2c;"/><path d="M193.3,254.497c2.07,0.092 6.764,0.23 8.466,-0.368c1.933,-0.691 3.911,-2.393 3.865,-5.108c-0.092,-6.211 -8.282,-5.475 -12.377,-5.291l0.046,10.767Z" style="fill:#fffefe;"/><path d="M219.895,251.552c-7.776,2.209 -4.417,13.252 2.899,11.411c2.761,-0.69 5.245,-3.543 4.279,-7.224c-0.69,-2.669 -3.681,-5.199 -7.178,-4.187Z" style="fill:#fffefe;"/><path d="M27.24,27.24l94.556,0.046l-0,94.51l-95.017,-0l0.507,-0l-0.046,-94.556Zm-0,-0c-0.138,0.138 -0.092,-0.046 -0.184,0.368c-0,0.046 -0.185,90.553 -0,94.234c1.518,0.368 75.276,0.092 82.869,0.092c3.727,-0 8.374,0.276 11.963,-0.046c0.322,-3.589 0.046,-18.727 0.046,-23.559c-0,-4.831 0.276,-69.755 -0.092,-71.273c-5.062,-0.277 -17.623,-0 -23.513,-0c-4.417,-0 -69.755,-0.323 -70.997,0.092c-0,0.046 -0.092,0.046 -0.092,0.092Z" style="fill:#f38c76;"/><path d="M419.637,27.24l-0.092,94.556l-94.511,-0l0,-94.51l94.603,-0.046Zm-0,-0c-0.644,-0.461 -22.685,-0.184 -23.375,-0.184l-59.31,-0c-3.865,-0 -8.145,-0.185 -11.918,-0c-0.414,1.564 -0.138,75.23 -0.138,82.869c0,3.727 -0.23,8.374 0.046,11.963c3.589,0.322 18.728,0.046 23.559,0.046c4.831,-0 69.801,0.276 71.274,-0.092c0.276,-4.923 0.046,-17.761 0.046,-23.513l-0.184,-71.089Z" style="fill:#f38c76;"/><path d="M41.412,41.412l66.166,0.046l-0,66.12l-66.12,-0.092l-0.046,-66.074Zm-0,-0c-0.369,0.46 -0.231,2.944 -0.231,3.773c0,7.546 -0.184,60.552 0.092,62.439c0.507,0.184 64.372,0.46 66.397,0.046c0.414,-2.025 0.138,-65.89 -0.046,-66.397c-2.071,-0.276 -55.261,0 -64.234,-0.092l-1.564,0.046c-0.507,0.139 -0.23,0.046 -0.414,0.185Z" style="fill:#f6a998;"/><path d="M27.24,419.637l0.046,-94.603l94.602,0l-0.092,94.557l-94.556,0.046Zm-0,-0l71.089,0.184c5.844,-0 18.497,0.23 23.513,-0.046c0.368,-1.473 0.138,-66.443 0.138,-71.274c-0,-4.785 0.23,-20.016 -0.046,-23.559c-3.635,-0.276 -8.282,-0.046 -12.009,-0.046c-7.593,0 -81.397,-0.276 -82.869,0.138c-0.231,3.727 -0,8.053 -0,11.918l-0,59.31c-0,0.69 -0.277,22.731 0.184,23.375Z" style="fill:#f38c76;"/><path d="M405.419,41.412l-0,66.074l-66.121,0.092l0,-66.12l66.121,-0.046Zm-0,-0l-1.749,-0.231c-0.644,0.046 -1.334,0 -1.978,0c-7.546,0 -60.599,-0.184 -62.486,0.092c-0.138,0.507 -0.46,64.372 -0.046,66.397c2.025,0.414 65.891,0.138 66.397,-0.046c0.322,-2.071 -0,-55.261 0.092,-64.234c-0,-0.598 0.138,-1.518 -0.23,-1.978Z" style="fill:#f6a998;"/><path d="M41.412,405.419l0.046,-66.075l66.12,-0.046l-0,66.121l-66.166,-0Zm-0,-0c0.046,0.046 0.092,0.046 0.138,0.092c0.046,0.184 1.426,0.138 1.61,0.138c9.203,-0.092 62.301,0.23 64.464,-0.092c0.184,-0.46 0.46,-64.326 0.046,-66.397c-2.025,-0.414 -65.89,-0.092 -66.397,0.046c-0.276,2.071 0,55.262 -0.092,64.28c0,0.552 -0.092,1.519 0.231,1.933Z" style="fill:#f6a998;"/><path d="M121.888,257.396l26.963,-0.046l-0.046,40.491l-13.297,-0l-0,-12.884c-0.138,-1.288 0.184,0.828 -0.092,-0.322c-0,-0.046 -0.046,-0.046 -0.046,-0.138c-0,-0.092 -0.046,-0.092 -0.046,-0.138l-0,13.482l-27.01,-0.046l-10.399,0.046c-1.334,-0 -2.899,-0.276 -3.083,0.322c1.887,-0.46 10.813,-0.092 13.482,-0.138l27.01,-0l-0,13.298l-26.964,-0.046c0.322,0.276 0.138,0.276 1.335,0.276l25.629,-0l0.092,54.019c0.322,-1.841 0.092,-52.317 0.092,-54.065c2.484,-0 23.788,0.184 26.181,-0l0.782,-0.184l-26.917,-0l-0,-13.298c2.116,-0 12.193,0.322 13.435,-0.184l0.046,-40.537c-1.334,-0.507 -23.604,-0.092 -27.147,-0.185l-27.056,0.047l0,-12.746c-0.092,-0.782 0.092,-0.184 -0.184,-0.644c0,2.208 -0.322,12.239 0.184,13.528l27.056,0.092Z" style="fill:#f6ac9b;"/><path d="M67.685,149.035l13.482,0l-0.046,27.01l0.046,26.963l-13.482,-0.046l-13.114,0.046c-0.368,0.092 -0.23,0.092 -0.414,0.184l13.528,0l-0.046,11.826c-0,0.736 -0.092,1.104 0.23,1.564l-0,-13.39l13.298,0l-0,13.482l0.092,-0.322c0.276,-1.15 -0.046,0.966 0.092,-0.322l-0,-12.838l13.205,0l0.046,26.964c0.322,-0.322 0.276,-0.322 0.276,-1.334l-0.046,-25.63l53.973,0l-0.046,26.964c0.414,-0.23 0.276,-0.69 0.276,-1.334c-0.046,-4.418 0.138,-23.835 -0.046,-25.676c-1.472,-0.552 -35.844,-0.138 -40.675,-0.184l-26.963,0l0.046,-26.917l-0.046,-27.01l13.481,0c-0.046,-0.046 -0.138,-0.138 -0.184,-0.092c0,0.046 -0.092,-0.046 -0.138,-0.046l-13.159,-0.092l-0,-13.389l-0.138,0.322c-0.23,1.196 0.092,-0.875 -0.046,0.368l-0,12.699c-0.829,0 -12.654,-0.23 -13.482,0.23Z" style="fill:#f6a695;"/><path d="M406.155,257.35l-0,53.973l-13.482,-0l-13.528,-0.046l-13.573,0.046c-0.092,0.552 -0.322,25.629 -0.046,26.779c0.138,0.46 -0,0.138 0.23,0.414l-0.046,-27.009l13.435,0.046l13.528,-0.046l13.482,-0l-0.046,27.101l0.184,0l0.046,-27.101l13.344,-0l-0.046,27.009c0.276,-0.368 0.23,-0.184 0.23,-1.38l-0,-1.795c-0,-3.497 0.184,-22.5 -0.092,-23.926c-1.657,-0.415 -10.951,-0.092 -13.39,-0.092l-0,-26.964l-0.046,-27.009l13.344,-0l-0.046,27.009c0.23,-0.322 0.092,0.23 0.23,-0.598c0.23,-1.473 -0,-26.043 -0.092,-26.503c-1.933,-0.507 -10.721,-0 -13.574,-0.139l-13.528,0.047c0.046,0.046 0.138,-0 0.138,0.046c0.046,0.092 0.138,0.046 0.138,0.092l13.206,0.046Z" style="fill:#f6ac9b;"/><path d="M365.48,149.035l-0,40.446c-0.829,-0 -12.608,-0.23 -13.39,0.184l13.39,-0l-0,13.343l-13.436,-0.046l-13.62,0.092l0,0.138l13.574,0l-0.046,27.102l0.184,0l0.046,-27.102l13.252,0l0.046,27.01l-0,13.528c0.23,0.046 12.699,0.46 13.665,-0.092l-13.481,-0l0.046,-13.436l-0.046,-27.01l13.343,0l0,11.826c-0.046,0.69 -0.092,1.196 0.184,1.702l0,-13.528l13.528,0l-0.322,-0.138c-1.334,-0.322 -10.215,0.092 -13.252,-0.092l-13.435,0l-0,-13.251l13.389,-0c-0.368,-0.23 -0.23,-0.23 -1.38,-0.23l-12.055,-0l0.046,-13.436l-0,-13.574l-0.046,-13.528c-1.381,-0.368 -11.365,-0.138 -13.574,-0.138l0.276,0.138c1.058,0.23 10.399,0.092 13.114,0.092Z" style="fill:#f6a493;"/><path d="M351.998,379.145l0.184,-13.481l13.344,-0l-0,40.491l-13.344,-0l-0.138,-13.344c-0,-0.092 -0.046,-0.092 -0.046,-0.138l-0.046,13.482l-26.918,-0l0,-13.574l-0.138,0l-0.046,13.62l-13.343,-0l-0,-13.574c-0.507,0.828 -0.184,13.298 -0.138,13.62c1.518,0.414 11.411,0.23 13.619,0.138l27.056,-0c2.116,0.046 12.377,0.276 13.62,-0.138l0.046,-40.537l25.399,-0c0.184,-0 0.598,0.046 0.782,-0l0.782,-0.23l-27.009,0.046l-0,-13.344l12.055,-0c0.874,-0 0.92,0.046 1.426,-0.184l-13.527,0.046c-0.414,1.104 -0.184,11.365 -0.184,13.39c-2.025,-0 -12.286,-0.23 -13.436,0.184l-0,13.527Z" style="fill:#f59b88;"/><path d="M311.277,270.831l0.046,27.056c2.024,0.414 20.337,0.046 25.629,0.138l0.782,-0l0.782,-0.276l-26.963,0.092l-0,-27.01l-0.046,-13.481l40.491,-0l-0.046,27.101l0.184,0l0.046,-27.101l13.344,-0l-0,11.825c-0,0.23 -0.046,0.644 -0.046,0.828l0.23,0.828l-0,-13.573c-1.611,-0.461 -11.181,-0.046 -13.666,-0.139l-13.528,0c-4.463,-0.092 -9.11,0 -13.574,0c-2.806,0 -11.411,-0.368 -13.527,0.139l-0.138,13.573Z" style="fill:#f7afa0;"/><path d="M311.599,311.599l40.353,-0l-0,40.353l-40.353,-0l-0,-40.353Zm-0.23,40.445l40.721,0.092l0.046,-40.721l-40.675,-0.046l-0.092,40.675Z" style="fill:#f8beb1;"/><path d="M243.638,406.201l-0.046,13.39l-40.353,-0l-0,-40.4l20.383,0c0.874,0 5.89,0.277 6.534,-0.184l-27.102,0.138c-0.23,3.037 0,6.994 0,10.123c0,3.727 -0.23,29.172 0.092,30.553l40.538,-0.046c0.276,-1.151 0.092,-9.617 0.138,-12.102l-0.092,-1.15c-0,-0.046 -0.046,-0.092 -0.046,-0.184c-0,-0.046 -0.046,-0.092 -0.046,-0.138Z" style="fill:#f4927d;"/><path d="M40.629,189.711c3.773,-0.368 9.525,-0.046 13.528,-0.046c2.761,-0 11.457,-0.322 13.528,0.138c-0.368,-0.414 0.506,-0.184 -0.736,-0.322l-26.274,-0l0.092,-27.01c-0.368,0.46 -0.276,0.874 -0.276,1.611l0,1.61l0.092,23.789l-13.389,-0l-0,-40.492l27.009,0l-13.436,-0.184c-2.3,0 -12.285,-0.276 -13.711,0.138l-0.093,40.63c2.025,0.552 10.814,0.046 13.666,0.138Z" style="fill:#f6ac9b;"/><path d="M284.313,40.675l13.528,0l-0.046,13.528l0.23,-0.644c0.184,-2.163 -0.276,-10.031 0.046,-12.93c-0.046,-2.346 0.276,-12.147 -0.184,-13.573c-1.519,-0.231 -20.154,-0.093 -23.697,-0.093l-1.794,0c-1.887,0 -1.335,0 -1.611,0.277l27.056,-0.092l-0,13.343l-12.056,0c-0.828,0 -0.966,-0.046 -1.472,0.184Z" style="fill:#f7afa0;"/><path d="M222.702,195.508" style="fill:#fdfdfd;"/><path d="M216.812,201.766c0,-3.819 3.681,-4.923 6.028,-4.923c3.267,-0 5.383,1.196 7.914,3.543c0.506,0.506 1.012,0.552 1.381,0.046l0.736,-0.921c0.322,-0.414 0.414,-0.874 0.046,-1.334c-2.623,-3.083 -6.718,-4.739 -9.893,-4.739c-5.614,-0 -9.893,3.543 -9.893,8.328c0,10.537 17.807,7.822 17.807,16.013c0,3.174 -2.715,5.153 -6.856,5.153c-4.371,-0 -7.822,-2.761 -9.156,-4.187c-0.598,-0.552 -0.874,-0.69 -1.289,-0.092l-1.15,1.242c-0.322,0.414 -0.322,0.782 0.046,1.242c2.255,2.623 6.396,5.246 11.595,5.246c5.384,-0 10.537,-3.451 10.537,-8.604c0,-10.998 -17.853,-8.375 -17.853,-16.013Z" style="fill:#fff;fill-rule:nonzero;"/></g></svg>