<?xml version="1.0" encoding="UTF-8" standalone="no"?>
<svg
   width="100%"
   height="100%"
   viewBox="0 0 447 447"
   version="1.1"
   xml:space="preserve"
   style="fill-rule:evenodd;clip-rule:evenodd;stroke-linejoin:round;stroke-miterlimit:2;"
   id="svg207"
   sodipodi:docname="qr-shopeepay.svg"
   inkscape:version="1.2.1 (9c6d41e410, 2022-07-14)"
   xmlns:inkscape="http://www.inkscape.org/namespaces/inkscape"
   xmlns:sodipodi="http://sodipodi.sourceforge.net/DTD/sodipodi-0.dtd"
   xmlns="http://www.w3.org/2000/svg"
   xmlns:svg="http://www.w3.org/2000/svg"><defs
     id="defs211"><pattern
       id="EMFhbasepattern"
       patternUnits="userSpaceOnUse"
       width="6"
       height="6"
       x="0"
       y="0" /></defs><sodipodi:namedview
     id="namedview209"
     pagecolor="#505050"
     bordercolor="#ffffff"
     borderopacity="1"
     inkscape:showpageshadow="0"
     inkscape:pageopacity="0"
     inkscape:pagecheckerboard="1"
     inkscape:deskcolor="#505050"
     showgrid="false"
     inkscape:zoom="1.4933083"
     inkscape:cx="245.76305"
     inkscape:cy="250.1158"
     inkscape:window-width="1920"
     inkscape:window-height="1013"
     inkscape:window-x="-9"
     inkscape:window-y="-9"
     inkscape:window-maximized="1"
     inkscape:current-layer="svg207" /><path
     d="M 0.08498,446.915 H 446.91502 V 0.085 H 0.08498 Z"
     style="clip-rule:evenodd;fill:#ffffff;fill-rule:evenodd;stroke-linejoin:round;stroke-miterlimit:2"
     id="path2-2"
     sodipodi:nodetypes="ccccc" /><g
     id="g1690"
     transform="matrix(0.73118191,0,0,0.73118191,-345.62012,60.102055)"><path
       d="m 748.35386,179.45 h 52.178 c 0.184,-1.38 0.092,-3.589 0.046,-5.015 0,-1.749 -0.644,-2.715 -1.748,-3.221 -1.427,-0.737 -6.902,0.322 -8.743,0.552 -4.693,0.598 -42.792,5.291 -44.31,5.705 -3.267,0.875 -2.577,4.188 -2.577,7.592 v 40.17 c 0,3.727 -0.138,5.797 2.071,7.914 2.255,2.208 4.417,1.932 8.144,1.932 h 50.154 c 3.819,0 5.982,0.138 8.144,-2.116 2.117,-2.255 1.841,-4.509 1.841,-8.144 v -30.185 c 0,-5.659 0.828,-11.733 -8.19,-11.733 h -50.154 c -3.543,0 -7.086,0.92 -6.856,-3.451 z"
       style="fill:#ee4e2c"
       id="path18" /><path
       d="m 748.26186,254.497 -0.046,-10.767 c 4.095,-0.184 12.285,-0.92 12.377,5.291 0.046,2.715 -1.932,4.417 -3.865,5.108 -1.702,0.598 -6.396,0.46 -8.466,0.368 z m -4.556,12.929 h 4.464 l 0.046,-8.328 c 5.429,-0.276 8.696,0.736 12.929,-1.932 2.669,-1.657 5.66,-5.2 4.51,-10.031 -0.829,-3.635 -3.865,-6.304 -7.362,-7.408 -3.175,-1.013 -10.767,-0.599 -14.587,-0.599 z"
       style="fill:#ee4e2c"
       id="path112" /><path
       d="m 774.85686,251.552 c 3.497,-1.012 6.488,1.518 7.178,4.187 0.966,3.681 -1.518,6.534 -4.279,7.224 -7.316,1.841 -10.675,-9.202 -2.899,-11.411 z m 8.006,13.528 0.138,2.208 3.819,-0.046 c 0.231,-1.84 0.139,-17.208 0.092,-19.969 l -3.957,-0.092 -0.046,2.162 c -1.518,-0.874 -2.484,-1.794 -4.877,-2.162 -6.074,-1.059 -11.871,3.543 -11.917,10.031 0,4.509 2.76,7.638 5.567,9.064 2.761,1.426 6.028,1.518 8.973,0.184 0.874,-0.414 1.472,-1.058 2.208,-1.38 z"
       style="fill:#ee4e2c"
       id="path114" /><path
       d="m 792.43386,275.939 5.338,0.046 c 1.012,-1.887 15,-28.022 15.184,-28.988 -6.396,0 -4.878,-0.737 -6.764,2.852 l -4.97,9.387 c -0.782,-0.46 -1.38,-2.07 -1.84,-3.037 -0.644,-1.15 -4.555,-9.064 -5.199,-9.202 h -5.43 c 0.138,0.92 6.534,12.561 7.5,14.494 2.577,5.107 2.439,1.978 -1.978,10.813 -0.507,0.966 -1.565,2.668 -1.841,3.635 z"
       style="fill:#ee4e2c"
       id="path116" /><path
       d="M 777.66386,195.508"
       style="fill:#fdfdfd"
       id="path202" /><path
       d="m 771.77386,201.766 c 0,-3.819 3.681,-4.923 6.028,-4.923 3.267,0 5.383,1.196 7.914,3.543 0.506,0.506 1.012,0.552 1.381,0.046 l 0.736,-0.921 c 0.322,-0.414 0.414,-0.874 0.046,-1.334 -2.623,-3.083 -6.718,-4.739 -9.893,-4.739 -5.614,0 -9.893,3.543 -9.893,8.328 0,10.537 17.807,7.822 17.807,16.013 0,3.174 -2.715,5.153 -6.856,5.153 -4.371,0 -7.822,-2.761 -9.156,-4.187 -0.598,-0.552 -0.874,-0.69 -1.289,-0.092 l -1.15,1.242 c -0.322,0.414 -0.322,0.782 0.046,1.242 2.255,2.623 6.396,5.246 11.595,5.246 5.384,0 10.537,-3.451 10.537,-8.604 0,-10.998 -17.853,-8.375 -17.853,-16.013 z"
       style="fill:#ffffff;fill-rule:nonzero"
       id="path204" /></g><g
     id="g1138"
     style="fill:#ee4e2c;fill-opacity:1"
     transform="matrix(2.0012869,0,0,2.0012869,-328.65002,-12.369917)"><path
       style="fill:#ee4e2c;fill-opacity:1;fill-rule:evenodd;stroke:none"
       d="m 235.98064,96.444927 6.3437,-0.07572 v 6.322273 h -6.23042 z m -24.80839,12.644553 -6.30594,0.0379 -0.0755,-18.361102 6.38146,-0.03786 0.0378,5.451543 c 1.73696,0.265006 6.07937,-0.378579 6.15489,0.567869 l 0.22656,2.725772 c 0,1.060028 0,2.082188 -0.0755,3.180068 l -6.23041,0.11357 z m 12.80068,-18.247528 5.51297,-0.113574 v 5.527259 h -5.43745 z m 5.70177,-12.909558 h 12.64964 v 12.720268 l -12.72516,-0.03786 z m -18.31365,6.397992 6.07938,-0.03786 v 6.360134 h -6.1549 z m -12.08324,0 5.51298,0.03786 v 6.284418 l -5.55074,-0.07572 z m -12.76292,-6.43585 12.64964,0.03786 v 6.322276 l -12.72516,-0.07572 z m 62.30419,-6.397992 5.51298,0.113573 v 6.170845 h -5.55074 z m -49.50351,0 18.2759,0.07571 -0.0378,6.208703 -6.30594,0.113574 -0.0378,6.322276 -6.30594,0.03786 c -0.15104,-8.253031 1.20832,-5.981555 -5.66402,-6.473708 z m 79.78713,-18.39896 6.3437,0.07572 -0.0378,12.68241 h -6.26818 z m 12.83844,-6.397992 6.30594,0.07572 -0.11328,12.644552 -6.19266,-0.03786 z m 18.0871,12.720268 c -7.40099,0.113574 -6.23042,1.249312 -6.1549,-6.24656 l 6.30594,-0.07572 z m 0.22656,-18.361101 6.38146,0.03786 c -0.0378,6.928003 -0.7552,5.300112 4.87105,5.489401 2.15233,0.07572 1.58593,0.832875 1.54817,3.180067 -0.0378,1.552176 0.64192,9.161622 -0.49088,9.464486 -1.28385,0.340721 -5.24866,0.378579 -5.66402,-0.03786 -0.5664,-1.325028 0.11328,-5.300112 -0.52864,-5.905839 -0.79297,-0.795017 -4.68226,-0.227148 -6.11714,-0.265006 z m -31.07658,0 12.64964,0.03786 -0.0378,5.527259 h -12.64964 z m 12.76292,-19.269692 6.26818,0.07572 0.11328,6.322277 5.43746,0.03786 0.0755,6.360134 6.30594,0.03786 v 6.360134 l -11.8189,-0.07572 c -0.0378,-1.514318 0.22656,-5.527259 -0.33984,-6.057271 -1.17056,-0.870732 -15.97253,-0.265005 -18.88006,-0.302863 l 0.0378,-6.322276 12.76292,-0.113574 z m -18.42694,0.03786 5.55074,-0.03786 v 6.360134 l -5.55074,-0.113574 z m -62.34195,87.262553 6.26818,0.0757 0.15104,6.36013 h 6.30594 l 0.11328,-6.32227 11.74339,-0.0757 0.1888,6.2087 c 1.81249,0.49216 10.30851,0.26501 12.6874,0.18929 l 0.11328,-6.28442 -6.11714,-0.0379 c -0.49088,-1.62789 -0.22656,-4.54295 -0.22656,-6.36013 4.98434,-0.22715 6.1549,1.02216 6.38146,-1.4386 0.41536,-4.126518 0.11328,-4.997251 -1.47264,-5.110825 h -4.87106 l -0.0378,-5.527259 18.35142,-0.03786 c 0.0378,6.928003 -1.05728,5.678691 6.3437,5.527259 l -0.0378,-5.527259 -6.19266,-0.07572 v -6.322268 l 12.3098,0.151431 c 0.98177,0.416438 0.22656,-0.302863 0.49088,0.908591 l 0.0378,10.67594 17.93606,0.03786 -0.0755,-5.375827 -12.46084,-0.07572 0.0378,-12.758126 6.30594,0.03786 v 6.05727 c 1.47265,0.454296 5.0221,0.454296 6.45698,0 l 0.0378,-6.095128 5.92834,0.07572 c 0.67968,0.492153 0.52864,-0.832875 0.60416,0.984306 v 5.035106 l 5.17314,0.151432 c 0.33984,-6.284418 -1.43489,-6.511566 3.09633,-6.43585 1.17056,0 2.0768,0.03786 3.20961,-0.151432 l 0.0378,-5.754407 -18.01158,-0.07572 -0.15104,6.095129 -6.30594,-0.03786 V 65.931426 l 24.50632,-0.07572 c 0.83072,1.211454 0.45312,3.255783 0.52864,5.262254 l 5.7773,0.151432 0.0755,-5.527259 11.81891,-0.151432 c 0.45313,-1.438602 0.30208,-21.844032 0.0755,-24.531946 l -11.66787,-0.113574 0.0378,-6.208702 c 1.85024,-0.227148 4.64449,0.340721 6.04162,-0.340722 l 0.33984,-2.877203 c 0,-1.173597 0.0755,-2.195761 -0.1888,-3.331499 l -12.46084,-0.03786 -0.0378,-11.39524 c -0.11342,-1.249306 0.1509,-0.567863 -0.33998,-1.060016 -0.94401,-0.870733 -15.63269,-0.416438 -18.01158,-0.265006 l -0.1888,6.284418 -12.6874,0.03786 v -6.170844 c -1.5104,-0.340722 -4.30465,-0.416438 -5.73954,0.07572 v 6.095128 c -8.23171,0.03786 -6.1549,-1.28717 -6.45698,6.397992 h -6.04162 l -0.1888,6.24656 6.3437,0.151432 0.0378,-6.284418 6.41922,-0.03786 0.0378,6.322276 5.47522,0.113574 0.0378,6.284418 -24.58184,0.03786 c -0.26432,-6.776572 1.81249,-6.587282 -5.47522,-6.43585 -0.45312,1.514318 -0.49088,10.789513 0.0378,12.152399 h 30.0193 v 6.322276 l -5.43746,0.03786 c -0.0378,0.151432 -0.64192,12.265973 0.33985,12.682411 l 5.05985,0.227147 0.0378,11.811678 -18.20038,0.03786 v -6.284418 c 5.7773,-0.151432 6.23042,0.90859 6.26818,-2.157903 l -0.15104,-16.241057 c -1.69921,-0.18929 -4.72002,-0.454295 -5.9661,0.151432 -0.944,1.779323 -0.11328,9.653775 -0.33984,12.455263 l -6.26818,0.07571 -0.0755,-12.720268 -5.55074,-0.03786 -0.0755,18.323244 -6.26818,0.03786 c -0.0378,-0.984307 0.37761,-19.723988 -0.49088,-18.171812 -0.0378,0.07572 -0.1888,-0.07572 -0.22656,-0.07572 -0.3776,-0.07572 -0.30208,-0.113574 -0.83072,-0.151432 l -4.90882,0.151432 -0.11328,6.208702 -6.1549,0.03786 -0.0755,-12.758126 6.19266,-0.03786 0.11328,-5.375828 6.3437,-0.265005 0.0755,-6.360134 -6.3437,-0.113574 -0.0378,-6.284418 h 12.53636 l 0.22656,-6.397992 -6.3437,-0.07572 -0.0755,-6.360134 c -2.68096,0 -10.72387,-0.302864 -12.83844,0.227148 l 0.0755,6.05727 6.30594,0.151432 0.0378,6.284418 -11.78115,0.03786 c -0.5664,2.422908 -0.15104,26.614133 -0.15104,32.519971 0,1.249312 -0.49088,4.467237 0.41536,5.035107 0.71744,0.454295 2.98305,-0.07572 4.30465,0.227147 1.51041,0.302864 0.944,2.309335 0.90624,5.262254 -1.92576,0.530011 -9.40227,0.227148 -11.89443,0.227148 l -0.0378,-5.375828 c -1.47277,-0.378576 -29.5663,-0.416434 -31.22774,-0.03785 l -0.0755,5.375828 -6.30594,0.03786 -0.0378,-5.451544 c -1.20832,-0.189292 -5.81506,-0.605729 -6.23042,0.34072 l -0.11328,5.035106 6.26818,0.18929 c 0.11328,1.817181 0.26432,4.656526 -0.15104,6.360134 h -6.04162 l -0.0378,6.43585 h 6.19266 l 0.11328,6.24656 12.80068,0.18929 0.0378,5.527259 h 4.87105 c 1.20833,0.113574 0.52864,-0.151432 1.24609,0.340722 0.64192,1.135738 0.45312,4.505096 0.11328,6.095136 l -6.23042,0.11357 v 6.24656 c 8.15618,0.4543 6.00386,-1.85504 6.41922,6.43585 h 11.89444 z"
       id="path709" /><path
       style="fill:#ee4e2c;fill-opacity:1;fill-rule:evenodd;stroke:none"
       d="m 328.75726,170.87364 19.03109,0.0379 -0.0378,19.11826 -19.06885,-0.0379 z m -0.56641,-12.11454 -5.13537,0.11358 -0.0378,18.13395 -0.60416,0.30286 c -0.56641,0.15144 -0.15104,0.11358 -0.94401,0.22715 -0.22656,0 -1.3216,0 -1.62368,-0.0379 -2.83201,-0.0378 -7.24994,0.15144 -9.62883,-0.11357 -0.52864,-1.93076 -0.26432,-4.16437 -0.26432,-6.17084 l -6.04162,0.0379 -0.1888,12.37955 -5.3997,0.0757 v 6.28441 l 11.89444,0.0757 0.0378,5.26225 6.07938,0.0379 c 0,-1.77932 -0.30208,-3.86151 0.3776,-5.41368 l 6.30594,-0.0757 c 0.64192,1.66575 0.30208,3.71008 0.33984,5.41369 1.81248,0.18929 3.66273,-0.18929 5.36194,0.37858 0.15104,1.13573 0.15104,2.04432 0.15104,3.1422 0,0.4543 0.0378,1.21146 0,1.6279 0,0.41643 0,0.49215 -0.11328,0.90859 -0.41537,1.62789 -2.45441,0.90859 -5.47522,0.94644 l -0.0378,6.01942 24.27975,-0.0379 0.0378,-5.90584 -9.47779,-0.0757 c -2.6432,0.0379 -2.22784,0.11358 -2.86976,-0.49215 l -0.26433,-5.83012 c 0.83073,-0.98431 5.05986,-0.60573 6.3437,-0.60573 2.07681,0 4.72002,-0.41644 6.60802,0.34072 l 0.0755,6.09513 5.32417,0.11358 c -0.90624,-8.29089 0.26432,-6.398 6.3437,-6.47371 v -5.37583 l 6.26818,-0.22715 0.0378,-18.73968 h -5.85282 c -0.0755,3.06649 0.3776,10.2595 -0.26432,12.68241 -0.7552,0.11358 -5.7773,0.49215 -6.45698,-0.37858 -0.45312,-1.09788 -0.33984,-10.7138 -0.0755,-12.56883 l 6.23042,-0.26501 0.0755,-5.14868 -11.7434,-0.0379 c -0.7552,-2.00647 -0.22656,-9.91878 -0.33984,-12.64455 l -5.89057,-0.15143 v 5.22439 c -0.15105,1.85504 0.0378,0.41644 -0.49089,0.79502 -0.49088,0.49215 0.22656,0.26501 -1.1328,0.41644 l -4.94658,-0.15143 c -0.64192,-1.66575 -0.26432,-4.27795 -0.30208,-6.13299 l -5.92833,-0.15143 0.0378,4.92153 c -0.30209,1.59003 0.30208,0.60573 -0.67969,1.24931 z"
       id="path711" /><path
       style="fill:#ee4e2c;fill-opacity:1;fill-rule:evenodd;stroke:none"
       d="m 334.72335,102.5022 c -0.3776,0.49215 0.94401,0.41644 -0.79296,0.41644 l -5.09761,0.0757 v 11.54667 c -0.11328,1.74146 0.0755,0.45429 -0.64193,0.94645 -2.41664,0.265 -4.72001,-0.53002 -5.02209,0.75715 -0.0378,0.0757 -0.0378,0.15144 -0.0755,0.26501 -0.0755,0.53001 0,0 -0.0755,0.56787 l -0.30208,3.86151 c -1.43489,0.68144 -4.15362,-0.0379 -5.89058,0.45429 -0.3776,1.55218 -0.3776,4.5051 0,6.09513 5.05985,0.37858 21.2967,-0.68144 24.61959,0.30287 v 6.05727 l -6.04161,0.15143 -0.15104,6.09513 5.96609,0.49215 c 0.33985,0.34072 0.22656,0 0.37761,0.87073 0.1888,0.94645 -0.15105,2.87721 0.1888,4.20223 2.68096,0.0379 9.51555,-0.37857 11.63011,0.30287 l 0.1888,12.60669 6.04162,0.0379 c -0.0755,-2.6122 -0.98176,-17.79323 0.64192,-18.28539 0.41536,-0.11357 0.22656,-0.11357 0.79297,-0.18928 l 5.02209,0.15143 c 0.67968,1.7036 0.26432,3.78579 0.45312,5.60297 1.81249,0.30287 5.13538,-0.265 5.73954,0.37858 0.67968,1.24931 0.26432,4.08866 0.30208,5.79227 l 5.43746,0.0757 c 0.30208,-1.96861 0.30208,-16.65749 -0.11328,-18.28538 h -5.28642 v -6.32228 l 5.47522,-0.0379 0.0378,-11.88739 -5.55074,0.0379 c -0.0378,1.66575 0.30208,4.24009 -0.30208,5.30011 -1.73696,0.90859 -15.51941,0.15143 -18.88006,0.30286 v 6.17085 l 6.23042,0.11357 0.15104,6.39799 -6.41922,0.0379 -0.0755,-6.39799 -5.43746,-0.0379 -0.0755,-6.36013 5.47522,-0.0757 0.0378,-5.4894 h -11.85668 v 5.45154 c -1.09504,0.18929 -1.96352,0.15143 -3.0208,0.15143 -0.49089,0 -1.17057,0.0379 -1.62369,0 -1.20832,-0.0378 -0.79296,0.15144 -1.54816,-0.34072 -0.49089,-0.83287 -0.49089,-4.12651 0,-4.99725 0.5664,-0.60572 5.24865,-0.34072 6.11713,-0.34072 0.0755,-2.19576 -1.01952,-12.22811 0.71745,-12.68241 1.3216,-0.30286 3.51169,-0.0379 5.32417,-0.15143 l 0.15104,-6.170843 -12.34755,0.03786 c 0,1.09788 0,2.157902 0.0378,3.255783 0,0.26501 0.0378,1.40074 0,1.59003 -0.22657,1.43861 0.26432,0.90859 -0.52865,1.09788 z"
       id="path713" /><path
       style="fill:#ee4e2c;fill-opacity:1;fill-rule:evenodd;stroke:none"
       d="m 242.43762,183.66963 6.26818,0.0379 0.0755,6.36013 5.55074,0.0757 c 0,1.40074 0.67968,5.07296 -0.7552,5.41368 -1.66145,0.34072 -2.94529,-0.15143 -4.8333,0.26501 l -0.0755,12.68241 -19.06886,-0.0379 0.15104,-12.79598 12.64964,-0.18929 z m 24.65736,36.7222 h 6.23042 c -0.0378,-2.12004 -0.30208,-10.52451 0.1888,-11.88739 1.73697,-0.56787 3.36065,-0.15143 5.28642,-0.37858 l 0.0378,-5.75441 c -2.64321,-0.265 -4.83329,0.49215 -5.24866,-0.64358 l -0.0755,-5.79227 c -8.57155,0 -5.3997,-0.75716 -6.07938,4.5051 l -0.5664,1.59003 -6.04162,-0.0757 c -0.26432,-2.99077 0.33984,-9.57806 -0.30208,-11.92525 l -6.07938,-0.0379 -0.0755,-6.36013 -5.5885,-0.0379 -0.11328,-6.32227 c -8.11842,-0.90859 -6.26818,0.15143 -6.38146,6.32227 l -5.81506,0.15143 c -0.3776,0.41644 -0.41536,0.41644 -0.49088,1.59004 -0.11328,1.17359 0.33984,3.89937 -0.22656,4.50509 -0.5664,0.53001 -4.83329,0.26501 -6.07938,0.22715 l -0.11328,-6.2087 -4.90881,-0.0379 c -0.0378,0 -0.1888,0.15143 -0.26432,0.0757 -0.79297,-1.32503 -0.41536,11.73596 -0.41536,12.37954 0,1.47646 -0.41537,11.01666 0.41536,12.26598 l 5.13537,0.0757 -0.0755,6.24656 -5.47521,0.11358 0.0755,5.56511 11.93219,-0.11357 0.0378,-5.45154 12.72516,-0.0757 0.0378,-6.32228 5.51298,0.15143 0.22656,6.24657 6.00386,-0.0379 c 0.33984,-1.06003 0.22656,-2.12005 0.22656,-3.29364 -0.0755,-3.55865 -0.22656,-3.36936 4.79553,-3.18007 2.07681,0.0757 1.58593,0.56787 1.54817,2.83934 -0.0378,2.91507 -0.11328,6.24657 0,9.08591 z"
       id="path715" /><path
       style="fill:#ee4e2c;fill-opacity:1;fill-rule:evenodd;stroke:none"
       d="m 180.05791,52.832579 c -0.1888,-2.990778 -0.33984,-30.324211 0.1888,-30.854222 0.49088,-0.492153 27.75369,-0.37858 30.81226,-0.18929 l 0.0755,31.157085 c -2.75649,0.265006 -29.75498,0.302864 -31.07658,-0.113573 z M 173.67645,18.041131 V 58.13269 l 0.1888,1.438602 43.49966,-0.03786 c 0.86848,-2.839345 0.1888,-38.009373 0.22656,-44.028785 l -43.91502,-0.113574 z"
       id="path717" /><path
       style="fill:#ee4e2c;fill-opacity:1;fill-rule:evenodd;stroke:none"
       d="m 341.40689,22.016215 c 2.26561,-0.605727 12.46084,-0.227148 15.55717,-0.227148 l 14.65093,0.07572 c 0.60416,0.113574 0.52864,0.113574 0.944,0.302864 l -0.0378,30.740648 c -2.19009,0.340722 -29.45289,0.340722 -31.11434,-0.03786 z m 36.47628,37.517219 c 0.64192,-1.930755 0.15104,-38.577242 0.26432,-44.142359 -6.5325,0.07572 -39.98797,-0.454295 -43.19758,0.18929 0.15105,5.072964 -0.3776,42.135888 0.11328,43.3852 0.49089,1.325028 8.15619,0.567869 10.0442,0.567869 10.00643,0 23.56231,-0.378579 32.77578,0 z"
       id="path719" /><path
       style="fill:#ee4e2c;fill-opacity:1;fill-rule:evenodd;stroke:none"
       d="m 180.02015,183.89678 c 1.35936,-0.4543 23.71335,-0.30287 28.92425,-0.22715 0.1888,0 0.7552,0 0.944,0 l 0.83072,0.18929 c 0.0755,0.0379 0.18881,0.0757 0.26433,0.11357 0.49088,1.47646 0.41536,27.56058 0.15104,30.85422 -3.02081,0.26501 -29.41514,0.34072 -31.11434,-0.15143 z m -6.11714,-6.73872 c -0.41536,1.47646 -0.49088,41.11373 -0.0755,43.3852 l 43.6507,-0.0379 c 0.3776,-2.83934 0.33984,-41.68159 -0.0755,-43.30948 z"
       id="path721" /><path
       style="fill:#ee4e2c;fill-opacity:1;fill-rule:evenodd;stroke:none"
       d="m 334.98767,77.591672 12.53636,0.113574 c 0.11328,-2.120045 -0.30208,-4.391521 0.30208,-6.284418 l 4.34242,-0.151432 c 2.60545,0.340721 1.09504,1.703607 1.5104,6.397992 h 4.87106 c 1.58592,0.302864 0.64192,-0.265006 1.20832,0.643585 l 0.0378,5.451544 c -0.26432,0.795016 0.60416,0.832874 -3.17185,0.757158 -1.28384,0 -2.15232,0.18929 -3.32289,-0.302863 l -0.11328,-6.095129 h -5.09761 l -0.11328,17.944665 11.55459,-0.03786 c 0.11328,-1.060023 0.0755,-1.703608 0.0755,-2.650056 -0.0378,-2.650056 0,-2.044329 0.45312,-2.498624 1.13281,-0.832875 10.04419,0.151431 12.4986,-0.416438 0.0755,-2.76363 -0.33984,-10.524507 0.22656,-12.606694 h 5.32418 v -6.360134 h -11.78116 c -1.43488,-7.306583 6.23042,-5.640834 -23.44903,-5.640834 l -6.98562,0.07572 c -0.0755,0 -0.15104,0.03786 -0.22656,0.03786 -1.69921,0.454295 -0.64193,9.691633 -0.67969,11.622388 z"
       id="path723" /><path
       style="fill:#ee4e2c;fill-opacity:1;fill-rule:evenodd;stroke:none"
       d="m 229.2971,177.19592 0.0755,-11.96311 c 1.96353,-0.64358 4.22914,-0.22715 6.23042,-0.34072 l 0.1888,-6.05727 c 1.92577,-0.68144 4.22914,-0.22715 6.19266,-0.37858 l 0.15104,-5.79227 -4.75777,-0.0757 c -1.51041,-0.18929 -0.5664,0.18929 -1.28385,-0.4543 -0.33984,-0.60572 -0.3776,-10.37307 -0.0755,-11.47095 l 12.6874,-0.34073 c 0.52864,1.6279 0.26432,3.59651 0.30208,5.33797 l 11.5546,0.11358 -0.0378,-5.14868 c -7.51426,-0.22715 -6.38146,1.85504 -6.38146,-6.43585 l -5.28642,-0.0379 c -0.7552,-1.81718 -0.0755,-4.35366 -0.45312,-6.32228 l -5.62626,-0.0379 -0.22656,6.2087 c -1.6992,0.37858 -5.09761,0.41644 -6.64578,-0.0379 l -0.22656,-6.13299 -6.04162,0.0757 -0.1888,18.13395 -5.47521,0.18929 -0.0755,12.56884 -6.30594,-0.0379 -0.0378,6.43585 c 0.944,0 5.43745,-0.15143 5.92833,0.11358 1.32161,0.75716 -0.26432,10.14592 0.64193,11.54667 0.52864,0.87073 4.19137,0.49215 5.17313,0.34072 z"
       id="path725" /><path
       style="fill:#ee4e2c;fill-opacity:1;fill-rule:evenodd;stroke:none"
       d="m 285.48416,202.40931 v 6.05727 h 6.3437 l 0.0755,-6.36013 6.11714,0.0757 c 1.28384,1.77932 0.41536,0.83288 0.45312,1.13574 v 17.07393 l 5.17314,0.0379 0.22656,-5.52726 c 1.58592,-0.53001 4.87105,-0.56787 6.5325,0 l 0.0378,5.56512 5.89058,-0.22715 c 0,-1.74147 -0.26432,-3.7858 0.33984,-5.4894 l 6.1549,-0.0757 -0.0378,-5.9437 c -1.88801,-0.0757 -4.53122,0.37858 -6.19266,-0.30286 -0.52864,-1.81718 -0.26432,-4.08866 -0.26432,-6.05727 -1.92577,-0.0379 -4.2669,0.30286 -6.07938,-0.30286 -0.5664,-1.62789 -0.15104,-4.35367 -0.22656,-6.20871 l -30.73674,0.0379 0.15104,5.83013 z"
       id="path733" /><path
       style="fill:#ee4e2c;fill-opacity:1;fill-rule:evenodd;stroke:none"
       d="m 303.7223,133.96215 c -0.41536,0.30286 0.0755,0.18929 -1.09505,0.41644 -0.11328,0 -0.83072,0.0379 -0.98176,0.0379 h -5.17313 v 5.98155 l -5.3997,0.18929 -5.09762,-0.15143 v 18.28538 l 5.85282,0.0379 -0.0378,-6.05727 0.5664,-0.34072 c 1.47265,-0.53001 3.92705,-0.26501 5.5885,-0.26501 l 0.11328,-6.13298 c 1.62369,-0.49216 4.22913,0.18929 5.32418,-0.53001 0.64192,-1.32503 -0.11328,-3.59651 0.52864,-5.18654 l 12.6874,-0.0757 v -5.7544 c -2.03905,-0.56787 -4.4557,0.265 -6.49474,-0.53002 l -0.15104,-6.17084 -5.81506,0.11357 c 0,0.4543 0.0378,6.70086 -0.30208,5.83013 0,-0.0379 -0.0755,0.18929 -0.11328,0.30286 z"
       id="path735" /><path
       style="fill:#ee4e2c;fill-opacity:1;fill-rule:evenodd;stroke:none"
       d="m 186.40161,46.396729 c 3.05857,0.492153 14.27332,0.265005 18.31366,0.151431 0.22656,-2.233618 0.30208,-16.846784 -0.11328,-18.361101 -2.00129,-0.113574 -17.48294,-0.302864 -17.97382,0.189289 -0.49088,0.492154 -0.30208,16.051768 -0.22656,18.020381 z"
       id="path739" /><path
       style="fill:#ee4e2c;fill-opacity:1;fill-rule:evenodd;stroke:none"
       d="m 186.43937,208.27729 c 1.47264,0.41644 16.16133,0.34072 18.2759,0.11357 l -0.0378,-18.32324 c -2.07681,-0.11357 -17.55846,-0.30286 -18.04934,0.18929 -0.49088,0.49215 -0.30208,16.01391 -0.1888,18.02038 z"
       id="path741" /><path
       style="fill:#ee4e2c;fill-opacity:1;fill-rule:evenodd;stroke:none"
       d="m 347.78835,46.661734 18.20038,0.03786 c 0.3776,-1.47646 0.3776,-16.998216 0.0378,-18.474675 l -18.12486,-0.07572 z"
       id="path743" /><path
       style="fill:#ee4e2c;fill-opacity:1;fill-rule:evenodd;stroke:none"
       d="m 273.74076,171.02508 0.0755,5.90583 c 4.4557,0.53002 6.1549,-1.85503 5.51298,5.26226 -0.1888,1.85504 0.45312,1.4386 -5.5885,1.70361 l -0.0378,11.54667 h 5.17314 c 0,-0.98431 0,-1.81718 -0.0378,-2.72577 0,-0.15144 0,-1.21146 0,-1.28717 0.1888,-1.21146 0.26432,-0.98431 0.60416,-1.32503 l 12.34756,-0.0379 v -6.32228 c -7.0989,-0.45429 -6.3437,1.55218 -6.3437,-4.7701 0,-3.10435 0.1888,-11.77382 -0.15104,-13.74243 l -6.1549,-0.0379 -0.0755,-6.36013 -5.47522,0.0379 c -0.1888,1.55217 -0.30208,4.95939 0.11328,6.39799 l 5.36194,0.0379 -0.0378,5.41368 c -1.39712,0.0757 -4.49345,-0.37858 -5.28642,0.30287 z"
       id="path745" /><path
       style="fill:#ee4e2c;fill-opacity:1;fill-rule:evenodd;stroke:none"
       d="m 298.62468,109.12734 5.24866,0.15143 0.0755,5.90584 6.04162,0.0379 c -0.0755,-2.00647 -0.26432,-4.24009 0.22656,-6.28442 l 6.04162,-0.0379 c 0.5664,-1.85504 0.0755,-4.08866 0.30208,-6.05727 1.73696,-0.83288 9.25123,-0.30287 11.81891,-0.37858 v -5.830125 c -6.7213,-1.173597 -5.55073,3.861515 -5.51297,-12.114542 h -6.04162 c -0.0755,13.591001 2.11456,12.038826 -6.38146,11.96311 -0.0755,5.300117 0.86848,6.170847 -1.43489,6.435847 -1.62368,0.18929 -7.74082,-0.265 -10.53507,0.11358 z"
       id="path749" /><path
       style="fill:#ee4e2c;fill-opacity:1;fill-rule:evenodd;stroke:none"
       d="m 186.47713,140.28443 6.30594,0.11357 0.11328,5.56512 6.30594,0.15143 0.15104,6.28442 5.43746,-0.0757 v -11.88739 l -5.62626,-0.15143 -0.0378,-12.72027 c -8.42051,0 -6.00386,1.02216 -6.41922,-6.36014 l -6.26818,0.0379 z"
       id="path753" /><path
       style="fill:#ee4e2c;fill-opacity:1;fill-rule:evenodd;stroke:none"
       d="m 310.17928,152.02039 c -0.45312,1.24931 -8.04291,0.18929 -11.63012,0.68144 -0.0755,2.12005 -0.33984,10.78952 0.15104,12.1524 l 11.25252,0.0757 0.0755,-6.28442 6.30594,-0.15143 0.1888,-6.13299 c 2.34112,-0.64358 8.98691,-0.22715 11.74339,-0.26501 v -6.09512 c -3.17185,-0.0757 -15.82149,-0.60573 -17.70949,0.22714 -0.71744,1.36289 -0.11328,4.08866 -0.3776,5.79227 z"
       id="path755" /><path
       style="fill:#ee4e2c;fill-opacity:1;fill-rule:evenodd;stroke:none"
       d="m 173.86525,127.45058 c -0.41536,1.81719 -0.45312,41.15159 -0.0378,43.42306 l 6.23042,-0.11357 -0.11328,-43.23377 z"
       id="path757" /><path
       style="fill:#ee4e2c;fill-opacity:1;fill-rule:evenodd;stroke:none"
       d="m 366.55513,202.1443 11.59236,-0.0378 -0.15104,-6.43585 -5.3997,-0.11358 -0.0755,-5.07296 -6.04162,-0.0757 c -0.11328,1.77932 0.1888,3.59651 -0.26432,5.2244 -1.35936,0.49215 -4.60673,0.22714 -6.23042,0.265 l -0.0378,18.85326 6.00386,-0.11358 V 203.3179 c 0.1888,-1.24931 -0.45312,-0.83288 0.60416,-1.1736 z"
       id="path765" /><path
       style="fill:#ee4e2c;fill-opacity:1;fill-rule:evenodd;stroke:none"
       d="m 248.44148,158.64553 c -0.71744,0.68144 -4.83329,0.34072 -5.81506,0.34072 l -0.0378,6.01941 6.07938,0.0379 c 0.67968,1.66575 0.1888,3.71008 0.41536,5.4894 l 4.94658,0.0757 c 0.90624,-6.32228 -2.30337,-5.56512 6.5325,-5.60298 l -0.0378,-12.4174 H 249.0078 l -0.0378,5.22439 c -0.1888,1.8929 0.0378,0.41644 -0.52864,0.83288 z"
       id="path769" /><path
       style="fill:#ee4e2c;fill-opacity:1;fill-rule:evenodd;stroke:none"
       d="m 378.03421,164.92995 -0.0755,-5.83013 c -1.73697,0 -3.70049,0.18929 -5.36194,-0.22714 -0.60416,-1.77933 -0.22656,-4.31581 -0.22656,-6.24656 h -5.81506 l -0.15104,6.28441 -6.26818,0.18929 -0.0378,5.79227 c 2.00129,0.11357 4.2669,-0.30286 6.11714,0.34072 l 0.1888,5.37583 h 5.85282 l 0.15104,-5.30011 c 1.62369,-0.75716 3.85153,-0.37858 5.62626,-0.37858 z"
       id="path771" /><path
       style="fill:#ee4e2c;fill-opacity:1;fill-rule:evenodd;stroke:none"
       d="m 378.07197,102.5022 0.15104,-6.019415 h -18.2759 l 0.0378,6.057275 c 7.92963,-0.0757 6.26818,-1.06003 6.38146,6.39799 h 6.00386 l 0.11328,-6.13299 c 1.58593,-0.68144 3.85153,-0.37858 5.5885,-0.30286 z"
       id="path785" /><path
       style="fill:#ee4e2c;fill-opacity:1;fill-rule:evenodd;stroke:none"
       d="m 273.28764,140.51157 -5.85282,0.0379 c -0.0755,1.74147 0.22656,3.74794 -0.30208,5.37583 -1.47264,0.60573 -4.41793,0.22715 -6.1549,0.30286 l -0.0378,5.9437 h 17.93606 l -0.0378,-5.90584 c -6.04162,-0.68144 -5.55074,2.04433 -5.55074,-5.75441 z"
       id="path791" /><path
       style="fill:#ee4e2c;fill-opacity:1;fill-rule:evenodd;stroke:none"
       d="m 199.27781,170.76007 18.16262,0.0379 0.0378,-5.52726 -12.61188,-0.0379 -0.0755,-6.32228 -5.55074,0.0379 z"
       id="path793" /><path
       style="fill:#ee4e2c;fill-opacity:1;fill-rule:evenodd;stroke:none"
       d="m 180.05791,102.69149 10.30851,0.0379 2.34113,-0.0379 0.0755,-1.62789 -0.0378,-1.590038 v -1.28717 -1.779323 h -12.6874 z"
       id="path797" /><path
       style="fill:#ee4e2c;fill-opacity:1;fill-rule:evenodd;stroke:none"
       d="m 211.28553,133.88643 h 12.53636 l 0.0378,-6.32227 h -12.53636 z"
       id="path805" /><path
       style="fill:#ee4e2c;fill-opacity:1;fill-rule:evenodd;stroke:none"
       d="m 279.1027,220.54326 12.80068,-0.11357 -0.0378,-5.52726 -12.80068,0.11357 z"
       id="path811" /><path
       style="fill:#ee4e2c;fill-opacity:1;fill-rule:evenodd;stroke:none"
       d="m 334.79887,84.481817 -5.89057,0.03786 -0.0755,11.508815 h 5.89057 z"
       id="path817" /><path
       style="fill:#ee4e2c;fill-opacity:1;fill-rule:evenodd;stroke:none"
       d="m 261.05336,176.8552 5.73954,0.18929 c 0.22656,-2.19576 0.33984,-9.65378 -0.11328,-11.54667 h -5.62626 z"
       id="path819" /><path
       style="fill:#ee4e2c;fill-opacity:1;fill-rule:evenodd;stroke:none"
       d="m 323.20652,220.42969 11.55459,-0.15143 v -5.18654 l -11.51683,-0.0379 z"
       id="path821" /><path
       style="fill:#ee4e2c;fill-opacity:1;fill-rule:evenodd;stroke:none"
       d="m 316.67402,21.751209 c 1.81248,0.113574 4.72001,0.416438 6.04162,-0.151432 0.0755,-0.07572 0.11328,-0.265005 0.11328,-0.227147 l 0.22656,-2.687914 c 0,-1.060022 0,-2.120045 0,-3.180067 l -6.41922,-0.07572 z"
       id="path825" /><path
       style="fill:#ee4e2c;fill-opacity:1;fill-rule:evenodd;stroke:none"
       d="m 204.79079,140.20871 6.41922,0.11357 v -6.28441 l -6.38146,-0.0379 z"
       id="path827" /><path
       style="fill:#ee4e2c;fill-opacity:1;fill-rule:evenodd;stroke:none"
       d="m 173.67645,109.1652 6.23042,-0.0379 0.11328,-6.32228 h -6.3437 z"
       id="path831" /><path
       style="fill:#ee4e2c;fill-opacity:1;fill-rule:evenodd;stroke:none"
       d="m 335.10096,183.59391 6.30593,-0.0379 -0.0755,-6.28441 -6.23041,0.0378 z"
       id="path835" /><path
       style="fill:#ee4e2c;fill-opacity:1;fill-rule:evenodd;stroke:none"
       d="m 291.9789,177.19592 6.26818,-0.0757 -0.0755,-6.24656 -6.23042,0.0379 z"
       id="path837" /><path
       style="fill:#ee4e2c;fill-opacity:1;fill-rule:evenodd;stroke:none"
       d="m 186.55265,152.39897 6.19266,-0.0379 v -6.28442 l -6.30594,0.0757 z"
       id="path839" /><path
       style="fill:#ee4e2c;fill-opacity:1;fill-rule:evenodd;stroke:none"
       d="m 211.28553,158.68339 h 6.19266 l -0.0378,-6.20871 h -6.1549 z"
       id="path843" /><path
       style="fill:#ee4e2c;fill-opacity:1;fill-rule:evenodd;stroke:none"
       d="m 316.9761,77.81882 6.07938,0.151432 -0.0378,-6.057271 -6.07938,-0.227148 z"
       id="path845" /><path
       style="fill:#ee4e2c;fill-opacity:1;fill-rule:evenodd;stroke:none"
       d="m 316.82506,201.8793 6.00386,-0.0757 -0.0378,-5.9437 h -5.92834 z"
       id="path851" /><path
       style="fill:#ee4e2c;fill-opacity:1;fill-rule:evenodd;stroke:none"
       d="m 173.71421,121.20402 c 6.68354,-0.0757 6.87234,1.36289 6.26818,-5.56511 l -6.19266,-0.11358 z"
       id="path853" /><path
       style="fill:#ee4e2c;fill-opacity:1;fill-rule:evenodd;stroke:none"
       d="m 360.02263,115.29819 5.89058,-0.0379 0.0378,-5.86799 c -1.62368,-0.0757 -4.45569,-0.37858 -5.89058,0.18929 z"
       id="path857" /><path
       style="fill:#ee4e2c;fill-opacity:1;fill-rule:evenodd;stroke:none"
       d="m 211.24777,145.96312 6.30594,-0.0757 -0.0378,-5.45154 -6.3437,0.0379 z"
       id="path869" /><path
       style="fill:#ee4e2c;fill-opacity:1;fill-rule:evenodd;stroke:none"
       d="m 309.95272,84.481817 h 0.15104 l -5.9661,0.07572 v 5.867981 l 5.81506,0.07572 z"
       id="path871" /><path
       style="fill:#ee4e2c;fill-opacity:1;fill-rule:evenodd;stroke:none"
       d="m 199.24005,127.45058 5.55074,0.0379 v -6.2087 l -5.51298,-0.0757 z"
       id="path879" /><path
       style="fill:#ee4e2c;fill-opacity:1;fill-rule:evenodd;stroke:none"
       d="m 192.85859,121.05259 6.26818,0.0379 0.0378,-5.45154 h -6.30594 z"
       id="path881" /><path
       style="fill:#ee4e2c;fill-opacity:1;fill-rule:evenodd;stroke:none"
       d="m 242.62642,152.0961 h 5.7773 l 0.15104,-5.83012 -5.92834,-0.0379 z"
       id="path883" /><path
       style="fill:#ee4e2c;fill-opacity:1;fill-rule:evenodd;stroke:none"
       d="m 186.47713,170.76007 6.26818,-0.0379 v -5.41368 l -6.30594,0.0378 z"
       id="path885" /><path
       style="fill:#ee4e2c;fill-opacity:1;fill-rule:evenodd;stroke:none"
       d="m 335.28976,152.05825 5.77729,0.0378 0.15104,-5.79226 -5.92833,-0.11357 z"
       id="path887" /><path
       style="fill:#ee4e2c;fill-opacity:1;fill-rule:evenodd;stroke:none"
       d="m 211.28553,121.09045 6.1549,0.0379 0.0378,-5.52726 h -6.19266 z"
       id="path889" /><path
       style="fill:#ee4e2c;fill-opacity:1;fill-rule:evenodd;stroke:none"
       d="m 267.39706,183.29105 5.7773,0.15143 v -5.83012 l -5.7773,-0.11358 z"
       id="path891" /><path
       style="fill:#ee4e2c;fill-opacity:1;fill-rule:evenodd;stroke:none"
       d="m 372.59675,220.39183 v -5.26225 l -6.19266,-0.0379 -0.0378,5.33797 z"
       id="path893" /><path
       style="fill:#ee4e2c;fill-opacity:1;fill-rule:evenodd;stroke:none"
       d="m 378.14749,177.04449 0.11328,-6.01941 -5.47522,0.0379 v 5.9437 z"
       id="path895" /><path
       style="fill:#ee4e2c;fill-opacity:1;fill-rule:evenodd;stroke:none"
       d="m 323.05548,83.913948 5.32417,0.18929 -0.11328,-6.170844 -5.21089,0.03786 z"
       id="path897" /><path
       style="fill:#ee4e2c;fill-opacity:1;fill-rule:evenodd;stroke:none"
       d="m 341.48241,215.05386 0.11329,5.37583 5.96609,-0.0757 -0.0378,-5.26225 z"
       id="path899" /><path
       style="fill:#ee4e2c;fill-opacity:1;fill-rule:evenodd;stroke:none"
       d="m 328.30413,134.03787 c -0.86848,-0.30287 -4.38017,-0.37858 -4.98433,0.11357 l 0.0378,5.75441 c 1.17056,0.53001 3.58721,0.37858 4.98433,0.15143 z"
       id="path901" /><path
       style="fill:#ee4e2c;fill-opacity:1;fill-rule:evenodd;stroke:none"
       d="m 310.51912,120.97688 h 5.92834 v -5.26226 l -6.00386,-0.0378 z"
       id="path903" /><path
       style="fill:#ee4e2c;fill-opacity:1;fill-rule:evenodd;stroke:none"
       d="m 347.97716,214.71314 5.21089,-0.0379 v -2.68791 l 0.0378,-1.62789 -0.0755,-1.66575 -5.17313,0.0757 z"
       id="path905" /><path
       style="fill:#ee4e2c;fill-opacity:1;fill-rule:evenodd;stroke:none"
       d="m 353.60341,220.42969 5.89058,-0.18929 v -5.14868 h -5.89058 z"
       id="path909" /><path
       style="fill:#ee4e2c;fill-opacity:1;fill-rule:evenodd;stroke:none"
       d="m 310.48136,170.60864 h 5.85282 l 0.15104,-5.18654 -6.04162,-0.0379 z"
       id="path913" /><path
       style="fill:#ee4e2c;fill-opacity:1;fill-rule:evenodd;stroke:none"
       d="m 236.24496,170.49506 1.43489,0.15144 3.20961,-0.0379 1.17056,-0.0379 0.11328,-3.14221 -0.0378,-0.64358 v -1.32503 l -5.92834,-0.0379 z"
       id="path919" /><path
       style="fill:#ee4e2c;fill-opacity:1;fill-rule:evenodd;stroke:none"
       d="m 328.87054,145.66025 h 5.77729 l 0.15104,-4.95939 -5.85281,-0.0757 z"
       id="path931" /><path
       style="fill:#ee4e2c;fill-opacity:1;fill-rule:evenodd;stroke:none"
       d="m 298.5114,90.87981 v 5.186538 c 1.47265,-0.03786 3.96481,0.302863 4.94658,-0.265006 l 0.11328,-4.770101 z"
       id="path933" /></g></svg>
